<svg xmlns="http://www.w3.org/2000/svg" width="682" height="377" viewBox="0 0 682 377">
<g>
<path d="M 598.46 4.60 C587.23,1.45 578.86,0.61 563.00,0.63 C548.72,0.64 536.25,2.10 525.05,5.19 C529.04,4.03 533.19,3.05 537.50,2.25 C548.73,0.15 576.20,-0.06 587.00,1.87 C590.52,2.50 594.45,3.45 598.46,4.60 ZM 1.88 315.75 C0.55,307.99 0.03,298.76 0.02,286.75 L 0.01 277.26 L 0.25 289.25 C0.49,301.39 0.89,309.37 1.88,315.75 ZM 670.22 82.00 C665.51,61.34 657.62,44.88 646.22,32.25 C657.83,44.77 665.36,60.69 670.22,82.00 ZM 6.94 49.04 C12.11,35.73 20.18,25.00 30.91,17.01 C22.11,23.63 15.08,32.14 9.95,42.50 C8.80,44.83 7.80,46.97 6.94,49.04 ZM 1.25 89.25 C1.64,71.26 2.06,65.69 3.62,59.47 C2.09,66.53 1.56,75.04 1.25,89.25 ZM 158.12 22.99 C142.78,7.74 120.12,-0.00 90.50,0.01 C90.41,0.01 90.32,0.01 90.23,0.01 C90.49,0.01 90.74,0.01 91.00,0.01 C120.30,0.01 142.84,7.77 158.12,22.99 ZM 503.86 13.74 C498.67,16.59 493.74,19.93 488.98,23.79 C486.64,25.67 484.43,27.66 482.33,29.75 C488.55,23.45 495.73,18.10 503.86,13.74 ZM 70.50 375.88 C52.90,373.33 38.08,367.31 26.73,358.22 C38.15,367.29 52.99,373.34 70.50,375.88 ZM 7.52 333.82 C6.49,331.70 5.59,329.54 4.81,327.30 C5.57,329.39 6.46,331.50 7.50,333.79 C7.51,333.80 7.51,333.81 7.52,333.82 Z" fill="rgba(0,0,0,1)"/>
<path d="M 336.00 307.00 L 406.00 307.00 L 406.00 376.00 L 336.00 376.00 L 336.00 307.00 Z" fill="rgba(53,94,168,1)"/>
<path d="M 70.50 375.88 C40.22,371.48 17.95,356.60 7.50,333.79 C1.94,321.63 0.74,314.31 0.25,289.25 L -0.21 266.00 L 26.80 266.00 L 53.82 266.00 L 54.17 285.75 C54.57,307.94 55.32,310.92 62.48,318.84 C69.55,326.68 83.56,330.77 97.19,329.00 C109.49,327.40 116.61,323.40 121.91,315.14 C127.62,306.25 128.17,301.61 127.76,265.73 C127.42,235.10 127.29,233.19 125.11,227.26 C122.17,219.23 115.76,212.03 108.78,208.91 C104.03,206.78 101.65,206.49 85.00,206.02 L 66.50 205.50 L 66.23 181.88 L 65.96 158.25 L 83.23 157.77 C103.80,157.19 109.78,155.53 116.64,148.46 C125.01,139.83 127.47,127.24 126.76,96.64 C126.17,71.39 124.71,65.71 116.68,57.54 C109.66,50.38 103.17,48.00 90.64,48.00 C73.74,48.00 64.71,52.74 58.81,64.72 L 55.50 71.45 L 55.16 91.73 L 54.82 112.00 L 27.79 112.00 L 0.76 112.00 L 1.25 89.25 C1.81,63.26 3.11,56.32 9.95,42.50 C23.79,14.58 51.38,0.02 90.50,0.01 C137.07,-0.01 166.45,19.14 177.20,56.50 C179.40,64.16 179.50,65.97 179.50,99.00 C179.50,132.08 179.41,133.83 177.19,141.50 C173.64,153.77 169.32,161.61 162.00,169.06 C158.43,172.70 154.21,176.58 152.63,177.67 L 149.76 179.65 L 154.79 183.34 C171.68,195.75 179.45,211.53 182.12,238.88 C183.88,256.92 182.69,302.15 180.17,313.00 C171.94,348.41 148.94,369.46 111.92,375.46 C101.77,377.11 80.43,377.33 70.50,375.88 ZM 552.00 376.33 C522.19,373.37 500.83,364.45 483.15,347.56 C467.60,332.71 457.97,311.79 454.50,285.33 C452.29,268.49 452.29,108.51 454.50,91.67 C458.43,61.68 469.79,39.32 488.98,23.79 C508.78,7.75 531.45,0.66 563.00,0.63 C581.77,0.61 590.05,1.78 605.00,6.58 C640.17,17.88 661.13,42.11 670.22,82.00 C672.34,91.29 672.40,93.47 672.75,182.00 C673.01,245.53 672.78,275.46 671.98,282.45 C668.05,316.75 653.35,342.60 628.58,358.78 C608.48,371.91 577.96,378.91 552.00,376.33 ZM 576.42 327.52 C597.16,323.82 609.85,311.37 616.21,288.50 C618.42,280.57 618.44,279.77 618.77,196.02 C618.97,144.03 618.71,108.45 618.10,103.52 C616.74,92.51 614.95,84.64 614.03,85.65 C613.14,86.64 529.88,314.45 529.23,317.68 C528.87,319.47 529.71,320.33 533.89,322.44 C545.18,328.16 561.72,330.14 576.42,327.52 ZM 547.88 160.33 C569.40,101.39 587.00,52.92 587.00,52.61 C587.00,52.31 584.41,51.26 581.25,50.29 C574.19,48.11 554.24,47.90 546.00,49.90 C537.68,51.93 527.47,57.66 522.85,62.90 C514.84,71.97 509.87,85.43 508.03,103.00 C506.81,114.65 506.70,271.14 507.91,269.00 C508.38,268.17 526.37,219.28 547.88,160.33 ZM 288.00 374.43 C272.69,371.43 261.24,365.29 249.96,354.03 C239.79,343.88 233.43,332.61 229.54,317.84 C225.40,302.13 225.00,294.61 225.00,232.15 C225.00,183.45 225.28,170.86 226.56,162.23 C231.32,130.18 244.85,109.66 269.36,97.32 C280.81,91.55 289.40,89.75 306.00,89.62 C318.63,89.51 321.46,89.80 327.97,91.85 C337.08,94.70 343.18,97.73 349.34,102.43 L 354.00 105.99 L 354.00 55.49 L 354.00 5.00 L 380.00 5.00 L 406.00 5.00 L 406.00 135.00 L 406.00 265.00 L 380.06 265.00 L 354.12 265.00 L 353.74 217.75 C353.40,176.31 353.14,169.76 351.59,164.50 C347.72,151.32 341.76,143.10 332.50,138.16 C327.82,135.67 326.66,135.50 314.50,135.50 C301.97,135.50 301.31,135.61 296.17,138.45 C289.71,142.03 286.59,145.57 282.82,153.59 C276.67,166.69 276.52,168.62 276.54,233.00 C276.55,284.24 276.76,292.49 278.26,299.50 C280.65,310.77 285.35,319.61 291.26,323.98 L 296.00 327.50 L 296.00 351.19 C296.00,364.22 295.66,375.07 295.25,375.29 C294.84,375.52 291.58,375.13 288.00,374.43 Z" fill="rgba(254,254,254,1)"/>
</g>
</svg>