<svg xmlns="http://www.w3.org/2000/svg" width="648" height="578" viewBox="0 0 648 578">
<g>
<path d="M 160.35 342.80 C158.91,342.42 156.61,341.07 155.24,339.80 C150.16,335.12 150.00,333.74 150.02,295.28 C150.03,260.10 150.07,259.43 152.27,255.60 C153.49,253.46 156.07,250.87 157.98,249.85 C161.35,248.07 168.96,248.00 373.98,248.00 C574.32,248.00 586.70,248.10 589.97,249.75 C591.87,250.71 594.35,253.07 595.47,255.00 C597.42,258.36 597.50,260.00 597.39,296.15 C597.29,332.84 597.23,333.89 595.13,337.28 C593.95,339.20 591.57,341.35 589.85,342.06 C587.31,343.11 546.13,343.37 374.84,343.43 C258.31,343.47 161.79,343.19 160.35,342.80 Z" fill="rgba(254,78,0,1)"/>
<path d="M 96.11 518.75 C92.36,517.78 87.27,511.96 86.49,507.77 C86.16,505.97 86.02,488.75 86.19,469.50 C86.53,431.12 86.51,431.24 92.83,426.50 C95.48,424.52 97.26,424.50 309.00,424.25 C510.81,424.01 522.69,424.09 525.93,425.75 C527.81,426.71 530.29,428.77 531.43,430.32 C533.42,433.04 533.51,434.53 533.78,470.62 C534.07,508.01 534.06,508.11 531.80,512.15 C527.35,520.05 548.36,519.36 311.25,519.43 C194.52,519.47 97.70,519.16 96.11,518.75 ZM 95.45 166.60 C91.43,164.84 87.23,159.74 86.48,155.72 C86.15,153.95 86.02,136.75 86.19,117.50 C86.54,78.20 86.51,78.33 94.05,74.09 L 97.77 72.00 L 310.14 72.00 C510.34,72.00 522.70,72.10 525.93,73.75 C527.81,74.71 530.29,76.77 531.43,78.32 C533.42,81.04 533.51,82.53 533.78,118.54 C534.06,154.54 533.99,156.09 532.02,159.95 C530.90,162.16 528.52,164.76 526.74,165.73 C523.67,167.41 512.20,167.51 311.00,167.72 C135.76,167.89 97.97,167.70 95.45,166.60 Z" fill="rgba(254,254,254,1)"/>
</g>
</svg>