<svg xmlns="http://www.w3.org/2000/svg" width="335" height="358" viewBox="0 0 335 358">
<g>
<path d="M 191.42 331.58 C189.70,330.83 187.81,328.96 187.14,327.33 C186.24,325.16 186.01,310.29 186.22,268.13 L 186.50 211.83 L 189.31 209.41 L 192.11 207.00 L 307.65 207.00 L 310.08 209.58 L 312.50 212.16 L 312.77 268.31 C312.98,310.18 312.74,325.20 311.85,327.36 C309.53,332.97 309.17,333.00 249.28,332.96 C205.75,332.93 193.87,332.65 191.42,331.58 Z" fill="rgba(11,10,11,1)"/>
<path d="M 3.53 329.90 L 0.00 326.79 L 0.00 269.57 L 0.00 212.35 L 2.25 210.30 C6.06,206.83 8.62,206.00 15.53,206.00 C23.80,206.00 28.46,203.98 29.93,199.77 C31.50,195.28 31.32,156.20 29.72,153.00 C27.74,149.04 22.51,147.00 14.28,147.00 C7.64,147.00 6.79,146.75 3.53,143.90 L -0.00 140.79 L 0.00 83.49 L 0.00 26.18 L 3.03 23.63 C4.70,22.23 7.51,20.81 9.28,20.49 C11.05,20.17 36.58,20.04 66.00,20.20 C124.42,20.53 123.93,20.48 125.95,26.29 C127.36,30.32 127.38,135.09 125.98,140.14 C124.14,146.75 122.70,147.00 85.85,147.00 C55.58,147.01 53.29,147.13 50.31,148.95 C48.56,150.02 46.64,151.80 46.05,152.90 C45.40,154.11 44.88,163.40 44.74,176.21 C44.53,194.67 44.73,197.91 46.20,200.61 C49.10,205.90 51.00,206.18 81.63,205.80 C112.90,205.42 112.79,205.44 125.00,197.42 C133.13,192.07 173.36,151.68 178.32,143.89 C180.28,140.80 182.89,135.18 184.13,131.39 C186.33,124.64 186.37,123.48 186.44,75.41 C186.49,33.30 186.71,26.05 188.00,24.50 C191.64,20.11 193.16,20.00 249.50,20.00 C306.58,20.00 308.40,20.14 310.92,24.85 C311.66,26.23 312.00,44.95 312.00,83.88 L 312.00 140.89 L 309.59 143.69 L 307.18 146.50 L 257.34 147.06 C203.80,147.67 203.45,147.70 192.50,153.25 C186.74,156.17 185.88,156.92 162.34,179.64 C139.99,201.22 133.47,209.24 129.60,219.92 C127.69,225.19 127.56,228.28 127.26,275.00 C127.05,309.22 126.60,325.39 125.80,327.37 C123.57,332.97 123.22,333.00 62.57,333.00 L 7.07 333.00 L 3.53 329.90 Z" fill="rgba(244,244,244,1)"/>
</g>
</svg>