<svg xmlns="http://www.w3.org/2000/svg" width="80" height="88" viewBox="0 0 38.1 44" fill="none">
<path d="M38.0983 14.2888C37.9015 11.3382 35.6983 9.14083 32.7403 8.94547C30.2124 8.78267 26.3755 9.30363 22.4512 12.733C21.1366 13.8823 19.9985 15.263 19.0633 16.8444C18.1272 15.263 16.9899 13.8823 15.6753 12.733C11.7519 9.30451 7.91577 8.78091 5.38541 8.94547C2.42715 9.14083 0.224126 11.3382 0.0273794 14.2888C-0.140252 16.8083 0.382936 20.6336 3.82469 24.5523C5.68626 26.6722 8.09398 28.2994 10.9834 29.3914C10.9843 37.4451 17.2625 43.1827 17.5422 43.4343L17.626 43.5039C18.046 43.8295 18.5427 44.0011 19.0633 44.0011C19.5838 44.0011 20.0832 43.827 20.5181 43.4898L20.6002 43.4203C20.8702 43.1774 27.1413 37.4478 27.1431 29.3914C30.0325 28.2994 32.4401 26.6722 34.3019 24.5523C37.7436 20.6336 38.2667 16.8083 38.0991 14.2888H38.0983ZM15.9003 18.4811C15.7265 18.6017 15.5606 18.7311 15.4054 18.8666C14.0122 20.0836 12.2151 22.2458 11.406 25.7104C9.43152 24.8453 7.78342 23.6696 6.50236 22.2115C3.86437 19.208 3.45675 16.3727 3.58028 14.5229C3.6588 13.3446 4.4405 12.5649 5.62185 12.4866C5.81331 12.4734 6.01007 12.4672 6.20768 12.4672C7.92459 12.4672 10.5546 12.9759 13.3303 15.4011C14.314 16.2609 15.1777 17.2958 15.9012 18.4803L15.9003 18.4811ZM19.0624 27.3454C18.2604 27.3304 16.6767 27.2407 14.8054 26.8165C15.3683 24.0956 16.7058 22.4491 17.7496 21.5374C18.5454 20.8422 19.5785 20.8422 20.3752 21.5374C21.4189 22.4482 22.7565 24.0947 23.3193 26.8165C21.4419 27.2424 19.8538 27.3313 19.0615 27.3454H19.0624ZM17.7001 30.8415V30.8583L18.2974 30.8891C18.3504 30.8918 18.5542 30.9014 18.8859 30.9014H19.058H19.2415C19.5706 30.9014 19.7753 30.8918 19.8458 30.8882L20.0646 30.8662C20.8816 30.8195 22.1168 30.7043 23.539 30.4191C23.464 31.2595 23.2999 32.115 23.0494 32.9686C21.2857 33.3418 19.8017 33.4182 19.0694 33.4298C18.3257 33.4182 16.839 33.3418 15.0754 32.9686C14.8248 32.1142 14.6607 31.2587 14.5857 30.4191C15.8121 30.6647 16.8999 30.7843 17.6993 30.8426L17.7001 30.8415ZM24.7963 15.402C27.8111 12.7682 30.6509 12.3608 32.5046 12.4875C33.6859 12.5658 34.4678 13.3455 34.5463 14.5238C34.669 16.3735 34.2622 19.2089 31.6241 22.2123C30.3431 23.6705 28.6949 24.8462 26.7205 25.7112C25.9114 22.2458 24.1142 20.0836 22.7203 18.8675C22.5659 18.7319 22.4 18.6035 22.2262 18.482C22.9496 17.2967 23.8125 16.2618 24.7954 15.402H24.7963ZM17.7019 36.9215V36.9391L18.2913 36.9718C18.3416 36.9751 18.5401 36.9831 18.8436 36.9831C18.9133 36.9831 18.99 36.9831 19.0571 36.9814C19.4611 36.9866 19.7285 36.9762 19.8246 36.9718L20.0937 36.9426C20.4978 36.9179 20.9098 36.8827 21.3236 36.837C20.5419 38.1403 19.7126 39.1787 19.0624 39.9038C18.413 39.1787 17.5837 38.1403 16.802 36.8379C17.1037 36.8714 17.4037 36.8995 17.7019 36.9215Z" fill="white"/>
<path d="M19.0624 12.2514C22.4494 12.2514 25.2039 9.50312 25.2039 6.12568C25.2039 2.74824 22.4494 0 19.0624 0C15.6754 0 12.9209 2.74824 12.9209 6.12568C12.9209 9.50312 15.6762 12.2514 19.0624 12.2514ZM19.0624 3.54992C20.4864 3.54992 21.6448 4.70536 21.6448 6.12568C21.6448 7.546 20.4864 8.70144 19.0624 8.70144C17.6384 8.70144 16.48 7.546 16.48 6.12568C16.48 4.70536 17.6384 3.54992 19.0624 3.54992Z" fill="white"/>
</svg>
