<svg width="40" height="42" viewBox="0 0 40 42" fill="none" xmlns="http://www.w3.org/2000/svg">
<path d="M34.3792 0.0052573C31.2203 0.115264 28.4627 1.85337 26.4104 4.25821C24.1377 6.89455 22.6257 10.0216 21.5363 13.2137C19.5875 11.6191 18.0842 9.5548 14.9578 8.65466C12.5413 7.96209 10.0032 8.24811 7.66918 9.9843C6.56349 10.8089 5.80177 12.0553 5.43959 13.2271C4.50157 16.2719 6.42552 18.9819 7.29934 19.9547L9.20987 21.9989C9.60367 22.3998 10.5522 23.4453 10.0885 24.9443C9.58738 26.5743 7.61936 27.6294 5.60056 27.0076C4.69895 26.7331 3.40355 26.0625 3.69386 25.1184C3.81363 24.7319 4.09053 24.443 4.23904 24.1092C4.3751 23.8222 4.44025 23.607 4.48145 23.4807C4.85034 22.2783 4.34636 20.7143 3.0567 20.3173C1.85328 19.949 0.622066 20.2408 0.144912 21.7875C-0.396437 23.5448 0.445769 26.734 4.95765 28.123C10.2437 29.7444 14.7153 26.8708 15.3496 23.1229C15.7492 20.7755 14.6876 19.0316 12.7425 16.7885L11.1578 15.0389C10.1977 14.0813 9.86812 12.4494 10.8617 11.1953C11.7001 10.1374 12.8939 9.68585 14.8495 10.2168C17.7038 10.9906 18.9762 12.9679 21.0994 14.5625C20.2227 17.4332 19.6498 20.3144 19.1314 22.8981L18.8152 24.8247C17.2975 32.772 16.1391 37.1359 13.1287 39.6412C12.5222 40.0716 11.655 40.7164 10.3481 40.7613C9.66307 40.7824 9.44174 40.3117 9.43216 40.107C9.41587 39.6268 9.82117 39.4068 10.0904 39.1906C10.4928 38.9716 11.1012 38.6081 11.06 37.4439C11.016 36.0683 9.87482 34.8755 8.22491 34.93C6.9889 34.9721 5.1052 36.1334 5.17611 38.2589C5.24988 40.4543 7.29934 42.0996 10.3893 41.9953C12.0412 41.9389 15.73 41.2673 19.3652 36.9532C23.5963 32.0077 24.7796 26.338 25.6698 22.1884L26.6633 16.71C27.2152 16.776 27.8054 16.82 28.4474 16.8353C33.7172 16.9463 36.353 14.221 36.3923 12.239C36.4182 11.0394 35.6037 9.85899 34.4636 9.88578C33.6472 9.90873 32.622 10.4511 32.3758 11.578C32.1353 12.6838 34.0525 13.6815 32.554 14.6505C31.4895 15.3383 29.5809 15.8233 26.8933 15.4292L27.382 12.7326C28.3794 7.61868 29.6096 1.32821 34.2767 1.17516C34.6169 1.15794 35.8615 1.19046 35.8902 2.01216C35.8989 2.2867 35.8308 2.35653 35.5089 2.985C35.1812 3.47477 35.0576 3.89184 35.0729 4.37109C35.118 5.67682 36.1125 6.53487 37.5507 6.48322C39.4765 6.42104 40.0304 4.54901 39.9987 3.58765C39.9211 1.32916 37.5363 -0.0980534 34.3792 0.0052573Z" fill="white"/>
</svg>
