<svg width="650" height="400" viewBox="0 0 650 400" fill="none" xmlns="http://www.w3.org/2000/svg">
<line x1="272.017" y1="186.492" x2="410.572" y2="186.492" stroke="#5C5C5C" stroke-linecap="round" stroke-dasharray="4 4"/>
<line x1="272.017" y1="200.624" x2="410.572" y2="200.624" stroke="#5C5C5C" stroke-linecap="round" stroke-dasharray="4 4"/>
<line x1="272.017" y1="214.756" x2="410.572" y2="214.756" stroke="#5C5C5C" stroke-linecap="round" stroke-dasharray="4 4"/>
<path d="M518.831 107.998C539.756 107.998 558.676 111.648 572.346 117.529C579.182 120.47 584.682 123.96 588.466 127.809C592.248 131.655 594.292 135.835 594.292 140.179C594.292 144.523 592.248 148.702 588.466 152.549C584.682 156.398 579.182 159.887 572.346 162.828C558.676 168.709 539.756 172.359 518.831 172.359C497.906 172.359 478.987 168.709 465.316 162.828C458.48 159.887 452.98 156.398 449.196 152.549C445.414 148.702 443.37 144.523 443.37 140.179C443.37 135.835 445.415 131.655 449.196 127.809C452.98 123.96 458.481 120.47 465.316 117.529C478.987 111.648 497.907 107.998 518.831 107.998Z" stroke="#5C5C5C"/>
<line x1="443.37" y1="139.295" x2="443.37" y2="270.019" stroke="#5C5C5C"/>
<line x1="593.525" y1="139.295" x2="593.525" y2="270.019" stroke="#5C5C5C"/>
<path d="M593.876 208.19C589.949 248.998 447.705 246.309 443.721 208.19" stroke="#5C5C5C"/>
<path d="M593.908 264.136C594.49 265.766 594.792 267.435 594.792 269.135C594.792 287.184 560.783 301.816 518.831 301.816C476.879 301.816 442.87 287.184 442.87 269.135C442.87 267.435 443.172 265.766 443.753 264.136V270.018H444.671C444.927 273.635 446.747 277.208 450.098 280.618C453.731 284.312 459.074 287.721 465.816 290.622C479.293 296.42 498.036 300.049 518.831 300.049C539.626 300.049 558.368 296.42 571.846 290.622C578.587 287.721 583.931 284.312 587.563 280.618C590.915 277.208 592.735 273.635 592.991 270.018H593.908V264.136Z" fill="#5C5C5C"/>
<rect x="56.5" y="81.5" width="188.019" height="237.481" stroke="#5C5C5C"/>
<line x1="90.564" y1="145.361" x2="145.093" y2="145.361" stroke="#D1D1D1" stroke-width="2" stroke-linecap="round"/>
<line x1="155.926" y1="145.361" x2="191.023" y2="145.361" stroke="#5C5C5C" stroke-width="2" stroke-linecap="round"/>
<line x1="178.891" y1="155.961" x2="203.389" y2="155.961" stroke="#5C5C5C" stroke-width="2" stroke-linecap="round"/>
<line x1="170.058" y1="177.159" x2="205.155" y2="177.159" stroke="#5C5C5C" stroke-width="2" stroke-linecap="round"/>
<line x1="97.6304" y1="177.159" x2="132.727" y2="177.159" stroke="#5C5C5C" stroke-width="2" stroke-linecap="round"/>
<line x1="90.564" y1="155.961" x2="168.058" y2="155.961" stroke="#5C5C5C" stroke-width="2" stroke-linecap="round"/>
<line x1="90.564" y1="166.56" x2="127.428" y2="166.56" stroke="#D1D1D1" stroke-width="2" stroke-linecap="round"/>
<line x1="138.26" y1="166.56" x2="173.357" y2="166.56" stroke="#A3A3A3" stroke-width="2" stroke-linecap="round"/>
<line x1="90.564" y1="111.797" x2="125.661" y2="111.797" stroke="#5C5C5C" stroke-width="2" stroke-linecap="round"/>
<line x1="76.4316" y1="111.797" x2="81.4978" y2="111.797" stroke="#5C5C5C" stroke-width="2" stroke-linecap="round"/>
<line x1="76.4316" y1="145.361" x2="81.4978" y2="145.361" stroke="#5C5C5C" stroke-width="2" stroke-linecap="round"/>
<line x1="76.4316" y1="210.724" x2="81.4978" y2="210.724" stroke="#5C5C5C" stroke-width="2" stroke-linecap="round"/>
<line x1="76.4316" y1="155.961" x2="81.4978" y2="155.961" stroke="#5C5C5C" stroke-width="2" stroke-linecap="round"/>
<line x1="76.4316" y1="221.322" x2="81.4978" y2="221.322" stroke="#5C5C5C" stroke-width="2" stroke-linecap="round"/>
<line x1="76.4316" y1="166.56" x2="81.4978" y2="166.56" stroke="#5C5C5C" stroke-width="2" stroke-linecap="round"/>
<line x1="76.4316" y1="231.921" x2="81.4978" y2="231.921" stroke="#5C5C5C" stroke-width="2" stroke-linecap="round"/>
<line x1="76.4316" y1="177.159" x2="81.4978" y2="177.159" stroke="#5C5C5C" stroke-width="2" stroke-linecap="round"/>
<line x1="76.4316" y1="242.521" x2="81.4978" y2="242.521" stroke="#5C5C5C" stroke-width="2" stroke-linecap="round"/>
<line x1="76.4316" y1="274.318" x2="81.4978" y2="274.318" stroke="#5C5C5C" stroke-width="2" stroke-linecap="round"/>
<line x1="90.564" y1="177.159" x2="159.225" y2="177.159" stroke="#5C5C5C" stroke-width="2" stroke-linecap="round"/>
<line x1="90.564" y1="210.724" x2="175.124" y2="210.724" stroke="#D1D1D1" stroke-width="2" stroke-linecap="round"/>
<line x1="90.564" y1="221.322" x2="169.824" y2="221.322" stroke="#5C5C5C" stroke-width="2" stroke-linecap="round"/>
<line x1="90.564" y1="231.921" x2="145.093" y2="231.921" stroke="#5C5C5C" stroke-width="2" stroke-linecap="round"/>
<line x1="90.564" y1="242.521" x2="160.992" y2="242.521" stroke="#D1D1D1" stroke-width="2" stroke-linecap="round"/>
<line x1="90.564" y1="274.318" x2="97.3966" y2="274.318" stroke="#5C5C5C" stroke-width="2" stroke-linecap="round"/>
<line x1="108.229" y1="274.318" x2="115.062" y2="274.318" stroke="#D1D1D1" stroke-width="2" stroke-linecap="round"/>
<line x1="125.895" y1="274.318" x2="150.392" y2="274.318" stroke="#5C5C5C" stroke-width="2" stroke-linecap="round"/>
<line x1="170.058" y1="242.521" x2="194.556" y2="242.521" stroke="#5C5C5C" stroke-width="2" stroke-linecap="round"/>
<line x1="155.926" y1="231.921" x2="191.023" y2="231.921" stroke="#A3A3A3" stroke-width="2" stroke-linecap="round"/>
<line x1="178.891" y1="221.322" x2="203.389" y2="221.322" stroke="#5C5C5C" stroke-width="2" stroke-linecap="round"/>
</svg>
