<svg width="650" height="400" viewBox="0 0 650 400" fill="none" xmlns="http://www.w3.org/2000/svg">
<g clip-path="url(#clip0_191_27)">
<path d="M325 94.5C383.266 94.5 430.5 141.734 430.5 200C430.5 258.266 383.266 305.5 325 305.5C266.734 305.5 219.5 258.266 219.5 200C219.5 141.734 266.734 94.5 325 94.5Z" stroke="#333333"/>
<circle cx="325" cy="200" r="184.5" stroke="#333333"/>
<circle cx="325" cy="200" r="264.5" stroke="#333333"/>
<circle cx="325" cy="200" r="344.5" stroke="#333333"/>
<rect x="307.387" y="212.292" width="14.9524" height="14.9524" fill="white"/>
<rect x="322.339" y="197.339" width="14.9524" height="14.9524" fill="white"/>
<rect x="337.292" y="182.387" width="14.9524" height="14.9524" fill="white"/>
<rect x="337.292" y="212.292" width="14.9524" height="14.9524" fill="white"/>
<circle cx="293" cy="101" r="31.5" fill="#1C1C1C" stroke="#333333"/>
<path d="M280.856 88.8169H285.714V93.6732H280.856V88.8169ZM300.285 88.8169H305.144V93.6732H300.285V88.8169Z" fill="#5C5C5C"/>
<path d="M280.856 93.6729H290.571V98.5306H280.858L280.856 93.6729ZM295.428 93.6729H305.142V98.5306H295.428V93.6729Z" fill="#5C5C5C"/>
<path d="M280.856 98.5322H305.144V103.389H280.856V98.5322Z" fill="#5C5C5C"/>
<path d="M280.856 103.389H285.714V108.245H280.856V103.389ZM290.572 103.389H295.43V108.245H290.572V103.389ZM300.285 103.389H305.144V108.245H300.285V103.389Z" fill="#5C5C5C"/>
<path d="M276 108.245H290.572V113.102H276V108.245ZM295.428 108.245H310V113.102H295.428V108.245Z" fill="#5C5C5C"/>
<circle cx="359" cy="296" r="31.5" fill="#262626" stroke="#5C5C5C"/>
<circle cx="140" cy="215" r="31.5" fill="#1C1C1C" stroke="#333333"/>
<circle cx="111" cy="47" r="31.5" fill="#262626" stroke="#5C5C5C"/>
<circle cx="489" cy="123" r="31.5" fill="#262626" stroke="#5C5C5C"/>
<g clip-path="url(#clip1_191_27)">
<path d="M503.566 119.913C503.946 118.768 504.078 117.556 503.952 116.356C503.826 115.156 503.445 113.997 502.835 112.956C501.932 111.383 500.551 110.137 498.894 109.399C497.237 108.661 495.387 108.468 493.613 108.848C492.605 107.727 491.32 106.89 489.887 106.423C488.453 105.956 486.922 105.874 485.447 106.186C483.972 106.497 482.605 107.192 481.483 108.199C480.361 109.206 479.524 110.491 479.056 111.924C477.874 112.167 476.757 112.658 475.781 113.367C474.804 114.075 473.99 114.984 473.393 116.033C472.479 117.603 472.088 119.424 472.277 121.231C472.467 123.038 473.226 124.739 474.445 126.086C474.063 127.23 473.93 128.443 474.055 129.643C474.18 130.842 474.56 132.002 475.169 133.043C476.074 134.617 477.455 135.863 479.114 136.601C480.772 137.339 482.622 137.532 484.398 137.151C485.198 138.053 486.182 138.774 487.284 139.265C488.385 139.756 489.579 140.007 490.785 140C492.603 140.002 494.375 139.425 495.845 138.354C497.315 137.284 498.406 135.773 498.962 134.042C500.143 133.799 501.26 133.307 502.236 132.598C503.213 131.89 504.027 130.981 504.625 129.933C505.528 128.365 505.912 126.551 505.721 124.751C505.531 122.952 504.777 121.258 503.566 119.913ZM490.785 137.775C489.296 137.777 487.853 137.255 486.71 136.3L486.911 136.186L493.68 132.279C493.849 132.18 493.989 132.039 494.086 131.87C494.184 131.701 494.235 131.509 494.237 131.314V121.77L497.098 123.425C497.112 123.432 497.125 123.443 497.134 123.456C497.143 123.468 497.15 123.483 497.152 123.499V131.408C497.148 133.095 496.476 134.713 495.283 135.906C494.09 137.099 492.472 137.771 490.785 137.775ZM477.099 131.93C476.352 130.641 476.084 129.129 476.341 127.661L476.543 127.782L483.319 131.689C483.486 131.787 483.677 131.839 483.872 131.839C484.066 131.839 484.257 131.787 484.424 131.689L492.702 126.917V130.221C492.701 130.238 492.696 130.255 492.688 130.27C492.68 130.285 492.669 130.298 492.655 130.308L485.798 134.263C484.335 135.106 482.597 135.334 480.966 134.896C479.335 134.459 477.944 133.392 477.099 131.93ZM475.316 117.185C476.068 115.887 477.255 114.897 478.667 114.391V122.433C478.665 122.628 478.714 122.819 478.811 122.988C478.908 123.156 479.048 123.296 479.217 123.392L487.454 128.144L484.592 129.799C484.577 129.807 484.559 129.811 484.542 129.811C484.524 129.811 484.507 129.807 484.491 129.799L477.649 125.851C476.188 125.005 475.123 123.614 474.685 121.983C474.248 120.353 474.475 118.616 475.316 117.152V117.185ZM498.828 122.648L490.564 117.849L493.419 116.2C493.434 116.192 493.452 116.187 493.469 116.187C493.487 116.187 493.504 116.192 493.519 116.2L500.362 120.154C501.409 120.758 502.262 121.647 502.822 122.717C503.382 123.788 503.626 124.995 503.525 126.199C503.425 127.403 502.984 128.553 502.254 129.516C501.524 130.478 500.536 131.213 499.404 131.635V123.593C499.398 123.399 499.342 123.209 499.241 123.044C499.14 122.878 498.997 122.742 498.828 122.648ZM501.676 118.365L501.475 118.244L494.712 114.303C494.544 114.204 494.352 114.152 494.156 114.152C493.96 114.152 493.768 114.204 493.6 114.303L485.329 119.075V115.771C485.328 115.754 485.33 115.738 485.338 115.722C485.345 115.707 485.356 115.694 485.37 115.684L492.213 111.736C493.261 111.132 494.46 110.839 495.67 110.892C496.879 110.944 498.048 111.339 499.041 112.032C500.034 112.724 500.809 113.685 501.275 114.802C501.742 115.919 501.881 117.145 501.676 118.338L501.676 118.365ZM483.768 124.223L480.906 122.574C480.892 122.565 480.879 122.554 480.87 122.54C480.861 122.526 480.855 122.51 480.852 122.494V114.605C480.854 113.395 481.2 112.21 481.85 111.189C482.5 110.169 483.427 109.354 484.523 108.841C485.619 108.328 486.838 108.137 488.039 108.292C489.239 108.446 490.37 108.939 491.301 109.712L491.1 109.826L484.331 113.734C484.162 113.832 484.022 113.973 483.925 114.143C483.827 114.312 483.775 114.503 483.774 114.699L483.768 124.223ZM485.322 120.872L489.009 118.747L492.702 120.872V125.121L489.022 127.245L485.329 125.121L485.322 120.872Z" fill="white"/>
</g>
<circle cx="117" cy="362" r="31.5" fill="#1C1C1C" stroke="#333333"/>
<circle cx="553" cy="338" r="31.5" fill="#1C1C1C" stroke="#333333"/>
<path d="M361.534 284.57L370.648 307.43H375.646L366.532 284.57H361.534Z" fill="white"/>
<path d="M350.961 298.384L354.079 290.35L357.198 298.384H350.961ZM351.466 284.57L342.354 307.43H347.449L349.313 302.629H358.846L360.709 307.43H365.804L356.692 284.57H351.466Z" fill="white"/>
<g clip-path="url(#clip2_191_27)">
<path d="M126.557 46.9711C118.123 46.6382 111.361 39.8772 111.029 31.443L111 30.7085L110.971 31.443C110.639 39.8772 103.877 46.6382 95.443 46.9711L94.7085 47.0002L95.443 47.0292C103.877 47.3621 110.638 54.1232 110.971 62.5573L111 63.2918L111.029 62.5573C111.362 54.1232 118.123 47.3621 126.557 47.0292L127.292 47.0002L126.557 46.9711Z" fill="white"/>
</g>
<path fill-rule="evenodd" clip-rule="evenodd" d="M134.199 199.544C134.505 199.665 134.781 199.863 135.032 200.125C135.45 200.559 135.802 201.179 136.071 201.914C136.342 202.654 136.518 203.473 136.584 204.294C137.476 203.79 138.466 203.483 139.487 203.393L139.559 203.388C140.792 203.289 142.01 203.511 143.073 204.059C143.216 204.134 143.356 204.215 143.493 204.3C143.564 203.494 143.737 202.694 144.003 201.971C144.273 201.234 144.625 200.615 145.042 200.18C145.275 199.929 145.559 199.73 145.876 199.6C146.24 199.458 146.627 199.432 147.004 199.54C147.572 199.702 148.059 200.061 148.443 200.584C148.795 201.062 149.058 201.674 149.238 202.407C149.564 203.731 149.62 205.472 149.401 207.571L149.476 207.628L149.513 207.655C150.585 208.471 151.332 209.634 151.727 210.984C152.343 213.09 152.033 215.453 150.971 216.775L150.945 216.805L150.948 216.809C151.539 217.889 151.897 219.029 151.974 220.209L151.976 220.252C152.067 221.76 151.693 223.279 150.823 224.771L150.813 224.785L150.827 224.819C151.496 226.458 151.706 228.109 151.448 229.758L151.439 229.813C151.4 230.054 151.266 230.269 151.067 230.411C150.869 230.554 150.622 230.611 150.381 230.572C150.262 230.554 150.147 230.512 150.044 230.449C149.941 230.386 149.852 230.303 149.781 230.205C149.71 230.108 149.658 229.997 149.63 229.88C149.602 229.762 149.597 229.64 149.616 229.521C149.853 228.058 149.63 226.59 148.936 225.097C148.871 224.958 148.843 224.805 148.853 224.652C148.863 224.5 148.911 224.352 148.993 224.223L148.999 224.214C149.854 222.905 150.208 221.622 150.132 220.361C150.067 219.257 149.671 218.173 148.999 217.141C148.868 216.94 148.821 216.696 148.869 216.461C148.916 216.226 149.055 216.019 149.254 215.886L149.266 215.877C149.611 215.652 149.928 215.077 150.088 214.29C150.265 213.361 150.218 212.402 149.953 211.494C149.663 210.502 149.132 209.675 148.388 209.11C147.545 208.466 146.429 208.156 145.016 208.245C144.832 208.257 144.648 208.214 144.488 208.12C144.328 208.026 144.201 207.887 144.121 207.72C143.676 206.778 143.027 206.103 142.218 205.686C141.442 205.298 140.572 205.135 139.708 205.215C137.944 205.355 136.389 206.35 135.926 207.604C135.86 207.78 135.742 207.932 135.588 208.04C135.433 208.148 135.25 208.205 135.061 208.206C133.55 208.209 132.38 208.563 131.524 209.202C130.784 209.754 130.28 210.526 130.014 211.451C129.773 212.322 129.74 213.237 129.917 214.123C130.076 214.914 130.386 215.568 130.742 215.921L130.753 215.931C131.054 216.224 131.117 216.682 130.908 217.043C130.398 217.924 130.017 219.237 129.954 220.5C129.883 221.942 130.218 223.194 130.973 224.092L130.996 224.119C131.11 224.252 131.183 224.415 131.207 224.588C131.231 224.762 131.204 224.938 131.13 225.097C130.314 226.848 130.063 228.287 130.334 229.42C130.383 229.656 130.337 229.901 130.208 230.104C130.078 230.307 129.875 230.451 129.641 230.506C129.406 230.561 129.16 230.523 128.954 230.399C128.747 230.275 128.598 230.075 128.536 229.843C128.192 228.4 128.426 226.749 129.206 224.887L129.226 224.837L129.215 224.82C128.831 224.254 128.545 223.627 128.368 222.966L128.361 222.939C128.146 222.114 128.061 221.261 128.11 220.41C128.172 219.121 128.504 217.801 128.991 216.741L129.008 216.704L129.005 216.702C128.59 216.109 128.283 215.351 128.113 214.513L128.106 214.479C127.871 213.309 127.916 212.1 128.237 210.951C128.608 209.655 129.338 208.542 130.413 207.737C130.498 207.673 130.588 207.609 130.677 207.55C130.452 205.435 130.508 203.682 130.835 202.351C131.015 201.617 131.28 201.005 131.632 200.527C132.014 200.006 132.501 199.646 133.07 199.483C133.446 199.376 133.835 199.4 134.199 199.543V199.544ZM140.03 212.422C141.356 212.422 142.58 212.865 143.495 213.633C144.387 214.38 144.919 215.383 144.919 216.381C144.919 217.639 144.343 218.62 143.313 219.246C142.435 219.777 141.258 220.035 139.909 220.035C138.48 220.035 137.259 219.668 136.377 218.995C135.503 218.329 135.013 217.394 135.013 216.381C135.013 215.38 135.577 214.374 136.509 213.625C137.456 212.864 138.705 212.422 140.03 212.422ZM140.03 213.691C139.047 213.683 138.09 214.007 137.315 214.612C136.662 215.136 136.292 215.795 136.292 216.383C136.292 216.989 136.59 217.557 137.157 217.989C137.801 218.481 138.749 218.766 139.909 218.766C141.041 218.766 141.996 218.557 142.646 218.162C143.302 217.765 143.638 217.19 143.638 216.381C143.638 215.782 143.289 215.121 142.67 214.602C141.985 214.028 141.055 213.691 140.03 213.691ZM140.967 215.405L140.973 215.411C141.143 215.625 141.108 215.935 140.894 216.105L140.48 216.431V217.063C140.479 217.203 140.423 217.338 140.323 217.437C140.223 217.536 140.088 217.592 139.947 217.591C139.807 217.592 139.672 217.536 139.572 217.437C139.472 217.338 139.416 217.203 139.415 217.063V216.411L139.031 216.102C138.98 216.062 138.938 216.012 138.907 215.955C138.876 215.898 138.856 215.835 138.849 215.771C138.843 215.706 138.849 215.641 138.867 215.579C138.886 215.516 138.916 215.458 138.957 215.408C139.041 215.306 139.161 215.242 139.292 215.228C139.423 215.215 139.554 215.253 139.657 215.336L139.962 215.58L140.273 215.333C140.376 215.252 140.505 215.215 140.635 215.228C140.765 215.242 140.884 215.305 140.967 215.405ZM133.827 212.687C134.505 212.687 135.056 213.239 135.056 213.921C135.056 214.247 134.927 214.561 134.696 214.792C134.466 215.023 134.153 215.154 133.826 215.155C133.5 215.153 133.188 215.023 132.957 214.792C132.727 214.561 132.598 214.248 132.598 213.922C132.597 213.595 132.726 213.282 132.956 213.05C133.187 212.819 133.501 212.688 133.827 212.687ZM146.161 212.687C146.841 212.687 147.391 213.239 147.391 213.921C147.391 214.247 147.262 214.561 147.031 214.792C146.801 215.023 146.488 215.154 146.161 215.155C145.835 215.153 145.522 215.023 145.292 214.792C145.062 214.561 144.933 214.248 144.933 213.922C144.932 213.595 145.061 213.282 145.291 213.05C145.522 212.819 145.834 212.688 146.161 212.687ZM133.54 201.258L133.536 201.261C133.372 201.333 133.231 201.45 133.132 201.598L133.125 201.607C132.929 201.875 132.759 202.269 132.632 202.786C132.391 203.766 132.326 205.096 132.456 206.727C133.065 206.545 133.73 206.432 134.445 206.391L134.459 206.39L134.486 206.341C134.551 206.225 134.621 206.113 134.696 206.003C134.87 204.911 134.727 203.606 134.337 202.541C134.148 202.025 133.917 201.62 133.696 201.389C133.65 201.341 133.599 201.298 133.544 201.261L133.54 201.258ZM146.536 201.315L146.534 201.317C146.478 201.353 146.428 201.396 146.382 201.444C146.161 201.675 145.929 202.082 145.74 202.597C145.329 203.722 145.192 205.113 145.414 206.241L145.497 206.378L145.508 206.398H145.55C146.253 206.398 146.953 206.499 147.627 206.698C147.749 205.106 147.681 203.804 147.446 202.842C147.318 202.325 147.148 201.931 146.951 201.664L146.946 201.655C146.847 201.506 146.706 201.388 146.542 201.317H146.536V201.315Z" fill="#5C5C5C"/>
<g clip-path="url(#clip3_191_27)">
<path fill-rule="evenodd" clip-rule="evenodd" d="M549.133 342.661L560.435 334.307C560.989 333.896 561.78 334.056 562.045 334.692C563.434 338.048 562.813 342.08 560.048 344.848C557.284 347.616 553.436 348.223 549.92 346.84L546.08 348.621C551.589 352.391 558.278 351.458 562.459 347.271C565.775 343.95 566.803 339.424 565.842 335.342L565.851 335.352C564.458 329.357 566.193 326.96 569.746 322.06C569.831 321.944 569.916 321.827 570 321.708L565.324 326.391V326.376L549.128 342.664M546.799 344.691C542.844 340.909 543.527 335.056 546.9 331.68C549.395 329.183 553.483 328.163 557.052 329.662L560.884 327.891C560.087 327.305 559.216 326.828 558.293 326.474C555.972 325.524 553.422 325.282 550.964 325.777C548.506 326.273 546.249 327.484 544.477 329.259C540.889 332.852 539.76 338.377 541.698 343.092C543.146 346.615 540.773 349.107 538.383 351.623C537.534 352.515 536.684 353.406 536 354.35L546.795 344.695" fill="#5C5C5C"/>
</g>
<g clip-path="url(#clip4_191_27)">
<path d="M133.643 351.35C133.283 351.174 133.127 351.51 132.918 351.681C132.845 351.736 132.784 351.809 132.724 351.874C132.197 352.436 131.582 352.805 130.778 352.761C129.604 352.695 128.601 353.064 127.714 353.962C127.526 352.854 126.9 352.194 125.948 351.769C125.449 351.548 124.945 351.328 124.595 350.848C124.351 350.507 124.284 350.126 124.163 349.752C124.085 349.525 124.007 349.294 123.748 349.256C123.464 349.212 123.354 349.448 123.243 349.647C122.8 350.457 122.628 351.35 122.645 352.253C122.684 354.288 123.542 355.908 125.249 357.06C125.443 357.192 125.493 357.325 125.432 357.518C125.316 357.914 125.177 358.3 125.055 358.698C124.977 358.951 124.861 359.005 124.589 358.896C123.67 358.501 122.835 357.934 122.13 357.225C120.916 356.052 119.819 354.757 118.451 353.742C118.134 353.508 117.808 353.286 117.475 353.075C116.079 351.719 117.659 350.606 118.024 350.474C118.407 350.335 118.156 349.862 116.921 349.868C115.685 349.873 114.555 350.286 113.114 350.837C112.9 350.919 112.68 350.984 112.455 351.031C111.109 350.777 109.732 350.728 108.371 350.886C105.701 351.184 103.569 352.448 102 354.602C100.116 357.192 99.6727 360.136 100.215 363.204C100.786 366.44 102.438 369.119 104.975 371.213C107.607 373.384 110.638 374.448 114.096 374.244C116.195 374.124 118.534 373.842 121.171 371.609C121.836 371.941 122.533 372.073 123.692 372.172C124.585 372.255 125.443 372.129 126.108 371.99C127.149 371.769 127.077 370.805 126.701 370.629C123.648 369.207 124.318 369.786 123.708 369.317C125.261 367.481 127.598 365.574 128.513 359.396C128.584 358.905 128.523 358.596 128.513 358.199C128.508 357.958 128.563 357.863 128.839 357.837C129.605 357.757 130.349 357.528 131.028 357.164C133.005 356.083 133.804 354.309 133.993 352.181C134.021 351.855 133.987 351.521 133.643 351.35ZM116.406 370.5C113.447 368.174 112.012 367.408 111.42 367.44C110.864 367.474 110.965 368.107 111.087 368.521C111.214 368.929 111.38 369.21 111.612 369.568C111.774 369.805 111.884 370.157 111.452 370.422C110.499 371.012 108.843 370.224 108.765 370.186C106.837 369.049 105.223 367.551 104.088 365.501C102.992 363.527 102.354 361.411 102.25 359.151C102.221 358.604 102.381 358.412 102.925 358.313C103.64 358.176 104.371 358.157 105.091 358.257C108.112 358.699 110.682 360.049 112.838 362.187C114.067 363.405 114.998 364.86 115.957 366.283C116.977 367.793 118.074 369.232 119.471 370.411C119.964 370.825 120.356 371.139 120.733 371.37C119.597 371.497 117.701 371.526 116.406 370.5ZM117.823 361.377C117.823 361.306 117.84 361.237 117.872 361.175C117.905 361.112 117.952 361.059 118.01 361.019C118.068 360.979 118.135 360.953 118.204 360.945C118.274 360.936 118.345 360.945 118.411 360.97C118.495 361 118.567 361.056 118.618 361.129C118.669 361.202 118.695 361.289 118.694 361.378C118.694 361.436 118.683 361.493 118.661 361.546C118.639 361.599 118.607 361.647 118.566 361.688C118.525 361.728 118.476 361.76 118.423 361.782C118.37 361.803 118.313 361.814 118.255 361.813C118.198 361.813 118.141 361.802 118.089 361.78C118.036 361.758 117.988 361.726 117.948 361.685C117.908 361.645 117.876 361.597 117.855 361.544C117.834 361.491 117.822 361.434 117.823 361.377ZM122.229 363.638C121.946 363.753 121.664 363.852 121.393 363.864C120.986 363.879 120.586 363.752 120.263 363.505C119.874 363.179 119.597 362.997 119.481 362.431C119.44 362.154 119.448 361.872 119.503 361.598C119.602 361.135 119.492 360.837 119.165 360.568C118.9 360.347 118.561 360.286 118.19 360.286C118.063 360.279 117.939 360.241 117.83 360.175C117.674 360.099 117.547 359.906 117.669 359.668C117.708 359.592 117.895 359.405 117.941 359.371C118.445 359.085 119.027 359.178 119.564 359.393C120.063 359.597 120.44 359.971 120.982 360.501C121.536 361.14 121.637 361.317 121.953 361.796C122.202 362.172 122.429 362.557 122.583 362.997C122.678 363.274 122.556 363.499 122.229 363.638Z" fill="#5C5C5C"/>
</g>
</g>
<defs>
<clipPath id="clip0_191_27">
<rect width="650" height="400" fill="white"/>
</clipPath>
<clipPath id="clip1_191_27">
<rect width="34" height="34" fill="white" transform="translate(472 106)"/>
</clipPath>
<clipPath id="clip2_191_27">
<rect width="34" height="34" fill="white" transform="translate(94 30)"/>
</clipPath>
<clipPath id="clip3_191_27">
<rect width="34" height="34" fill="white" transform="translate(536 321)"/>
</clipPath>
<clipPath id="clip4_191_27">
<rect width="34" height="34" fill="white" transform="translate(100 345)"/>
</clipPath>
</defs>
</svg>
