<svg width="690" height="690" viewBox="0 0 690 690" fill="none" xmlns="http://www.w3.org/2000/svg">
<path d="M345 239.038C403.266 239.038 450.5 286.272 450.5 344.538C450.5 402.804 403.266 450.038 345 450.038C286.734 450.038 239.5 402.804 239.5 344.538C239.5 286.272 286.734 239.038 345 239.038Z" stroke="#333333"/>
<circle cx="345" cy="345" r="184.5" stroke="#333333"/>
<circle cx="345" cy="345" r="264.5" stroke="#333333"/>
<circle cx="345" cy="345" r="344.5" stroke="#333333"/>
<rect x="322.905" y="352.726" width="14.9524" height="14.9524" fill="white"/>
<rect x="337.857" y="337.773" width="14.9524" height="14.9524" fill="white"/>
<rect x="352.81" y="322.821" width="14.9524" height="14.9524" fill="white"/>
<rect x="352.81" y="352.726" width="14.9524" height="14.9524" fill="white"/>
<circle cx="320" cy="246" r="31.5" fill="#1C1C1C" stroke="#333333"/>
<path d="M307.856 233.817H312.714V238.673H307.856V233.817ZM327.285 233.817H332.144V238.673H327.285V233.817Z" fill="#5C5C5C"/>
<path d="M307.856 238.673H317.571V243.531H307.858L307.856 238.673ZM322.428 238.673H332.142V243.531H322.428V238.673Z" fill="#5C5C5C"/>
<path d="M307.856 243.532H332.144V248.389H307.856V243.532Z" fill="#5C5C5C"/>
<path d="M307.856 248.389H312.714V253.245H307.856V248.389ZM317.572 248.389H322.43V253.245H317.572V248.389ZM327.285 248.389H332.144V253.245H327.285V248.389Z" fill="#5C5C5C"/>
<path d="M303 253.245H317.572V258.102H303V253.245ZM322.428 253.245H337V258.102H322.428V253.245Z" fill="#5C5C5C"/>
<circle cx="390.084" cy="435" r="31.5" fill="#262626" stroke="#5C5C5C"/>
<circle cx="162" cy="371" r="31.5" fill="#1C1C1C" stroke="#333333"/>
<circle cx="125" cy="197" r="31.5" fill="#262626" stroke="#5C5C5C"/>
<circle cx="518" cy="278" r="31.5" fill="#262626" stroke="#5C5C5C"/>
<g clip-path="url(#clip0_210_1493)">
<path d="M532.566 274.913C532.947 273.768 533.078 272.556 532.952 271.356C532.826 270.156 532.446 268.997 531.836 267.956C530.932 266.383 529.552 265.137 527.894 264.399C526.237 263.661 524.388 263.468 522.614 263.848C521.606 262.727 520.321 261.89 518.887 261.423C517.454 260.956 515.923 260.874 514.447 261.186C512.972 261.497 511.605 262.192 510.483 263.199C509.362 264.206 508.525 265.491 508.056 266.924C506.874 267.167 505.758 267.658 504.781 268.367C503.805 269.075 502.99 269.984 502.393 271.033C501.479 272.603 501.089 274.424 501.278 276.231C501.467 278.038 502.226 279.739 503.445 281.086C503.064 282.23 502.931 283.443 503.056 284.643C503.181 285.842 503.56 287.002 504.169 288.043C505.074 289.617 506.456 290.863 508.114 291.601C509.773 292.339 511.623 292.532 513.398 292.151C514.199 293.053 515.183 293.774 516.284 294.265C517.386 294.756 518.579 295.007 519.785 295C521.604 295.002 523.376 294.425 524.845 293.354C526.315 292.284 527.407 290.773 527.962 289.042C529.144 288.799 530.26 288.307 531.237 287.598C532.214 286.89 533.028 285.981 533.625 284.933C534.528 283.365 534.912 281.551 534.722 279.751C534.532 277.952 533.777 276.258 532.566 274.913ZM519.785 292.775C518.296 292.777 516.853 292.255 515.71 291.3L515.911 291.186L522.681 287.279C522.849 287.18 522.989 287.039 523.087 286.87C523.184 286.701 523.236 286.509 523.237 286.314V276.77L526.099 278.425C526.113 278.432 526.125 278.443 526.134 278.456C526.144 278.468 526.15 278.483 526.153 278.499V286.408C526.149 288.095 525.477 289.713 524.284 290.906C523.09 292.099 521.473 292.771 519.785 292.775ZM506.099 286.93C505.352 285.641 505.084 284.129 505.342 282.661L505.543 282.782L512.319 286.689C512.487 286.787 512.678 286.839 512.872 286.839C513.066 286.839 513.257 286.787 513.425 286.689L521.702 281.917V285.221C521.701 285.238 521.697 285.255 521.689 285.27C521.681 285.285 521.669 285.298 521.655 285.308L514.799 289.263C513.336 290.106 511.598 290.334 509.967 289.896C508.336 289.459 506.945 288.392 506.099 286.93ZM504.317 272.185C505.069 270.887 506.256 269.897 507.668 269.391V277.433C507.665 277.628 507.715 277.819 507.811 277.988C507.908 278.156 508.048 278.296 508.217 278.392L516.454 283.144L513.593 284.799C513.577 284.807 513.56 284.811 513.542 284.811C513.525 284.811 513.507 284.807 513.492 284.799L506.649 280.851C505.189 280.005 504.123 278.614 503.686 276.983C503.249 275.353 503.476 273.616 504.317 272.152V272.185ZM527.828 277.648L519.564 272.849L522.419 271.2C522.435 271.192 522.452 271.187 522.47 271.187C522.487 271.187 522.504 271.192 522.52 271.2L529.363 275.154C530.409 275.758 531.262 276.647 531.822 277.717C532.382 278.788 532.626 279.995 532.526 281.199C532.425 282.403 531.984 283.553 531.255 284.516C530.525 285.478 529.536 286.213 528.404 286.635V278.593C528.399 278.399 528.342 278.209 528.241 278.044C528.14 277.878 527.998 277.742 527.828 277.648ZM530.677 273.365L530.475 273.244L523.713 269.303C523.544 269.204 523.352 269.152 523.157 269.152C522.961 269.152 522.769 269.204 522.6 269.303L514.33 274.075V270.771C514.328 270.754 514.331 270.738 514.338 270.722C514.345 270.707 514.356 270.694 514.37 270.684L521.213 266.736C522.262 266.132 523.461 265.839 524.67 265.892C525.879 265.944 527.049 266.339 528.041 267.032C529.034 267.724 529.809 268.685 530.276 269.802C530.742 270.919 530.882 272.145 530.677 273.338L530.677 273.365ZM512.768 279.223L509.906 277.574C509.892 277.565 509.88 277.554 509.87 277.54C509.861 277.526 509.855 277.51 509.853 277.494V269.605C509.854 268.395 510.2 267.21 510.85 266.189C511.5 265.169 512.427 264.354 513.523 263.841C514.619 263.328 515.839 263.137 517.039 263.292C518.239 263.446 519.371 263.939 520.301 264.712L520.1 264.826L513.331 268.734C513.163 268.832 513.023 268.973 512.925 269.143C512.828 269.312 512.776 269.503 512.775 269.699L512.768 279.223ZM514.323 275.872L518.009 273.747L521.702 275.872V280.121L518.023 282.245L514.33 280.121L514.323 275.872Z" fill="white"/>
</g>
<circle cx="149" cy="521" r="31.5" fill="#1C1C1C" stroke="#333333"/>
<circle cx="562" cy="499" r="31.5" fill="#1C1C1C" stroke="#333333"/>
<g clip-path="url(#clip1_210_1493)">
<path d="M392.618 423.57L401.732 446.43H406.73L397.616 423.57H392.618Z" fill="white"/>
<path d="M382.045 437.384L385.164 429.35L388.282 437.384H382.045ZM382.551 423.57L373.438 446.43H378.534L380.397 441.629H389.931L391.794 446.43H396.889L387.777 423.57H382.551Z" fill="white"/>
</g>
<g clip-path="url(#clip2_210_1493)">
<path d="M140.557 196.971C132.123 196.638 125.361 189.877 125.029 181.443L125 180.708L124.971 181.443C124.638 189.877 117.877 196.638 109.443 196.971L108.708 197L109.443 197.029C117.877 197.362 124.638 204.123 124.971 212.557L125 213.292L125.029 212.557C125.362 204.123 132.123 197.362 140.557 197.029L141.291 197L140.557 196.971Z" fill="white"/>
</g>
<path fill-rule="evenodd" clip-rule="evenodd" d="M156.199 355.544C156.505 355.665 156.781 355.863 157.032 356.125C157.45 356.559 157.802 357.179 158.071 357.914C158.342 358.654 158.518 359.473 158.584 360.294C159.476 359.79 160.466 359.483 161.487 359.393L161.559 359.388C162.792 359.289 164.01 359.511 165.073 360.059C165.216 360.134 165.356 360.215 165.493 360.3C165.564 359.494 165.737 358.694 166.003 357.971C166.273 357.234 166.625 356.615 167.042 356.18C167.275 355.929 167.559 355.73 167.876 355.6C168.24 355.458 168.627 355.432 169.004 355.54C169.572 355.702 170.059 356.061 170.443 356.584C170.795 357.062 171.058 357.674 171.238 358.407C171.564 359.731 171.62 361.472 171.401 363.571L171.476 363.628L171.513 363.655C172.585 364.471 173.332 365.634 173.727 366.984C174.343 369.09 174.033 371.453 172.971 372.775L172.945 372.805L172.948 372.809C173.539 373.889 173.897 375.029 173.974 376.209L173.976 376.252C174.067 377.76 173.693 379.279 172.823 380.771L172.813 380.785L172.827 380.819C173.496 382.458 173.706 384.109 173.448 385.758L173.439 385.813C173.4 386.054 173.266 386.269 173.067 386.411C172.869 386.554 172.622 386.611 172.381 386.572C172.262 386.554 172.147 386.512 172.044 386.449C171.941 386.386 171.852 386.303 171.781 386.205C171.71 386.108 171.658 385.997 171.63 385.88C171.602 385.762 171.597 385.64 171.616 385.521C171.853 384.058 171.63 382.59 170.936 381.097C170.871 380.958 170.843 380.805 170.853 380.652C170.863 380.5 170.911 380.352 170.993 380.223L170.999 380.214C171.854 378.905 172.208 377.622 172.132 376.361C172.067 375.257 171.671 374.173 170.999 373.141C170.868 372.94 170.821 372.696 170.869 372.461C170.916 372.226 171.055 372.019 171.254 371.886L171.266 371.877C171.611 371.652 171.928 371.077 172.088 370.29C172.265 369.361 172.218 368.402 171.953 367.494C171.663 366.502 171.132 365.675 170.388 365.11C169.545 364.466 168.429 364.156 167.016 364.245C166.832 364.257 166.648 364.214 166.488 364.12C166.328 364.026 166.201 363.887 166.121 363.72C165.676 362.778 165.027 362.103 164.218 361.686C163.442 361.298 162.572 361.135 161.708 361.215C159.944 361.355 158.389 362.35 157.926 363.604C157.86 363.78 157.742 363.932 157.588 364.04C157.433 364.148 157.25 364.205 157.061 364.206C155.55 364.209 154.38 364.563 153.524 365.202C152.784 365.754 152.28 366.526 152.014 367.451C151.773 368.322 151.74 369.237 151.917 370.123C152.076 370.914 152.386 371.568 152.742 371.921L152.753 371.931C153.054 372.224 153.117 372.682 152.908 373.043C152.398 373.924 152.017 375.237 151.954 376.5C151.883 377.942 152.218 379.194 152.973 380.092L152.996 380.119C153.11 380.252 153.183 380.415 153.207 380.588C153.231 380.762 153.204 380.938 153.13 381.097C152.314 382.848 152.063 384.287 152.334 385.42C152.383 385.656 152.337 385.901 152.208 386.104C152.078 386.307 151.875 386.451 151.641 386.506C151.406 386.561 151.16 386.523 150.954 386.399C150.747 386.275 150.598 386.075 150.536 385.843C150.192 384.4 150.426 382.749 151.206 380.887L151.226 380.837L151.215 380.82C150.831 380.254 150.545 379.627 150.368 378.966L150.361 378.939C150.146 378.114 150.061 377.261 150.11 376.41C150.172 375.121 150.504 373.801 150.991 372.741L151.008 372.704L151.005 372.702C150.59 372.109 150.283 371.351 150.113 370.513L150.106 370.479C149.871 369.309 149.916 368.1 150.237 366.951C150.608 365.655 151.338 364.542 152.413 363.737C152.498 363.673 152.588 363.609 152.677 363.55C152.452 361.435 152.508 359.682 152.835 358.351C153.015 357.617 153.28 357.005 153.632 356.527C154.014 356.006 154.501 355.646 155.07 355.483C155.446 355.376 155.835 355.4 156.199 355.543V355.544ZM162.03 368.422C163.356 368.422 164.58 368.865 165.495 369.633C166.387 370.38 166.919 371.383 166.919 372.381C166.919 373.639 166.343 374.62 165.313 375.246C164.435 375.777 163.258 376.035 161.909 376.035C160.48 376.035 159.259 375.668 158.377 374.995C157.503 374.329 157.013 373.394 157.013 372.381C157.013 371.38 157.577 370.374 158.509 369.625C159.456 368.864 160.705 368.422 162.03 368.422ZM162.03 369.691C161.047 369.683 160.09 370.007 159.315 370.612C158.662 371.136 158.292 371.795 158.292 372.383C158.292 372.989 158.59 373.557 159.157 373.989C159.801 374.481 160.749 374.766 161.909 374.766C163.041 374.766 163.996 374.557 164.646 374.162C165.302 373.765 165.638 373.19 165.638 372.381C165.638 371.782 165.289 371.121 164.67 370.602C163.985 370.028 163.055 369.691 162.03 369.691ZM162.967 371.405L162.973 371.411C163.143 371.625 163.108 371.935 162.894 372.105L162.48 372.431V373.063C162.479 373.203 162.423 373.338 162.323 373.437C162.223 373.536 162.088 373.592 161.947 373.591C161.807 373.592 161.672 373.536 161.572 373.437C161.472 373.338 161.416 373.203 161.415 373.063V372.411L161.031 372.102C160.98 372.062 160.938 372.012 160.907 371.955C160.876 371.898 160.856 371.835 160.849 371.771C160.843 371.706 160.849 371.641 160.867 371.579C160.886 371.516 160.916 371.458 160.957 371.408C161.041 371.306 161.161 371.242 161.292 371.228C161.423 371.215 161.554 371.253 161.657 371.336L161.962 371.58L162.273 371.333C162.376 371.252 162.505 371.215 162.635 371.228C162.765 371.242 162.884 371.305 162.967 371.405ZM155.827 368.687C156.505 368.687 157.056 369.239 157.056 369.921C157.056 370.247 156.927 370.561 156.696 370.792C156.466 371.023 156.153 371.154 155.826 371.155C155.5 371.153 155.188 371.023 154.957 370.792C154.727 370.561 154.598 370.248 154.598 369.922C154.597 369.595 154.726 369.282 154.956 369.05C155.187 368.819 155.501 368.688 155.827 368.687ZM168.161 368.687C168.841 368.687 169.391 369.239 169.391 369.921C169.391 370.247 169.262 370.561 169.031 370.792C168.801 371.023 168.488 371.154 168.161 371.155C167.835 371.153 167.522 371.023 167.292 370.792C167.062 370.561 166.933 370.248 166.933 369.922C166.932 369.595 167.061 369.282 167.291 369.05C167.522 368.819 167.834 368.688 168.161 368.687ZM155.54 357.258L155.536 357.261C155.372 357.333 155.231 357.45 155.132 357.598L155.125 357.607C154.929 357.875 154.759 358.269 154.632 358.786C154.391 359.766 154.326 361.096 154.456 362.727C155.065 362.545 155.73 362.432 156.445 362.391L156.459 362.39L156.486 362.341C156.551 362.225 156.621 362.113 156.696 362.003C156.87 360.911 156.727 359.606 156.337 358.541C156.148 358.025 155.917 357.62 155.696 357.389C155.65 357.341 155.599 357.298 155.544 357.261L155.54 357.258ZM168.536 357.315L168.534 357.317C168.478 357.353 168.428 357.396 168.382 357.444C168.161 357.675 167.929 358.082 167.74 358.597C167.329 359.722 167.192 361.113 167.414 362.241L167.497 362.378L167.508 362.398H167.55C168.253 362.398 168.953 362.499 169.627 362.698C169.749 361.106 169.681 359.804 169.446 358.842C169.318 358.325 169.148 357.931 168.951 357.664L168.946 357.655C168.847 357.506 168.706 357.388 168.542 357.317H168.536V357.315Z" fill="#5C5C5C"/>
<g clip-path="url(#clip3_210_1493)">
<path fill-rule="evenodd" clip-rule="evenodd" d="M558.133 503.661L569.435 495.307C569.989 494.896 570.78 495.056 571.045 495.692C572.434 499.048 571.813 503.08 569.048 505.848C566.284 508.616 562.436 509.223 558.92 507.84L555.08 509.621C560.589 513.391 567.278 512.458 571.459 508.271C574.775 504.95 575.803 500.424 574.842 496.342L574.851 496.352C573.458 490.357 575.193 487.96 578.746 483.06C578.831 482.944 578.916 482.827 579 482.708L574.324 487.391V487.376L558.128 503.664M555.799 505.691C551.844 501.909 552.527 496.056 555.9 492.68C558.395 490.183 562.483 489.163 566.052 490.662L569.884 488.891C569.087 488.305 568.216 487.828 567.293 487.474C564.972 486.524 562.422 486.282 559.964 486.777C557.506 487.273 555.249 488.484 553.477 490.259C549.889 493.852 548.76 499.377 550.698 504.092C552.146 507.615 549.773 510.107 547.383 512.623C546.534 513.515 545.684 514.406 545 515.35L555.795 505.695" fill="#5C5C5C"/>
</g>
<g clip-path="url(#clip4_210_1493)">
<path d="M167.643 512.099C167.283 511.923 167.127 512.259 166.918 512.431C166.845 512.486 166.784 512.558 166.724 512.623C166.197 513.186 165.582 513.554 164.778 513.51C163.604 513.445 162.601 513.813 161.714 514.711C161.526 513.604 160.9 512.943 159.948 512.518C159.449 512.297 158.945 512.078 158.595 511.598C158.351 511.256 158.284 510.875 158.163 510.501C158.085 510.274 158.007 510.044 157.748 510.005C157.464 509.961 157.354 510.198 157.243 510.396C156.8 511.207 156.628 512.099 156.645 513.003C156.684 515.037 157.542 516.658 159.249 517.81C159.443 517.941 159.493 518.075 159.432 518.267C159.316 518.664 159.177 519.049 159.055 519.447C158.977 519.701 158.861 519.755 158.589 519.646C157.67 519.251 156.835 518.683 156.13 517.974C154.916 516.801 153.819 515.506 152.451 514.492C152.134 514.258 151.808 514.035 151.475 513.825C150.079 512.469 151.659 511.355 152.024 511.224C152.407 511.085 152.156 510.612 150.921 510.617C149.685 510.623 148.555 511.035 147.114 511.586C146.9 511.668 146.68 511.733 146.455 511.78C145.109 511.527 143.732 511.478 142.371 511.636C139.701 511.933 137.569 513.197 136 515.352C134.116 517.941 133.673 520.885 134.215 523.954C134.786 527.189 136.438 529.868 138.975 531.962C141.607 534.134 144.638 535.198 148.096 534.994C150.195 534.873 152.534 534.592 155.171 532.359C155.836 532.69 156.533 532.822 157.692 532.921C158.585 533.005 159.443 532.879 160.108 532.74C161.149 532.519 161.077 531.554 160.701 531.379C157.648 529.956 158.318 530.536 157.708 530.067C159.261 528.231 161.598 526.324 162.513 520.146C162.584 519.654 162.523 519.345 162.513 518.949C162.508 518.708 162.563 518.613 162.839 518.586C163.605 518.507 164.349 518.278 165.028 517.913C167.005 516.832 167.804 515.059 167.993 512.931C168.021 512.605 167.987 512.271 167.643 512.099ZM150.406 531.25C147.447 528.923 146.012 528.157 145.42 528.19C144.864 528.224 144.965 528.857 145.087 529.271C145.214 529.679 145.38 529.959 145.612 530.317C145.774 530.554 145.884 530.907 145.452 531.172C144.499 531.761 142.843 530.973 142.765 530.935C140.837 529.799 139.223 528.3 138.088 526.25C136.992 524.277 136.354 522.16 136.25 519.901C136.221 519.354 136.381 519.161 136.925 519.062C137.64 518.925 138.371 518.907 139.091 519.007C142.112 519.449 144.682 520.799 146.838 522.937C148.067 524.155 148.998 525.61 149.957 527.032C150.977 528.542 152.074 529.982 153.471 531.16C153.964 531.574 154.356 531.889 154.733 532.119C153.597 532.247 151.701 532.275 150.406 531.25ZM151.823 522.126C151.823 522.056 151.84 521.987 151.872 521.924C151.905 521.862 151.952 521.808 152.01 521.768C152.068 521.728 152.135 521.703 152.204 521.694C152.274 521.686 152.345 521.695 152.411 521.72C152.495 521.75 152.567 521.805 152.618 521.878C152.669 521.952 152.695 522.039 152.694 522.128C152.694 522.185 152.683 522.242 152.661 522.295C152.639 522.349 152.607 522.397 152.566 522.437C152.525 522.478 152.476 522.51 152.423 522.531C152.37 522.553 152.313 522.563 152.255 522.563C152.198 522.563 152.141 522.552 152.089 522.53C152.036 522.508 151.988 522.476 151.948 522.435C151.908 522.394 151.876 522.346 151.855 522.293C151.834 522.24 151.822 522.183 151.823 522.126ZM156.229 524.387C155.946 524.502 155.664 524.601 155.393 524.614C154.986 524.628 154.586 524.501 154.263 524.254C153.874 523.928 153.597 523.747 153.481 523.18C153.44 522.903 153.448 522.622 153.503 522.347C153.602 521.884 153.492 521.587 153.165 521.317C152.9 521.096 152.561 521.035 152.19 521.035C152.063 521.028 151.939 520.99 151.83 520.925C151.674 520.848 151.547 520.656 151.669 520.418C151.708 520.341 151.895 520.154 151.941 520.12C152.445 519.834 153.027 519.928 153.564 520.143C154.063 520.347 154.44 520.721 154.982 521.251C155.536 521.89 155.637 522.067 155.953 522.546C156.202 522.921 156.429 523.306 156.583 523.747C156.678 524.023 156.556 524.248 156.229 524.387Z" fill="#5C5C5C"/>
</g>
<defs>
<clipPath id="clip0_210_1493">
<rect width="34" height="34" fill="white" transform="translate(501 261)"/>
</clipPath>
<clipPath id="clip1_210_1493">
<rect width="34" height="34" fill="white" transform="translate(373.084 418)"/>
</clipPath>
<clipPath id="clip2_210_1493">
<rect width="34" height="34" fill="white" transform="translate(108 180)"/>
</clipPath>
<clipPath id="clip3_210_1493">
<rect width="34" height="34" fill="white" transform="translate(545 482)"/>
</clipPath>
<clipPath id="clip4_210_1493">
<rect width="34" height="34" fill="white" transform="translate(134 506)"/>
</clipPath>
</defs>
</svg>
