<svg width="1300" height="232" viewBox="0 0 1300 232" fill="none" xmlns="http://www.w3.org/2000/svg">
<path d="M-7.64728e-05 6.27023V0.000231385H37.6199V6.27023H-7.64728e-05ZM137.94 6.27023V0.000231385H163.02V6.27023H137.94ZM-7.64728e-05 18.8102V12.5402H50.1599V18.8102H-7.64728e-05ZM137.94 18.8102V12.5402H163.02V18.8102H137.94ZM137.94 31.3502V25.0802H163.02V31.3502H137.94ZM-7.64728e-05 31.3502V25.0802H50.1599V31.3502H-7.64728e-05ZM137.94 43.8902V37.6202H163.02V43.8902H137.94ZM37.6199 43.8902V37.6202H62.6999V43.8902H37.6199ZM-7.64728e-05 43.8902V37.6202H25.0799V43.8902H-7.64728e-05ZM37.6199 56.4302V50.1602H62.6999V56.4302H37.6199ZM137.94 56.4302V50.1602H163.02V56.4302H137.94ZM-7.64728e-05 56.4302V50.1602H25.0799V56.4302H-7.64728e-05ZM137.94 68.9702V62.7002H163.02V68.9702H137.94ZM50.1599 68.9702V62.7002H75.2399V68.9702H50.1599ZM-7.64728e-05 68.9702V62.7002H25.0799V68.9702H-7.64728e-05ZM50.1599 81.5102V75.2402H75.2399V81.5102H50.1599ZM137.94 81.5102V75.2402H163.02V81.5102H137.94ZM-7.64728e-05 81.5102V75.2402H25.0799V81.5102H-7.64728e-05ZM-7.64728e-05 94.0502V87.7802H25.0799V94.0502H-7.64728e-05ZM137.94 94.0502V87.7802H163.02V94.0502H137.94ZM62.6999 94.0502V87.7802H87.7799V94.0502H62.6999ZM137.94 106.59V100.32H163.02V106.59H137.94ZM-7.64728e-05 106.59V100.32H25.0799V106.59H-7.64728e-05ZM62.6999 106.59V100.32H87.7799V106.59H62.6999ZM75.2399 119.13V112.86H100.32V119.13H75.2399ZM-7.64728e-05 119.13V112.86H25.0799V119.13H-7.64728e-05ZM137.94 119.13V112.86H163.02V119.13H137.94ZM137.94 131.67V125.4H163.02V131.67H137.94ZM-7.64728e-05 131.67V125.4H25.0799V131.67H-7.64728e-05ZM75.2399 131.67V125.4H100.32V131.67H75.2399ZM-7.64728e-05 144.21V137.94H25.0799V144.21H-7.64728e-05ZM137.94 144.21V137.94H163.02V144.21H137.94ZM87.7799 144.21V137.94H112.86V144.21H87.7799ZM-7.64728e-05 156.75V150.48H25.0799V156.75H-7.64728e-05ZM137.94 156.75V150.48H163.02V156.75H137.94ZM87.7799 156.75V150.48H112.86V156.75H87.7799ZM137.94 169.29V163.02H163.02V169.29H137.94ZM100.32 169.29V163.02H125.4V169.29H100.32ZM-7.64728e-05 169.29V163.02H25.0799V169.29H-7.64728e-05ZM100.32 181.83V175.56H125.4V181.83H100.32ZM137.94 181.83V175.56H163.02V181.83H137.94ZM-7.64728e-05 181.83V175.56H25.0799V181.83H-7.64728e-05ZM125.4 194.37V188.1H163.02V194.37H125.4ZM-7.64728e-05 194.37V188.1H25.0799V194.37H-7.64728e-05ZM125.4 206.91V200.64H163.02V206.91H125.4ZM-7.64728e-05 206.91V200.64H25.0799V206.91H-7.64728e-05ZM137.94 219.45V213.18H163.02V219.45H137.94ZM-7.64728e-05 219.45V213.18H25.0799V219.45H-7.64728e-05ZM137.94 231.99V225.72H163.02V231.99H137.94ZM-7.64728e-05 231.99V225.72H25.0799V231.99H-7.64728e-05ZM224.89 6.27023V0.000231385H375.37V6.27023H224.89ZM224.89 18.8102V12.5402H375.37V18.8102H224.89ZM224.89 31.3502V25.0802H249.97V31.3502H224.89ZM224.89 43.8902V37.6202H249.97V43.8902H224.89ZM224.89 56.4302V50.1602H249.97V56.4302H224.89ZM224.89 68.9702V62.7002H249.97V68.9702H224.89ZM224.89 81.5102V75.2402H249.97V81.5102H224.89ZM224.89 94.0502V87.7802H249.97V94.0502H224.89ZM224.89 106.59V100.32H375.37V106.59H224.89ZM224.89 119.13V112.86H375.37V119.13H224.89ZM224.89 131.67V125.4H249.97V131.67H224.89ZM224.89 144.21V137.94H249.97V144.21H224.89ZM224.89 156.75V150.48H249.97V156.75H224.89ZM224.89 169.29V163.02H249.97V169.29H224.89ZM224.89 181.83V175.56H249.97V181.83H224.89ZM224.89 194.37V188.1H249.97V194.37H224.89ZM224.89 206.91V200.64H249.97V206.91H224.89ZM224.89 219.45V213.18H375.37V219.45H224.89ZM224.89 231.99V225.72H375.37V231.99H224.89ZM437.211 6.27023V0.000231385H462.291V6.27023H437.211ZM587.691 6.27023V0.000231385H612.771V6.27023H587.691ZM437.211 18.8102V12.5402H462.291V18.8102H437.211ZM587.691 18.8102V12.5402H612.771V18.8102H587.691ZM437.211 31.3502V25.0802H462.291V31.3502H437.211ZM587.691 31.3502V25.0802H612.771V31.3502H587.691ZM437.211 43.8902V37.6202H462.291V43.8902H437.211ZM587.691 43.8902V37.6202H612.771V43.8902H587.691ZM437.211 56.4302V50.1602H462.291V56.4302H437.211ZM587.691 56.4302V50.1602H612.771V56.4302H587.691ZM437.211 68.9702V62.7002H462.291V68.9702H437.211ZM587.691 68.9702V62.7002H612.771V68.9702H587.691ZM437.211 81.5102V75.2402H462.291V81.5102H437.211ZM587.691 81.5102V75.2402H612.771V81.5102H587.691ZM437.211 94.0502V87.7802H462.291V94.0502H437.211ZM587.691 94.0502V87.7802H612.771V94.0502H587.691ZM437.211 106.59V100.32H462.291V106.59H437.211ZM587.691 106.59V100.32H612.771V106.59H587.691ZM437.211 119.13V112.86H462.291V119.13H437.211ZM587.691 119.13V112.86H612.771V119.13H587.691ZM587.691 131.67V125.4H612.771V131.67H587.691ZM437.211 131.67V125.4H462.291V131.67H437.211ZM587.691 144.21V137.94H612.771V144.21H587.691ZM437.211 144.21V137.94H462.291V144.21H437.211ZM437.211 156.75V150.48H462.291V156.75H437.211ZM587.691 156.75V150.48H612.771V156.75H587.691ZM587.691 169.29V163.02H612.771V169.29H587.691ZM437.211 169.29V163.02H462.291V169.29H437.211ZM587.691 181.83V175.56H612.771V181.83H587.691ZM437.211 181.83V175.56H462.291V181.83H437.211ZM449.751 194.37V188.1H474.831V194.37H449.751ZM575.151 194.37V188.1H600.231V194.37H575.151ZM449.751 206.91V200.64H487.371V206.91H449.751ZM562.611 206.91V200.64H600.231V206.91H562.611ZM462.291 219.45V213.18H587.691V219.45H462.291ZM487.371 231.99V225.72H562.611V231.99H487.371ZM674.347 6.27023V0.000231385H787.207V6.27023H674.347ZM674.347 18.8102V12.5402H812.287V18.8102H674.347ZM787.207 31.3502V25.0802H824.827V31.3502H787.207ZM674.347 31.3502V25.0802H699.427V31.3502H674.347ZM799.747 43.8902V37.6202H837.367V43.8902H799.747ZM674.347 43.8902V37.6202H699.427V43.8902H674.347ZM674.347 56.4302V50.1602H699.427V56.4302H674.347ZM812.287 56.4302V50.1602H837.367V56.4302H812.287ZM812.287 68.9702V62.7002H837.367V68.9702H812.287ZM674.347 68.9702V62.7002H699.427V68.9702H674.347ZM812.287 81.5102V75.2402H837.367V81.5102H812.287ZM674.347 81.5102V75.2402H699.427V81.5102H674.347ZM674.347 94.0502V87.7802H699.427V94.0502H674.347ZM799.747 94.0502V87.7802H824.827V94.0502H799.747ZM787.207 106.59V100.32H812.287V106.59H787.207ZM674.347 106.59V100.32H699.427V106.59H674.347ZM674.347 119.13V112.86H787.207V119.13H674.347ZM674.347 131.67V125.4H812.287V131.67H674.347ZM787.207 144.21V137.94H824.827V144.21H787.207ZM674.347 144.21V137.94H699.427V144.21H674.347ZM799.747 156.75V150.48H837.367V156.75H799.747ZM674.347 156.75V150.48H699.427V156.75H674.347ZM674.347 169.29V163.02H699.427V169.29H674.347ZM812.287 169.29V163.02H837.367V169.29H812.287ZM674.347 181.83V175.56H699.427V181.83H674.347ZM812.287 181.83V175.56H837.367V181.83H812.287ZM674.347 194.37V188.1H699.427V194.37H674.347ZM812.287 194.37V188.1H837.367V194.37H812.287ZM812.287 206.91V200.64H837.367V206.91H812.287ZM674.347 206.91V200.64H699.427V206.91H674.347ZM674.347 219.45V213.18H699.427V219.45H674.347ZM812.287 219.45V213.18H837.367V219.45H812.287ZM674.347 231.99V225.72H699.427V231.99H674.347ZM812.287 231.99V225.72H837.367V231.99H812.287ZM949.397 6.27023V0.000231385H1024.64V6.27023H949.397ZM924.317 18.8102V12.5402H1049.72V18.8102H924.317ZM911.777 31.3502V25.0802H949.397V31.3502H911.777ZM1024.64 31.3502V25.0802H1062.26V31.3502H1024.64ZM1037.18 43.8902V37.6202H1062.26V43.8902H1037.18ZM911.777 43.8902V37.6202H936.857V43.8902H911.777ZM899.237 56.4302V50.1602H924.317V56.4302H899.237ZM1049.72 56.4302V50.1602H1074.8V56.4302H1049.72ZM899.237 68.9702V62.7002H924.317V68.9702H899.237ZM1049.72 68.9702V62.7002H1074.8V68.9702H1049.72ZM1062.26 81.5102V75.2402H1087.34V81.5102H1062.26ZM886.697 81.5102V75.2402H911.777V81.5102H886.697ZM1062.26 94.0502V87.7802H1087.34V94.0502H1062.26ZM886.697 94.0502V87.7802H911.777V94.0502H886.697ZM1062.26 106.59V100.32H1087.34V106.59H1062.26ZM886.697 106.59V100.32H911.777V106.59H886.697ZM1062.26 119.13V112.86H1087.34V119.13H1062.26ZM886.697 119.13V112.86H911.777V119.13H886.697ZM886.697 131.67V125.4H911.777V131.67H886.697ZM1062.26 131.67V125.4H1087.34V131.67H1062.26ZM1062.26 144.21V137.94H1087.34V144.21H1062.26ZM886.697 144.21V137.94H911.777V144.21H886.697ZM886.697 156.75V150.48H911.777V156.75H886.697ZM1062.26 156.75V150.48H1087.34V156.75H1062.26ZM1049.72 169.29V163.02H1074.8V169.29H1049.72ZM899.237 169.29V163.02H924.317V169.29H899.237ZM899.237 181.83V175.56H924.317V181.83H899.237ZM1049.72 181.83V175.56H1074.8V181.83H1049.72ZM1037.18 194.37V188.1H1062.26V194.37H1037.18ZM911.777 194.37V188.1H936.857V194.37H911.777ZM1024.64 206.91V200.64H1062.26V206.91H1024.64ZM911.777 206.91V200.64H949.397V206.91H911.777ZM924.317 219.45V213.18H1049.72V219.45H924.317ZM949.397 231.99V225.72H1024.64V231.99H949.397ZM1136.37 6.27023V0.000231385H1173.99V6.27023H1136.37ZM1274.31 6.27023V0.000231385H1299.39V6.27023H1274.31ZM1136.37 18.8102V12.5402H1186.53V18.8102H1136.37ZM1274.31 18.8102V12.5402H1299.39V18.8102H1274.31ZM1274.31 31.3502V25.0802H1299.39V31.3502H1274.31ZM1136.37 31.3502V25.0802H1186.53V31.3502H1136.37ZM1274.31 43.8902V37.6202H1299.39V43.8902H1274.31ZM1173.99 43.8902V37.6202H1199.07V43.8902H1173.99ZM1136.37 43.8902V37.6202H1161.45V43.8902H1136.37ZM1173.99 56.4302V50.1602H1199.07V56.4302H1173.99ZM1274.31 56.4302V50.1602H1299.39V56.4302H1274.31ZM1136.37 56.4302V50.1602H1161.45V56.4302H1136.37ZM1274.31 68.9702V62.7002H1299.39V68.9702H1274.31ZM1186.53 68.9702V62.7002H1211.61V68.9702H1186.53ZM1136.37 68.9702V62.7002H1161.45V68.9702H1136.37ZM1186.53 81.5102V75.2402H1211.61V81.5102H1186.53ZM1274.31 81.5102V75.2402H1299.39V81.5102H1274.31ZM1136.37 81.5102V75.2402H1161.45V81.5102H1136.37ZM1136.37 94.0502V87.7802H1161.45V94.0502H1136.37ZM1274.31 94.0502V87.7802H1299.39V94.0502H1274.31ZM1199.07 94.0502V87.7802H1224.15V94.0502H1199.07ZM1274.31 106.59V100.32H1299.39V106.59H1274.31ZM1136.37 106.59V100.32H1161.45V106.59H1136.37ZM1199.07 106.59V100.32H1224.15V106.59H1199.07ZM1211.61 119.13V112.86H1236.69V119.13H1211.61ZM1136.37 119.13V112.86H1161.45V119.13H1136.37ZM1274.31 119.13V112.86H1299.39V119.13H1274.31ZM1274.31 131.67V125.4H1299.39V131.67H1274.31ZM1136.37 131.67V125.4H1161.45V131.67H1136.37ZM1211.61 131.67V125.4H1236.69V131.67H1211.61ZM1136.37 144.21V137.94H1161.45V144.21H1136.37ZM1274.31 144.21V137.94H1299.39V144.21H1274.31ZM1224.15 144.21V137.94H1249.23V144.21H1224.15ZM1136.37 156.75V150.48H1161.45V156.75H1136.37ZM1274.31 156.75V150.48H1299.39V156.75H1274.31ZM1224.15 156.75V150.48H1249.23V156.75H1224.15ZM1274.31 169.29V163.02H1299.39V169.29H1274.31ZM1236.69 169.29V163.02H1261.77V169.29H1236.69ZM1136.37 169.29V163.02H1161.45V169.29H1136.37ZM1236.69 181.83V175.56H1261.77V181.83H1236.69ZM1274.31 181.83V175.56H1299.39V181.83H1274.31ZM1136.37 181.83V175.56H1161.45V181.83H1136.37ZM1261.77 194.37V188.1H1299.39V194.37H1261.77ZM1136.37 194.37V188.1H1161.45V194.37H1136.37ZM1261.77 206.91V200.64H1299.39V206.91H1261.77ZM1136.37 206.91V200.64H1161.45V206.91H1136.37ZM1274.31 219.45V213.18H1299.39V219.45H1274.31ZM1136.37 219.45V213.18H1161.45V219.45H1136.37ZM1274.31 231.99V225.72H1299.39V231.99H1274.31ZM1136.37 231.99V225.72H1161.45V231.99H1136.37Z" fill="#7A7A7A"/>
</svg>
