<svg width="650" height="400" viewBox="0 0 650 400" fill="none" xmlns="http://www.w3.org/2000/svg">
<rect x="32.5" y="49.5" width="585" height="67" fill="#1C1C1C"/>
<rect x="32.5" y="49.5" width="585" height="67" stroke="#5C5C5C"/>
<path d="M47.724 76V66.956H44.532V65.892H51.98V66.956H48.788V76H47.724ZM52.5152 74.936V72.808H53.0472V72.276H54.1112V71.744H56.7712V71.212H57.3032V70.148H56.7712V69.616H54.1112V70.148H53.5792V70.68H52.5152V69.616H53.0472V69.084H54.1112V68.552H56.7712V69.084H57.8352V70.148H58.3672V74.936H58.8992V76H57.8352V75.468H57.3032V74.936H56.7712V74.404H57.3032V72.276H56.7712V72.808H54.1112V73.34H53.5792V74.936H56.7712V75.468H56.2392V76H53.5792V75.468H53.0472V74.936H52.5152ZM59.9675 74.936V73.872H61.0315V74.404H61.5635V74.936H64.7555V73.34H63.6915V72.808H61.5635V72.276H60.4995V71.212H59.9675V70.148H60.4995V69.084H61.0315V68.552H64.7555V69.084H65.2875V69.616H65.8195V70.68H64.7555V69.616H61.5635V70.148H61.0315V71.212H61.5635V71.744H63.6915V72.276H65.2875V72.808H65.8195V74.936H65.2875V75.468H64.7555V76H61.0315V75.468H60.4995V74.936H59.9675ZM67.4175 76V65.892H68.4815V72.276H69.0135V71.744H69.5455V71.212H70.0775V70.68H70.6095V70.148H71.1415V69.616H71.6735V69.084H72.2055V68.552H73.2695V69.616H72.7375V70.148H72.2055V70.68H71.6735V71.212H71.1415V71.744H70.6095V72.276H71.1415V72.808H71.6735V73.34H72.2055V73.872H72.7375V74.404H73.2695V76H72.2055V74.936H71.6735V74.404H71.1415V73.872H70.6095V73.34H70.0775V72.808H69.5455V73.34H69.0135V73.872H68.4815V76H67.4175ZM79.1247 71.212V69.616H78.5927V68.02H77.5287V69.616H76.9967V71.212H76.4647V71.744H79.6567V71.212H79.1247ZM74.3367 76V74.404H74.8687V72.808H75.4007V71.212H75.9327V69.616H76.4647V68.02H76.9967V66.956H77.5287V65.892H78.5927V66.956H79.1247V68.02H79.6567V69.616H80.1887V71.212H80.7207V72.808H81.2527V74.404H81.7847V76H80.7207V74.404H80.1887V72.808H75.9327V74.404H75.4007V76H74.3367ZM83.9183 74.404V73.872H83.3863V70.148H83.9183V69.616H84.4503V69.084H84.9823V68.552H87.6423V69.084H88.1743V69.616H85.5143V70.148H84.9823V70.68H84.4503V73.34H84.9823V73.872H85.5143V74.404H88.1743V74.936H87.6423V75.468H84.9823V74.936H84.4503V74.404H83.9183ZM83.3863 77.064V76H84.4503V76.532H84.9823V77.064H88.1743V76.532H88.7063V74.404H88.1743V73.34H88.7063V70.68H88.1743V69.616H88.7063V68.552H89.7703V77.064H89.2383V77.596H88.1743V78.128H84.9823V77.596H83.9183V77.064H83.3863ZM92.4358 70.68V71.744H96.6918V70.68H96.1598V70.148H95.6278V69.616H93.4998V70.148H92.9678V70.68H92.4358ZM91.9038 74.936V73.872H91.3718V70.68H91.9038V69.616H92.4358V69.084H92.9678V68.552H96.1598V69.084H96.6918V69.616H97.2238V70.68H97.7558V72.808H92.4358V73.872H92.9678V74.404H93.4998V74.936H96.1598V74.404H96.6918V73.872H97.7558V74.936H97.2238V75.468H96.1598V76H92.9678V75.468H92.4358V74.936H91.9038ZM99.355 76V68.552H100.419V69.616H100.951V70.148H100.419V76H99.355ZM104.143 76V70.148H103.611V69.616H100.951V69.084H101.483V68.552H104.143V69.084H104.675V69.616H105.207V76H104.143ZM107.871 74.936V69.616H106.807V68.552H107.871V66.956H108.935V68.552H111.063V69.616H108.935V74.936H111.063V76H108.935V75.468H108.403V74.936H107.871ZM112.658 72.276V70.68H114.254V72.276H112.658ZM112.658 76V74.404H114.254V76H112.658ZM116.377 72.276V70.68H117.973V72.276H116.377ZM116.377 76V74.404H117.973V76H116.377ZM119.563 74.936V73.872H120.627V74.404H121.159V74.936H124.351V73.34H123.287V72.808H121.159V72.276H120.095V71.212H119.563V70.148H120.095V69.084H120.627V68.552H124.351V69.084H124.883V69.616H125.415V70.68H124.351V69.616H121.159V70.148H120.627V71.212H121.159V71.744H123.287V72.276H124.883V72.808H125.415V74.936H124.883V75.468H124.351V76H120.627V75.468H120.095V74.936H119.563ZM127.545 74.936V69.616H126.481V68.552H127.545V66.956H128.609V68.552H130.737V69.616H128.609V74.936H130.737V76H128.609V75.468H128.077V74.936H127.545ZM134.992 69.616V69.084H135.524V68.552H137.12V69.616H134.992ZM132.332 76V74.936H133.396V69.616H132.332V68.552H134.46V69.616H134.992V70.148H134.46V74.936H136.056V76H132.332ZM138.715 70.68V71.744H142.971V70.68H142.439V70.148H141.907V69.616H139.779V70.148H139.247V70.68H138.715ZM138.183 74.936V73.872H137.651V70.68H138.183V69.616H138.715V69.084H139.247V68.552H142.439V69.084H142.971V69.616H143.503V70.68H144.035V72.808H138.715V73.872H139.247V74.404H139.779V74.936H142.439V74.404H142.971V73.872H144.035V74.936H143.503V75.468H142.439V76H139.247V75.468H138.715V74.936H138.183ZM145.634 74.936V72.808H146.166V72.276H147.23V71.744H149.89V71.212H150.422V70.148H149.89V69.616H147.23V70.148H146.698V70.68H145.634V69.616H146.166V69.084H147.23V68.552H149.89V69.084H150.954V70.148H151.486V74.936H152.018V76H150.954V75.468H150.422V74.936H149.89V74.404H150.422V72.276H149.89V72.808H147.23V73.34H146.698V74.936H149.89V75.468H149.358V76H146.698V75.468H146.166V74.936H145.634ZM157.343 76V70.148H156.811V69.616H155.215V69.084H155.747V68.552H157.343V69.084H157.875V69.616H158.407V76H157.343ZM161.067 76V70.148H160.535V69.616H158.407V69.084H158.939V68.552H161.067V69.084H161.599V69.616H162.131V76H161.067ZM153.619 76V68.552H154.683V69.616H155.215V70.148H154.683V76H153.619Z" fill="#EBEBEB"/>
<path d="M44.912 93.616V92.704H45.368V91.792H46.28V91.336H49.016V91.792H49.472V92.248H49.928V94.528H49.472V94.984H48.56V94.528H49.016V92.704H48.56V92.248H46.28V92.704H45.824V93.616H44.912ZM44.912 99.088V97.72H45.824V98.632H46.28V99.088H49.016V98.632H49.472V96.808H49.016V96.352H48.56V95.896H46.736V94.984H48.56V95.44H49.472V95.896H49.928V96.808H50.384V98.632H49.928V99.544H49.016V100H45.824V99.544H45.368V99.088H44.912ZM54.4928 96.808V97.72H54.0368V98.632H53.5808V99.088H55.8608V98.632H56.3168V97.72H56.7728V93.616H56.3168V94.072H55.8608V94.984H55.4048V95.896H54.9488V96.808H54.4928ZM54.0368 96.808V95.896H54.4928V94.984H54.9488V94.072H55.4048V93.16H55.8608V92.248H53.5808V92.704H53.1248V93.616H52.6688V97.72H53.5808V96.808H54.0368ZM52.6688 99.544V98.632H52.2128V97.72H51.7568V93.616H52.2128V92.704H52.6688V91.792H53.5808V91.336H55.8608V91.792H56.7728V92.704H57.2288V93.616H57.6848V97.72H57.2288V98.632H56.7728V99.544H55.8608V100H53.5808V99.544H52.6688ZM58.6005 99.088V98.176H59.5125V98.632H59.9685V99.088H62.7045V97.72H61.7925V97.264H59.9685V96.808H59.0565V95.896H58.6005V94.984H59.0565V94.072H59.5125V93.616H62.7045V94.072H63.1605V94.528H63.6165V95.44H62.7045V94.528H59.9685V94.984H59.5125V95.896H59.9685V96.352H61.7925V96.808H63.1605V97.264H63.6165V99.088H63.1605V99.544H62.7045V100H59.5125V99.544H59.0565V99.088H58.6005Z" fill="#5C5C5C"/>
<rect x="32.5" y="127.5" width="223" height="67" fill="#1C1C1C"/>
<rect x="32.5" y="127.5" width="223" height="67" stroke="#5C5C5C"/>
<path d="M47.724 154V144.956H44.532V143.892H51.98V144.956H48.788V154H47.724ZM52.5152 152.936V150.808H53.0472V150.276H54.1112V149.744H56.7712V149.212H57.3032V148.148H56.7712V147.616H54.1112V148.148H53.5792V148.68H52.5152V147.616H53.0472V147.084H54.1112V146.552H56.7712V147.084H57.8352V148.148H58.3672V152.936H58.8992V154H57.8352V153.468H57.3032V152.936H56.7712V152.404H57.3032V150.276H56.7712V150.808H54.1112V151.34H53.5792V152.936H56.7712V153.468H56.2392V154H53.5792V153.468H53.0472V152.936H52.5152ZM59.9675 152.936V151.872H61.0315V152.404H61.5635V152.936H64.7555V151.34H63.6915V150.808H61.5635V150.276H60.4995V149.212H59.9675V148.148H60.4995V147.084H61.0315V146.552H64.7555V147.084H65.2875V147.616H65.8195V148.68H64.7555V147.616H61.5635V148.148H61.0315V149.212H61.5635V149.744H63.6915V150.276H65.2875V150.808H65.8195V152.936H65.2875V153.468H64.7555V154H61.0315V153.468H60.4995V152.936H59.9675ZM67.4175 154V143.892H68.4815V150.276H69.0135V149.744H69.5455V149.212H70.0775V148.68H70.6095V148.148H71.1415V147.616H71.6735V147.084H72.2055V146.552H73.2695V147.616H72.7375V148.148H72.2055V148.68H71.6735V149.212H71.1415V149.744H70.6095V150.276H71.1415V150.808H71.6735V151.34H72.2055V151.872H72.7375V152.404H73.2695V154H72.2055V152.936H71.6735V152.404H71.1415V151.872H70.6095V151.34H70.0775V150.808H69.5455V151.34H69.0135V151.872H68.4815V154H67.4175ZM79.1247 149.212V147.616H78.5927V146.02H77.5287V147.616H76.9967V149.212H76.4647V149.744H79.6567V149.212H79.1247ZM74.3367 154V152.404H74.8687V150.808H75.4007V149.212H75.9327V147.616H76.4647V146.02H76.9967V144.956H77.5287V143.892H78.5927V144.956H79.1247V146.02H79.6567V147.616H80.1887V149.212H80.7207V150.808H81.2527V152.404H81.7847V154H80.7207V152.404H80.1887V150.808H75.9327V152.404H75.4007V154H74.3367ZM83.9183 152.404V151.872H83.3863V148.148H83.9183V147.616H84.4503V147.084H84.9823V146.552H87.6423V147.084H88.1743V147.616H85.5143V148.148H84.9823V148.68H84.4503V151.34H84.9823V151.872H85.5143V152.404H88.1743V152.936H87.6423V153.468H84.9823V152.936H84.4503V152.404H83.9183ZM83.3863 155.064V154H84.4503V154.532H84.9823V155.064H88.1743V154.532H88.7063V152.404H88.1743V151.34H88.7063V148.68H88.1743V147.616H88.7063V146.552H89.7703V155.064H89.2383V155.596H88.1743V156.128H84.9823V155.596H83.9183V155.064H83.3863ZM92.4358 148.68V149.744H96.6918V148.68H96.1598V148.148H95.6278V147.616H93.4998V148.148H92.9678V148.68H92.4358ZM91.9038 152.936V151.872H91.3718V148.68H91.9038V147.616H92.4358V147.084H92.9678V146.552H96.1598V147.084H96.6918V147.616H97.2238V148.68H97.7558V150.808H92.4358V151.872H92.9678V152.404H93.4998V152.936H96.1598V152.404H96.6918V151.872H97.7558V152.936H97.2238V153.468H96.1598V154H92.9678V153.468H92.4358V152.936H91.9038ZM99.355 154V146.552H100.419V147.616H100.951V148.148H100.419V154H99.355ZM104.143 154V148.148H103.611V147.616H100.951V147.084H101.483V146.552H104.143V147.084H104.675V147.616H105.207V154H104.143ZM107.871 152.936V147.616H106.807V146.552H107.871V144.956H108.935V146.552H111.063V147.616H108.935V152.936H111.063V154H108.935V153.468H108.403V152.936H107.871ZM112.658 150.276V148.68H114.254V150.276H112.658ZM112.658 154V152.404H114.254V154H112.658ZM116.377 150.276V148.68H117.973V150.276H116.377ZM116.377 154V152.404H117.973V154H116.377ZM119.563 152.936V151.872H120.627V152.404H121.159V152.936H124.351V151.34H123.287V150.808H121.159V150.276H120.095V149.212H119.563V148.148H120.095V147.084H120.627V146.552H124.351V147.084H124.883V147.616H125.415V148.68H124.351V147.616H121.159V148.148H120.627V149.212H121.159V149.744H123.287V150.276H124.883V150.808H125.415V152.936H124.883V153.468H124.351V154H120.627V153.468H120.095V152.936H119.563ZM127.545 148.68V149.744H131.801V148.68H131.269V148.148H130.737V147.616H128.609V148.148H128.077V148.68H127.545ZM127.013 152.936V151.872H126.481V148.68H127.013V147.616H127.545V147.084H128.077V146.552H131.269V147.084H131.801V147.616H132.333V148.68H132.865V150.808H127.545V151.872H128.077V152.404H128.609V152.936H131.269V152.404H131.801V151.872H132.865V152.936H132.333V153.468H131.269V154H128.077V153.468H127.545V152.936H127.013ZM134.464 152.936V150.808H134.996V150.276H136.06V149.744H138.72V149.212H139.252V148.148H138.72V147.616H136.06V148.148H135.528V148.68H134.464V147.616H134.996V147.084H136.06V146.552H138.72V147.084H139.784V148.148H140.316V152.936H140.848V154H139.784V153.468H139.252V152.936H138.72V152.404H139.252V150.276H138.72V150.808H136.06V151.34H135.528V152.936H138.72V153.468H138.188V154H135.528V153.468H134.996V152.936H134.464ZM145.109 147.616V147.084H145.641V146.552H147.237V147.616H145.109ZM142.449 154V152.936H143.513V147.616H142.449V146.552H144.577V147.616H145.109V148.148H144.577V152.936H146.173V154H142.449ZM148.3 152.936V151.872H147.768V148.68H148.3V147.616H148.832V147.084H149.364V146.552H152.556V147.084H153.088V147.616H153.62V148.148H154.152V149.212H153.088V148.68H152.556V148.148H152.024V147.616H149.896V148.148H149.364V148.68H148.832V151.872H149.364V152.404H149.896V152.936H152.024V152.404H152.556V151.872H153.088V151.34H154.152V152.404H153.62V152.936H153.088V153.468H152.556V154H149.364V153.468H148.832V152.936H148.3ZM155.752 154V143.892H156.816V147.616H157.348V148.148H156.816V154H155.752ZM160.54 154V148.148H160.008V147.616H157.348V147.084H157.88V146.552H160.54V147.084H161.072V147.616H161.604V154H160.54ZM163.204 155.064V154H169.588V155.064H163.204ZM171.719 152.936V147.616H170.655V146.552H171.719V144.956H172.783V146.552H174.911V147.616H172.783V152.936H174.911V154H172.783V153.468H172.251V152.936H171.719ZM176.505 152.936V150.808H177.037V150.276H178.101V149.744H180.761V149.212H181.293V148.148H180.761V147.616H178.101V148.148H177.569V148.68H176.505V147.616H177.037V147.084H178.101V146.552H180.761V147.084H181.825V148.148H182.357V152.936H182.889V154H181.825V153.468H181.293V152.936H180.761V152.404H181.293V150.276H180.761V150.808H178.101V151.34H177.569V152.936H180.761V153.468H180.229V154H177.569V153.468H177.037V152.936H176.505ZM183.958 152.936V151.872H185.022V152.404H185.554V152.936H188.746V151.34H187.682V150.808H185.554V150.276H184.49V149.212H183.958V148.148H184.49V147.084H185.022V146.552H188.746V147.084H189.278V147.616H189.81V148.68H188.746V147.616H185.554V148.148H185.022V149.212H185.554V149.744H187.682V150.276H189.278V150.808H189.81V152.936H189.278V153.468H188.746V154H185.022V153.468H184.49V152.936H183.958ZM191.408 154V143.892H192.472V150.276H193.004V149.744H193.536V149.212H194.068V148.68H194.6V148.148H195.132V147.616H195.664V147.084H196.196V146.552H197.26V147.616H196.728V148.148H196.196V148.68H195.664V149.212H195.132V149.744H194.6V150.276H195.132V150.808H195.664V151.34H196.196V151.872H196.728V152.404H197.26V154H196.196V152.936H195.664V152.404H195.132V151.872H194.6V151.34H194.068V150.808H193.536V151.34H193.004V151.872H192.472V154H191.408ZM198.327 152.936V151.872H199.391V152.404H199.923V152.936H203.115V151.34H202.051V150.808H199.923V150.276H198.859V149.212H198.327V148.148H198.859V147.084H199.391V146.552H203.115V147.084H203.647V147.616H204.179V148.68H203.115V147.616H199.923V148.148H199.391V149.212H199.923V149.744H202.051V150.276H203.647V150.808H204.179V152.936H203.647V153.468H203.115V154H199.391V153.468H198.859V152.936H198.327Z" fill="#EBEBEB"/>
<path d="M44.912 176.176V174.808H45.368V173.896H45.824V173.44H46.28V172.984H46.736V172.528H47.192V172.072H47.648V171.616H48.104V171.16H48.56V170.704H49.016V170.248H49.472V169.336H50.384V175.264H51.296V176.176H50.384V178H49.472V176.176H44.912ZM47.648 172.984V173.44H47.192V173.896H46.736V174.352H46.28V174.808H45.824V175.264H49.472V171.616H49.016V172.072H48.56V172.528H48.104V172.984H47.648ZM52.6591 177.088V176.176H53.5711V176.632H54.0271V177.088H56.7631V175.72H55.8511V175.264H54.0271V174.808H53.1151V173.896H52.6591V172.984H53.1151V172.072H53.5711V171.616H56.7631V172.072H57.2191V172.528H57.6751V173.44H56.7631V172.528H54.0271V172.984H53.5711V173.896H54.0271V174.352H55.8511V174.808H57.2191V175.264H57.6751V177.088H57.2191V177.544H56.7631V178H53.5711V177.544H53.1151V177.088H52.6591Z" fill="#5C5C5C"/>
<rect x="256.5" y="205.5" width="225" height="67" fill="#1C1C1C"/>
<rect x="256.5" y="205.5" width="225" height="67" stroke="#5C5C5C"/>
<path d="M271.724 232V222.956H268.532V221.892H275.98V222.956H272.788V232H271.724ZM276.515 230.936V228.808H277.047V228.276H278.111V227.744H280.771V227.212H281.303V226.148H280.771V225.616H278.111V226.148H277.579V226.68H276.515V225.616H277.047V225.084H278.111V224.552H280.771V225.084H281.835V226.148H282.367V230.936H282.899V232H281.835V231.468H281.303V230.936H280.771V230.404H281.303V228.276H280.771V228.808H278.111V229.34H277.579V230.936H280.771V231.468H280.239V232H277.579V231.468H277.047V230.936H276.515ZM283.968 230.936V229.872H285.032V230.404H285.564V230.936H288.756V229.34H287.692V228.808H285.564V228.276H284.5V227.212H283.968V226.148H284.5V225.084H285.032V224.552H288.756V225.084H289.288V225.616H289.82V226.68H288.756V225.616H285.564V226.148H285.032V227.212H285.564V227.744H287.692V228.276H289.288V228.808H289.82V230.936H289.288V231.468H288.756V232H285.032V231.468H284.5V230.936H283.968ZM291.418 232V221.892H292.482V228.276H293.014V227.744H293.546V227.212H294.078V226.68H294.61V226.148H295.142V225.616H295.674V225.084H296.206V224.552H297.27V225.616H296.738V226.148H296.206V226.68H295.674V227.212H295.142V227.744H294.61V228.276H295.142V228.808H295.674V229.34H296.206V229.872H296.738V230.404H297.27V232H296.206V230.936H295.674V230.404H295.142V229.872H294.61V229.34H294.078V228.808H293.546V229.34H293.014V229.872H292.482V232H291.418ZM303.125 227.212V225.616H302.593V224.02H301.529V225.616H300.997V227.212H300.465V227.744H303.657V227.212H303.125ZM298.337 232V230.404H298.869V228.808H299.401V227.212H299.933V225.616H300.465V224.02H300.997V222.956H301.529V221.892H302.593V222.956H303.125V224.02H303.657V225.616H304.189V227.212H304.721V228.808H305.253V230.404H305.785V232H304.721V230.404H304.189V228.808H299.933V230.404H299.401V232H298.337ZM307.918 230.404V229.872H307.386V226.148H307.918V225.616H308.45V225.084H308.982V224.552H311.642V225.084H312.174V225.616H309.514V226.148H308.982V226.68H308.45V229.34H308.982V229.872H309.514V230.404H312.174V230.936H311.642V231.468H308.982V230.936H308.45V230.404H307.918ZM307.386 233.064V232H308.45V232.532H308.982V233.064H312.174V232.532H312.706V230.404H312.174V229.34H312.706V226.68H312.174V225.616H312.706V224.552H313.77V233.064H313.238V233.596H312.174V234.128H308.982V233.596H307.918V233.064H307.386ZM316.436 226.68V227.744H320.692V226.68H320.16V226.148H319.628V225.616H317.5V226.148H316.968V226.68H316.436ZM315.904 230.936V229.872H315.372V226.68H315.904V225.616H316.436V225.084H316.968V224.552H320.16V225.084H320.692V225.616H321.224V226.68H321.756V228.808H316.436V229.872H316.968V230.404H317.5V230.936H320.16V230.404H320.692V229.872H321.756V230.936H321.224V231.468H320.16V232H316.968V231.468H316.436V230.936H315.904ZM323.355 232V224.552H324.419V225.616H324.951V226.148H324.419V232H323.355ZM328.143 232V226.148H327.611V225.616H324.951V225.084H325.483V224.552H328.143V225.084H328.675V225.616H329.207V232H328.143ZM331.871 230.936V225.616H330.807V224.552H331.871V222.956H332.935V224.552H335.063V225.616H332.935V230.936H335.063V232H332.935V231.468H332.403V230.936H331.871ZM336.658 228.276V226.68H338.254V228.276H336.658ZM336.658 232V230.404H338.254V232H336.658ZM340.377 228.276V226.68H341.973V228.276H340.377ZM340.377 232V230.404H341.973V232H340.377ZM344.095 230.936V224.552H345.159V230.404H345.691V230.936H347.819V231.468H347.287V232H345.159V231.468H344.627V230.936H344.095ZM348.351 232V230.936H347.819V230.404H348.351V224.552H349.415V232H348.351ZM351.014 230.936V229.872H352.078V230.404H352.61V230.936H355.802V229.34H354.738V228.808H352.61V228.276H351.546V227.212H351.014V226.148H351.546V225.084H352.078V224.552H355.802V225.084H356.334V225.616H356.866V226.68H355.802V225.616H352.61V226.148H352.078V227.212H352.61V227.744H354.738V228.276H356.334V228.808H356.866V230.936H356.334V231.468H355.802V232H352.078V231.468H351.546V230.936H351.014ZM358.996 226.68V227.744H363.252V226.68H362.72V226.148H362.188V225.616H360.06V226.148H359.528V226.68H358.996ZM358.464 230.936V229.872H357.932V226.68H358.464V225.616H358.996V225.084H359.528V224.552H362.72V225.084H363.252V225.616H363.784V226.68H364.316V228.808H358.996V229.872H359.528V230.404H360.06V230.936H362.72V230.404H363.252V229.872H364.316V230.936H363.784V231.468H362.72V232H359.528V231.468H358.996V230.936H358.464ZM365.384 233.064V232H371.768V233.064H365.384ZM373.367 230.936V228.808H373.899V228.276H374.963V227.744H377.623V227.212H378.155V226.148H377.623V225.616H374.963V226.148H374.431V226.68H373.367V225.616H373.899V225.084H374.963V224.552H377.623V225.084H378.687V226.148H379.219V230.936H379.751V232H378.687V231.468H378.155V230.936H377.623V230.404H378.155V228.276H377.623V228.808H374.963V229.34H374.431V230.936H377.623V231.468H377.091V232H374.431V231.468H373.899V230.936H373.367ZM380.819 230.936V229.872H381.883V230.404H382.415V230.936H385.607V229.34H384.543V228.808H382.415V228.276H381.351V227.212H380.819V226.148H381.351V225.084H381.883V224.552H385.607V225.084H386.139V225.616H386.671V226.68H385.607V225.616H382.415V226.148H381.883V227.212H382.415V227.744H384.543V228.276H386.139V228.808H386.671V230.936H386.139V231.468H385.607V232H381.883V231.468H381.351V230.936H380.819ZM388.269 230.936V228.808H388.801V228.276H389.865V227.744H392.525V227.212H393.057V226.148H392.525V225.616H389.865V226.148H389.333V226.68H388.269V225.616H388.801V225.084H389.865V224.552H392.525V225.084H393.589V226.148H394.121V230.936H394.653V232H393.589V231.468H393.057V230.936H392.525V230.404H393.057V228.276H392.525V228.808H389.865V229.34H389.333V230.936H392.525V231.468H391.993V232H389.333V231.468H388.801V230.936H388.269ZM396.253 232V224.552H397.317V225.616H397.849V226.148H397.317V232H396.253ZM401.041 232V226.148H400.509V225.616H397.849V225.084H398.381V224.552H401.041V225.084H401.573V225.616H402.105V232H401.041ZM404.238 230.936V228.808H404.77V228.276H405.834V227.744H408.494V227.212H409.026V226.148H408.494V225.616H405.834V226.148H405.302V226.68H404.238V225.616H404.77V225.084H405.834V224.552H408.494V225.084H409.558V226.148H410.09V230.936H410.622V232H409.558V231.468H409.026V230.936H408.494V230.404H409.026V228.276H408.494V228.808H405.834V229.34H405.302V230.936H408.494V231.468H407.962V232H405.302V231.468H404.77V230.936H404.238ZM411.69 233.064V232H418.074V233.064H411.69ZM423.397 232V226.148H422.865V225.616H421.269V225.084H421.801V224.552H423.397V225.084H423.929V225.616H424.461V232H423.397ZM427.121 232V226.148H426.589V225.616H424.461V225.084H424.993V224.552H427.121V225.084H427.653V225.616H428.185V232H427.121ZM419.673 232V224.552H420.737V225.616H421.269V226.148H420.737V232H419.673ZM430.31 230.936V229.872H429.778V226.68H430.31V225.616H430.842V225.084H431.374V224.552H434.566V225.084H435.098V225.616H435.63V226.148H436.162V227.212H435.098V226.68H434.566V226.148H434.034V225.616H431.906V226.148H431.374V226.68H430.842V229.872H431.374V230.404H431.906V230.936H434.034V230.404H434.566V229.872H435.098V229.34H436.162V230.404H435.63V230.936H435.098V231.468H434.566V232H431.374V231.468H430.842V230.936H430.31ZM439.357 231.468V230.936H442.017V230.404H442.549V229.872H443.081V226.68H442.549V226.148H442.017V225.616H439.357V225.084H439.889V224.552H442.549V225.084H443.081V225.616H443.613V226.148H444.145V230.404H443.613V230.936H443.081V231.468H442.549V232H439.889V231.468H439.357ZM438.825 230.936V234.128H437.761V224.552H438.825V225.616H439.357V226.68H438.825V229.872H439.357V230.936H438.825Z" fill="#EBEBEB"/>
<path d="M268.912 256V255.088H269.368V254.176H269.824V253.264H270.28V252.808H270.736V252.352H271.192V251.896H272.104V251.44H273.016V250.984H273.472V250.528H273.928V248.704H273.472V248.248H270.736V248.704H270.28V249.16H269.824V250.072H268.912V249.16H269.368V248.248H269.824V247.792H270.736V247.336H273.472V247.792H274.384V248.704H274.84V250.984H274.384V251.44H273.928V251.896H273.016V252.352H272.104V252.808H271.648V253.264H271.192V253.72H270.736V254.176H270.28V255.088H274.84V256H268.912ZM276.214 255.088V254.176H277.126V254.632H277.582V255.088H280.318V253.72H279.406V253.264H277.582V252.808H276.67V251.896H276.214V250.984H276.67V250.072H277.126V249.616H280.318V250.072H280.774V250.528H281.23V251.44H280.318V250.528H277.582V250.984H277.126V251.896H277.582V252.352H279.406V252.808H280.774V253.264H281.23V255.088H280.774V255.544H280.318V256H277.126V255.544H276.67V255.088H276.214Z" fill="#5C5C5C"/>
<rect x="482.5" y="283.5" width="135" height="67" fill="#1C1C1C"/>
<rect x="482.5" y="283.5" width="135" height="67" stroke="#5C5C5C"/>
<path d="M494.532 308.936V307.872H495.596V308.404H496.128V308.936H499.32V307.34H498.256V306.808H496.128V306.276H495.064V305.212H494.532V304.148H495.064V303.084H495.596V302.552H499.32V303.084H499.852V303.616H500.384V304.68H499.32V303.616H496.128V304.148H495.596V305.212H496.128V305.744H498.256V306.276H499.852V306.808H500.384V308.936H499.852V309.468H499.32V310H495.596V309.468H495.064V308.936H494.532ZM501.982 308.936V306.808H502.514V306.276H503.578V305.744H506.238V305.212H506.77V304.148H506.238V303.616H503.578V304.148H503.046V304.68H501.982V303.616H502.514V303.084H503.578V302.552H506.238V303.084H507.302V304.148H507.834V308.936H508.366V310H507.302V309.468H506.77V308.936H506.238V308.404H506.77V306.276H506.238V306.808H503.578V307.34H503.046V308.936H506.238V309.468H505.706V310H503.046V309.468H502.514V308.936H501.982ZM511.03 308.936V307.872H510.498V306.276H509.966V304.68H509.434V302.552H510.498V304.68H511.03V306.276H511.562V307.872H512.094V308.936H512.626V307.872H513.158V306.276H513.69V304.68H514.222V302.552H515.286V304.68H514.754V306.276H514.222V307.872H513.69V308.936H513.158V310H511.562V308.936H511.03ZM517.416 304.68V305.744H521.672V304.68H521.14V304.148H520.608V303.616H518.48V304.148H517.948V304.68H517.416ZM516.884 308.936V307.872H516.352V304.68H516.884V303.616H517.416V303.084H517.948V302.552H521.14V303.084H521.672V303.616H522.204V304.68H522.736V306.808H517.416V307.872H517.948V308.404H518.48V308.936H521.14V308.404H521.672V307.872H522.736V308.936H522.204V309.468H521.14V310H517.948V309.468H517.416V308.936H516.884ZM523.803 311.064V310H530.187V311.064H523.803ZM535.511 310V304.148H534.979V303.616H533.383V303.084H533.915V302.552H535.511V303.084H536.043V303.616H536.575V310H535.511ZM539.235 310V304.148H538.703V303.616H536.575V303.084H537.107V302.552H539.235V303.084H539.767V303.616H540.299V310H539.235ZM531.787 310V302.552H532.851V303.616H533.383V304.148H532.851V310H531.787ZM542.955 304.68V305.744H547.211V304.68H546.679V304.148H546.147V303.616H544.019V304.148H543.487V304.68H542.955ZM542.423 308.936V307.872H541.891V304.68H542.423V303.616H542.955V303.084H543.487V302.552H546.679V303.084H547.211V303.616H547.743V304.68H548.275V306.808H542.955V307.872H543.487V308.404H544.019V308.936H546.679V308.404H547.211V307.872H548.275V308.936H547.743V309.468H546.679V310H543.487V309.468H542.955V308.936H542.423ZM549.343 308.936V307.872H550.407V308.404H550.939V308.936H554.131V307.34H553.067V306.808H550.939V306.276H549.875V305.212H549.343V304.148H549.875V303.084H550.407V302.552H554.131V303.084H554.663V303.616H555.195V304.68H554.131V303.616H550.939V304.148H550.407V305.212H550.939V305.744H553.067V306.276H554.663V306.808H555.195V308.936H554.663V309.468H554.131V310H550.407V309.468H549.875V308.936H549.343ZM556.261 308.936V307.872H557.325V308.404H557.857V308.936H561.049V307.34H559.985V306.808H557.857V306.276H556.793V305.212H556.261V304.148H556.793V303.084H557.325V302.552H561.049V303.084H561.581V303.616H562.113V304.68H561.049V303.616H557.857V304.148H557.325V305.212H557.857V305.744H559.985V306.276H561.581V306.808H562.113V308.936H561.581V309.468H561.049V310H557.325V309.468H556.793V308.936H556.261ZM563.71 308.936V306.808H564.242V306.276H565.306V305.744H567.966V305.212H568.498V304.148H567.966V303.616H565.306V304.148H564.774V304.68H563.71V303.616H564.242V303.084H565.306V302.552H567.966V303.084H569.03V304.148H569.562V308.936H570.094V310H569.03V309.468H568.498V308.936H567.966V308.404H568.498V306.276H567.966V306.808H565.306V307.34H564.774V308.936H567.966V309.468H567.434V310H564.774V309.468H564.242V308.936H563.71ZM572.227 308.404V307.872H571.695V304.148H572.227V303.616H572.759V303.084H573.291V302.552H575.951V303.084H576.483V303.616H573.823V304.148H573.291V304.68H572.759V307.34H573.291V307.872H573.823V308.404H576.483V308.936H575.951V309.468H573.291V308.936H572.759V308.404H572.227ZM571.695 311.064V310H572.759V310.532H573.291V311.064H576.483V310.532H577.015V308.404H576.483V307.34H577.015V304.68H576.483V303.616H577.015V302.552H578.079V311.064H577.547V311.596H576.483V312.128H573.291V311.596H572.227V311.064H571.695ZM580.744 304.68V305.744H585V304.68H584.468V304.148H583.936V303.616H581.808V304.148H581.276V304.68H580.744ZM580.212 308.936V307.872H579.68V304.68H580.212V303.616H580.744V303.084H581.276V302.552H584.468V303.084H585V303.616H585.532V304.68H586.064V306.808H580.744V307.872H581.276V308.404H581.808V308.936H584.468V308.404H585V307.872H586.064V308.936H585.532V309.468H584.468V310H581.276V309.468H580.744V308.936H580.212Z" fill="#EBEBEB"/>
<path d="M494.912 334V333.088H495.368V332.176H495.824V331.264H496.28V330.808H496.736V330.352H497.192V329.896H498.104V329.44H499.016V328.984H499.472V328.528H499.928V326.704H499.472V326.248H496.736V326.704H496.28V327.16H495.824V328.072H494.912V327.16H495.368V326.248H495.824V325.792H496.736V325.336H499.472V325.792H500.384V326.704H500.84V328.984H500.384V329.44H499.928V329.896H499.016V330.352H498.104V330.808H497.648V331.264H497.192V331.72H496.736V332.176H496.28V333.088H500.84V334H494.912ZM504.95 330.808V331.72H504.494V332.632H504.038V333.088H506.318V332.632H506.774V331.72H507.23V327.616H506.774V328.072H506.318V328.984H505.862V329.896H505.406V330.808H504.95ZM504.494 330.808V329.896H504.95V328.984H505.406V328.072H505.862V327.16H506.318V326.248H504.038V326.704H503.582V327.616H503.126V331.72H504.038V330.808H504.494ZM503.126 333.544V332.632H502.67V331.72H502.214V327.616H502.67V326.704H503.126V325.792H504.038V325.336H506.318V325.792H507.23V326.704H507.686V327.616H508.142V331.72H507.686V332.632H507.23V333.544H506.318V334H504.038V333.544H503.126ZM512.706 334V328.984H512.25V328.528H510.882V328.072H511.338V327.616H512.706V328.072H513.162V328.528H513.618V334H512.706ZM515.898 334V328.984H515.442V328.528H513.618V328.072H514.074V327.616H515.898V328.072H516.354V328.528H516.81V334H515.898ZM509.514 334V327.616H510.426V328.528H510.882V328.984H510.426V334H509.514ZM518.175 333.088V332.176H519.087V332.632H519.543V333.088H522.279V331.72H521.367V331.264H519.543V330.808H518.631V329.896H518.175V328.984H518.631V328.072H519.087V327.616H522.279V328.072H522.735V328.528H523.191V329.44H522.279V328.528H519.543V328.984H519.087V329.896H519.543V330.352H521.367V330.808H522.735V331.264H523.191V333.088H522.735V333.544H522.279V334H519.087V333.544H518.631V333.088H518.175Z" fill="#5C5C5C"/>
</svg>
