<svg width="650" height="400" viewBox="0 0 650 400" fill="none" xmlns="http://www.w3.org/2000/svg">
<path d="M323.907 370.32L462.764 290.151V125.278M323.907 370.32L185.05 290.151V125.278M323.907 370.32V205.447M462.764 125.278L323.907 205.447M462.764 125.278L323.907 45.1094L185.05 125.278M323.907 205.447L185.05 125.278" stroke="#7A7A7A"/>
<circle cx="289.193" cy="247.798" r="6.00104" fill="#333333" stroke="#A3A3A3" stroke-width="0.25"/>
<circle cx="486.247" cy="244.736" r="7.02204" fill="#333333" stroke="#A3A3A3" stroke-width="0.25"/>
<circle cx="340.243" cy="115.068" r="3.95902" fill="#333333" stroke="#A3A3A3" stroke-width="0.25"/>
<circle cx="225.891" cy="247.799" r="3.95902" fill="#5C5C5C" stroke="#D1D1D1" stroke-width="0.25"/>
<circle cx="369.853" cy="289.66" r="7.02204" fill="#333333" stroke="#A3A3A3" stroke-width="0.25"/>
<circle cx="360.664" cy="260.051" r="1.91701" fill="#7A7A7A" stroke="#F5F5F5" stroke-width="0.25"/>
<circle cx="353.517" cy="173.266" r="2.93802" fill="#262626" stroke="#7A7A7A" stroke-width="0.25"/>
<circle cx="357.601" cy="89.543" r="3.95902" fill="#333333" stroke="#A3A3A3" stroke-width="0.25"/>
<circle cx="438.965" cy="40.6875" r="3.95902" fill="#333333" stroke="#A3A3A3" stroke-width="0.25"/>
<circle cx="145.231" cy="365.214" r="4.98003" fill="#333333" stroke="#A3A3A3" stroke-width="0.25"/>
<circle cx="137.063" cy="132.425" r="2.93802" fill="#333333" stroke="#A3A3A3" stroke-width="0.25"/>
<line x1="281.182" y1="254.12" x2="152.535" y2="358.262" stroke="#5C5C5C" stroke-width="0.5" stroke-dasharray="4 4"/>
<line x1="346.534" y1="121.006" x2="479.265" y2="237.401" stroke="#5C5C5C" stroke-width="0.5" stroke-dasharray="4 4"/>
<line x1="364.146" y1="86.3568" x2="432.577" y2="43.9944" stroke="#5C5C5C" stroke-width="0.5" stroke-dasharray="4 4"/>
<circle cx="268.772" cy="368.277" r="1.91701" fill="#333333" stroke="#A3A3A3" stroke-width="0.25"/>
<circle cx="512.958" cy="151.612" r="1.91701" fill="#5C5C5C" stroke="#D1D1D1" stroke-width="0.25"/>
<circle cx="241.405" cy="31.042" r="1.91701" fill="#7A7A7A" stroke="#EBEBEB" stroke-width="0.25"/>
</svg>
