<svg width="650" height="400" viewBox="0 0 650 400" fill="none" xmlns="http://www.w3.org/2000/svg">
<g clip-path="url(#clip0_191_235)">
<path d="M335 173V112H390" stroke="#5C5C5C" stroke-dasharray="8 8"/>
<path d="M269 173V67H190" stroke="#5C5C5C" stroke-dasharray="8 8"/>
<path d="M228 247V333H158" stroke="#5C5C5C" stroke-dasharray="8 8"/>
<path d="M313 247V318H458" stroke="#5C5C5C" stroke-dasharray="8 8"/>
<rect x="181.5" y="173.5" width="241" height="73" fill="#262626"/>
<rect x="181.5" y="173.5" width="241" height="73" stroke="#5C5C5C"/>
<path d="M212.6 210.16V207.88H211.84V205.6H210.32V207.88H209.56V210.16H208.8V210.92H213.36V210.16H212.6ZM205.76 217V214.72H206.52V212.44H207.28V210.16H208.04V207.88H208.8V205.6H209.56V204.08H210.32V202.56H211.84V204.08H212.6V205.6H213.36V207.88H214.12V210.16H214.88V212.44H215.64V214.72H216.4V217H214.88V214.72H214.12V212.44H208.04V214.72H207.28V217H205.76ZM217.92 217V215.48H220.2V204.08H217.92V202.56H224V204.08H221.72V215.48H224V217H217.92ZM236.923 215.48V213.96H236.163V211.68H235.403V209.4H234.643V207.12H233.883V204.84H233.123V202.56H234.643V204.84H235.403V207.12H236.163V209.4H236.923V211.68H237.683V213.96H239.203V211.68H239.963V209.4H240.723V207.12H241.483V204.84H242.243V202.56H243.763V204.84H243.003V207.12H242.243V209.4H241.483V211.68H240.723V213.96H239.963V215.48H239.203V217H237.683V215.48H236.923ZM245.291 217V215.48H247.571V207.88H245.291V206.36H249.091V215.48H251.371V217H245.291ZM247.571 204.84V202.56H249.091V204.84H247.571ZM259.729 215.48V213.96H260.489V209.4H259.729V207.88H260.489V202.56H262.009V217H260.489V215.48H259.729ZM253.649 215.48V213.96H252.889V209.4H253.649V207.88H254.409V207.12H255.169V206.36H258.969V207.12H259.729V207.88H255.929V208.64H255.169V209.4H254.409V213.96H255.169V214.72H255.929V215.48H259.729V216.24H258.969V217H255.169V216.24H254.409V215.48H253.649ZM265.815 209.4V210.92H271.895V209.4H271.135V208.64H270.375V207.88H267.335V208.64H266.575V209.4H265.815ZM265.055 215.48V213.96H264.295V209.4H265.055V207.88H265.815V207.12H266.575V206.36H271.135V207.12H271.895V207.88H272.655V209.4H273.415V212.44H265.815V213.96H266.575V214.72H267.335V215.48H271.135V214.72H271.895V213.96H273.415V215.48H272.655V216.24H271.135V217H266.575V216.24H265.815V215.48H265.055ZM275.7 215.48V213.96H274.94V209.4H275.7V207.88H276.46V207.12H277.22V206.36H281.78V207.12H282.54V207.88H283.3V209.4H284.06V213.96H283.3V215.48H282.54V216.24H281.78V217H277.22V216.24H276.46V215.48H275.7ZM281.02 215.48V214.72H281.78V213.96H282.54V209.4H281.78V208.64H281.02V207.88H277.98V208.64H277.22V209.4H276.46V213.96H277.22V214.72H277.98V215.48H281.02ZM293.942 217V202.56H300.782V203.32H302.302V204.08H303.062V204.84H303.822V207.88H303.062V208.64H302.302V209.4H300.782V208.64H301.542V207.88H302.302V205.6H301.542V204.84H300.782V204.08H295.462V209.4H300.782V210.16H302.302V210.92H303.062V211.68H303.822V217H302.302V212.44H301.542V211.68H300.782V210.92H295.462V217H293.942ZM307.632 209.4V210.92H313.712V209.4H312.952V208.64H312.192V207.88H309.152V208.64H308.392V209.4H307.632ZM306.872 215.48V213.96H306.112V209.4H306.872V207.88H307.632V207.12H308.392V206.36H312.952V207.12H313.712V207.88H314.472V209.4H315.232V212.44H307.632V213.96H308.392V214.72H309.152V215.48H312.952V214.72H313.712V213.96H315.232V215.48H314.472V216.24H312.952V217H308.392V216.24H307.632V215.48H306.872ZM316.756 215.48V213.96H318.276V214.72H319.036V215.48H323.596V213.2H322.076V212.44H319.036V211.68H317.516V210.16H316.756V208.64H317.516V207.12H318.276V206.36H323.596V207.12H324.356V207.88H325.116V209.4H323.596V207.88H319.036V208.64H318.276V210.16H319.036V210.92H322.076V211.68H324.356V212.44H325.116V215.48H324.356V216.24H323.596V217H318.276V216.24H317.516V215.48H316.756ZM328.159 209.4V210.92H334.239V209.4H333.479V208.64H332.719V207.88H329.679V208.64H328.919V209.4H328.159ZM327.399 215.48V213.96H326.639V209.4H327.399V207.88H328.159V207.12H328.919V206.36H333.479V207.12H334.239V207.88H334.999V209.4H335.759V212.44H328.159V213.96H328.919V214.72H329.679V215.48H333.479V214.72H334.239V213.96H335.759V215.48H334.999V216.24H333.479V217H328.919V216.24H328.159V215.48H327.399ZM338.043 215.48V212.44H338.803V211.68H340.323V210.92H344.123V210.16H344.883V208.64H344.123V207.88H340.323V208.64H339.563V209.4H338.043V207.88H338.803V207.12H340.323V206.36H344.123V207.12H345.643V208.64H346.403V215.48H347.163V217H345.643V216.24H344.883V215.48H344.123V214.72H344.883V211.68H344.123V212.44H340.323V213.2H339.563V215.48H344.123V216.24H343.363V217H339.563V216.24H338.803V215.48H338.043ZM353.25 207.88V207.12H354.01V206.36H356.29V207.88H353.25ZM349.45 217V215.48H350.97V207.88H349.45V206.36H352.49V207.88H353.25V208.64H352.49V215.48H354.77V217H349.45ZM357.809 215.48V213.96H357.049V209.4H357.809V207.88H358.569V207.12H359.329V206.36H363.889V207.12H364.649V207.88H365.409V208.64H366.169V210.16H364.649V209.4H363.889V208.64H363.129V207.88H360.089V208.64H359.329V209.4H358.569V213.96H359.329V214.72H360.089V215.48H363.129V214.72H363.889V213.96H364.649V213.2H366.169V214.72H365.409V215.48H364.649V216.24H363.889V217H359.329V216.24H358.569V215.48H357.809ZM368.454 217V202.56H369.974V207.88H370.734V208.64H369.974V217H368.454ZM375.294 217V208.64H374.534V207.88H370.734V207.12H371.494V206.36H375.294V207.12H376.054V207.88H376.814V217H375.294ZM380.62 209.4V210.92H386.7V209.4H385.94V208.64H385.18V207.88H382.14V208.64H381.38V209.4H380.62ZM379.86 215.48V213.96H379.1V209.4H379.86V207.88H380.62V207.12H381.38V206.36H385.94V207.12H386.7V207.88H387.46V209.4H388.22V212.44H380.62V213.96H381.38V214.72H382.14V215.48H385.94V214.72H386.7V213.96H388.22V215.48H387.46V216.24H385.94V217H381.38V216.24H380.62V215.48H379.86ZM394.304 207.88V207.12H395.064V206.36H397.344V207.88H394.304ZM390.504 217V215.48H392.024V207.88H390.504V206.36H393.544V207.88H394.304V208.64H393.544V215.48H395.824V217H390.504Z" fill="white"/>
<rect x="390.5" y="91.5" width="205" height="40" fill="#262626"/>
<rect x="390.5" y="91.5" width="205" height="40" stroke="#5C5C5C"/>
<path d="M404.736 116V112.352H404.28V111.44H403.824V110.528H403.368V109.616H402.912V108.704H402.456V107.336H403.368V108.704H403.824V109.616H404.28V110.528H404.736V111.44H405.648V110.528H406.104V109.616H406.56V108.704H407.016V107.336H407.928V108.704H407.472V109.616H407.016V110.528H406.56V111.44H406.104V112.352H405.648V116H404.736ZM409.755 115.088V114.176H409.299V113.264H408.843V110.072H409.299V109.16H409.755V108.248H410.211V107.792H411.123V107.336H413.859V107.792H414.771V108.248H415.227V109.16H415.683V110.072H416.139V113.264H415.683V114.176H415.227V115.088H414.771V115.544H413.859V116H411.123V115.544H410.211V115.088H409.755ZM414.771 110.072V109.16H414.315V108.704H413.859V108.248H411.123V108.704H410.667V109.16H410.211V110.072H409.755V113.264H410.211V114.176H410.667V114.632H411.123V115.088H413.859V114.632H414.315V114.176H414.771V113.264H415.227V110.072H414.771ZM417.958 115.088V114.176H417.502V107.336H418.414V114.176H418.87V114.632H419.326V115.088H422.062V114.632H422.518V114.176H422.974V107.336H423.886V114.176H423.43V115.088H422.974V115.544H422.062V116H419.326V115.544H418.414V115.088H417.958ZM427.985 116V108.248H425.249V107.336H431.633V108.248H428.897V116H427.985ZM433.462 115.088V114.176H433.006V107.336H433.918V114.176H434.374V114.632H434.83V115.088H437.566V114.632H438.022V114.176H438.478V107.336H439.39V114.176H438.934V115.088H438.478V115.544H437.566V116H434.83V115.544H433.918V115.088H433.462ZM442.121 111.896V115.088H445.313V114.632H445.769V114.176H446.225V112.808H445.769V112.352H445.313V111.896H442.121ZM441.209 116V107.336H445.313V107.792H446.225V108.704H446.681V110.072H446.225V110.984H445.313V110.072H445.769V108.704H445.313V108.248H442.121V110.984H445.313V111.44H446.225V111.896H446.681V112.352H447.137V114.632H446.681V115.088H446.225V115.544H445.313V116H441.209ZM448.967 116V107.336H454.439V108.248H449.879V110.984H454.439V111.896H449.879V115.088H454.439V116H448.967ZM463.106 116V108.248H460.37V107.336H466.754V108.248H464.018V116H463.106ZM468.127 116V107.336H472.231V107.792H473.143V108.248H473.599V108.704H474.055V110.528H473.599V110.984H473.143V111.44H472.231V110.984H472.687V110.528H473.143V109.16H472.687V108.704H472.231V108.248H469.039V111.44H472.231V111.896H473.143V112.352H473.599V112.808H474.055V116H473.143V113.264H472.687V112.808H472.231V112.352H469.039V116H468.127ZM479.533 111.896V110.528H479.077V109.16H478.165V110.528H477.709V111.896H477.253V112.352H479.989V111.896H479.533ZM475.429 116V114.632H475.885V113.264H476.341V111.896H476.797V110.528H477.253V109.16H477.709V108.248H478.165V107.336H479.077V108.248H479.533V109.16H479.989V110.528H480.445V111.896H480.901V113.264H481.357V114.632H481.813V116H480.901V114.632H480.445V113.264H476.797V114.632H476.341V116H475.429ZM483.185 116V107.336H484.553V107.792H485.009V108.704H485.465V109.616H485.921V110.528H486.377V111.44H486.833V112.352H487.289V113.264H487.745V114.176H486.833V113.264H486.377V112.352H485.921V111.44H485.465V110.528H485.009V109.616H484.553V108.704H484.097V116H483.185ZM487.745 115.088V114.176H488.201V107.336H489.113V116H488.201V115.088H487.745ZM491.399 115.544V114.632H490.943V113.264H491.855V114.632H492.311V115.088H495.503V114.632H495.959V112.808H495.047V112.352H493.679V111.896H492.311V111.44H491.399V110.984H490.943V108.704H491.399V107.792H492.311V107.336H495.047V107.792H495.959V108.248H496.415V109.16H496.871V110.072H495.959V109.16H495.503V108.704H495.047V108.248H492.311V108.704H491.855V110.528H492.311V110.984H494.135V111.44H495.503V111.896H496.415V112.808H496.871V114.632H496.415V115.544H495.503V116H492.311V115.544H491.399ZM499.157 115.088V114.176H498.701V113.264H498.245V110.072H498.701V109.16H499.157V108.248H499.613V107.792H500.525V107.336H503.261V107.792H504.629V108.248H505.085V109.16H505.541V110.528H504.629V109.16H504.173V108.704H503.717V108.248H500.525V108.704H500.069V109.16H499.613V110.072H499.157V113.264H499.613V114.176H500.069V114.632H500.525V115.088H503.717V114.632H504.173V114.176H504.629V112.808H505.541V114.176H505.085V115.088H504.629V115.544H503.261V116H500.525V115.544H499.613V115.088H499.157ZM506.904 116V107.336H511.008V107.792H511.92V108.248H512.376V108.704H512.832V110.528H512.376V110.984H511.92V111.44H511.008V110.984H511.464V110.528H511.92V109.16H511.464V108.704H511.008V108.248H507.816V111.44H511.008V111.896H511.92V112.352H512.376V112.808H512.832V116H511.92V113.264H511.464V112.808H511.008V112.352H507.816V116H506.904ZM514.662 116V107.336H515.574V116H514.662ZM517.392 116V107.336H521.496V107.792H522.408V108.248H522.864V109.16H523.32V110.528H522.864V111.44H522.408V111.896H521.496V112.352H518.304V116H517.392ZM521.952 110.984V110.528H522.408V109.16H521.952V108.704H521.496V108.248H518.304V111.44H521.496V110.984H521.952ZM526.973 116V108.248H524.237V107.336H530.621V108.248H527.885V116H526.973ZM538.833 116V108.248H536.097V107.336H542.481V108.248H539.745V116H538.833ZM544.309 115.088V114.176H543.853V113.264H543.397V110.072H543.853V109.16H544.309V108.248H544.765V107.792H545.677V107.336H548.413V107.792H549.325V108.248H549.781V109.16H550.237V110.072H550.693V113.264H550.237V114.176H549.781V115.088H549.325V115.544H548.413V116H545.677V115.544H544.765V115.088H544.309ZM549.325 110.072V109.16H548.869V108.704H548.413V108.248H545.677V108.704H545.221V109.16H544.765V110.072H544.309V113.264H544.765V114.176H545.221V114.632H545.677V115.088H548.413V114.632H548.869V114.176H549.325V113.264H549.781V110.072H549.325ZM552.513 115.088V114.176H552.057V113.264H551.601V110.072H552.057V109.16H552.513V108.248H552.969V107.792H553.881V107.336H556.617V107.792H557.529V108.248H557.985V109.16H558.441V110.072H558.897V113.264H558.441V114.176H557.985V115.088H557.529V115.544H556.617V116H553.881V115.544H552.969V115.088H552.513ZM557.529 110.072V109.16H557.073V108.704H556.617V108.248H553.881V108.704H553.425V109.16H552.969V110.072H552.513V113.264H552.969V114.176H553.425V114.632H553.881V115.088H556.617V114.632H557.073V114.176H557.529V113.264H557.985V110.072H557.529ZM560.26 116V107.336H561.172V115.088H565.732V116H560.26ZM567.103 116V107.336H568.015V111.44H568.471V110.984H568.927V110.528H569.383V110.072H569.839V109.616H570.295V109.16H570.751V108.704H571.207V108.248H571.663V107.792H572.119V107.336H573.031V108.248H572.575V108.704H572.119V109.16H571.663V109.616H571.207V110.072H570.751V110.528H570.295V110.984H569.839V111.896H570.295V112.352H570.751V112.808H571.207V113.264H571.663V113.72H572.119V114.176H572.575V114.632H573.031V116H572.119V115.088H571.663V114.632H571.207V114.176H570.751V113.72H570.295V113.264H569.839V112.808H569.383V112.352H568.471V112.808H568.015V116H567.103ZM574.404 116V107.336H575.316V116H574.404ZM579.415 116V108.248H576.679V107.336H583.063V108.248H580.327V116H579.415Z" fill="#EBEBEB"/>
<rect x="-0.5" y="0.5" width="151" height="40" transform="matrix(-1 0 0 1 205 46)" fill="#262626"/>
<rect x="-0.5" y="0.5" width="151" height="40" transform="matrix(-1 0 0 1 205 46)" stroke="#5C5C5C"/>
<path d="M67.368 70.544V69.632H66.912V68.264H67.824V69.632H68.28V70.088H71.472V69.632H71.928V67.808H71.016V67.352H69.648V66.896H68.28V66.44H67.368V65.984H66.912V63.704H67.368V62.792H68.28V62.336H71.016V62.792H71.928V63.248H72.384V64.16H72.84V65.072H71.928V64.16H71.472V63.704H71.016V63.248H68.28V63.704H67.824V65.528H68.28V65.984H70.104V66.44H71.472V66.896H72.384V67.808H72.84V69.632H72.384V70.544H71.472V71H68.28V70.544H67.368ZM75.1258 70.088V69.176H74.6698V62.336H75.5818V69.176H76.0378V69.632H76.4938V70.088H79.2298V69.632H79.6858V69.176H80.1418V62.336H81.0538V69.176H80.5978V70.088H80.1418V70.544H79.2298V71H76.4938V70.544H75.5818V70.088H75.1258ZM89.2569 71V64.616H88.8009V63.248H89.2569V62.336H90.1689V71H89.2569ZM82.8729 71V62.336H83.7849V63.248H84.2409V64.616H83.7849V71H82.8729ZM85.6089 69.632V68.72H85.1529V67.352H84.6969V65.984H84.2409V64.616H85.1529V65.984H85.6089V67.352H86.0649V68.72H86.9769V67.352H87.4329V65.984H87.8889V64.616H88.8009V65.984H88.3449V67.352H87.8889V68.72H87.4329V69.632H86.9769V70.544H86.0649V69.632H85.6089ZM98.3741 71V64.616H97.9181V63.248H98.3741V62.336H99.2861V71H98.3741ZM91.9901 71V62.336H92.9021V63.248H93.3581V64.616H92.9021V71H91.9901ZM94.7261 69.632V68.72H94.2701V67.352H93.8141V65.984H93.3581V64.616H94.2701V65.984H94.7261V67.352H95.1821V68.72H96.0941V67.352H96.5501V65.984H97.0061V64.616H97.9181V65.984H97.4621V67.352H97.0061V68.72H96.5501V69.632H96.0941V70.544H95.1821V69.632H94.7261ZM104.755 66.896V65.528H104.299V64.16H103.387V65.528H102.931V66.896H102.475V67.352H105.211V66.896H104.755ZM100.651 71V69.632H101.107V68.264H101.563V66.896H102.019V65.528H102.475V64.16H102.931V63.248H103.387V62.336H104.299V63.248H104.755V64.16H105.211V65.528H105.667V66.896H106.123V68.264H106.579V69.632H107.035V71H106.123V69.632H105.667V68.264H102.019V69.632H101.563V71H100.651ZM108.408 71V62.336H112.512V62.792H113.424V63.248H113.88V63.704H114.336V65.528H113.88V65.984H113.424V66.44H112.512V65.984H112.968V65.528H113.424V64.16H112.968V63.704H112.512V63.248H109.32V66.44H112.512V66.896H113.424V67.352H113.88V67.808H114.336V71H113.424V68.264H112.968V67.808H112.512V67.352H109.32V71H108.408ZM116.166 71V62.336H117.078V71H116.166ZM118.896 71V69.176H119.352V68.264H119.808V67.808H120.264V67.352H120.72V66.896H121.176V66.44H121.632V65.984H122.088V65.528H122.544V65.072H123V64.616H123.456V64.16H123.912V63.704H124.368V63.248H118.896V62.336H125.28V63.704H124.824V64.616H124.368V65.072H123.912V65.528H123.456V65.984H123V66.44H122.544V66.896H122.088V67.352H121.632V67.808H121.176V68.264H120.72V68.72H120.264V69.176H119.808V70.088H125.28V71H118.896ZM127.1 71V62.336H132.572V63.248H128.012V65.984H132.572V66.896H128.012V70.088H132.572V71H127.1ZM134.4 71V62.336H138.504V62.792H139.416V63.248H139.872V63.704H140.328V65.528H139.872V65.984H139.416V66.44H138.504V65.984H138.96V65.528H139.416V64.16H138.96V63.704H138.504V63.248H135.312V66.44H138.504V66.896H139.416V67.352H139.872V67.808H140.328V71H139.416V68.264H138.96V67.808H138.504V67.352H135.312V71H134.4ZM148.997 71V63.248H146.261V62.336H152.645V63.248H149.909V71H148.997ZM154.473 70.088V69.176H154.017V68.264H153.561V65.072H154.017V64.16H154.473V63.248H154.929V62.792H155.841V62.336H158.577V62.792H159.489V63.248H159.945V64.16H160.401V65.072H160.857V68.264H160.401V69.176H159.945V70.088H159.489V70.544H158.577V71H155.841V70.544H154.929V70.088H154.473ZM159.489 65.072V64.16H159.033V63.704H158.577V63.248H155.841V63.704H155.385V64.16H154.929V65.072H154.473V68.264H154.929V69.176H155.385V69.632H155.841V70.088H158.577V69.632H159.033V69.176H159.489V68.264H159.945V65.072H159.489ZM162.677 70.088V69.176H162.221V68.264H161.765V65.072H162.221V64.16H162.677V63.248H163.133V62.792H164.045V62.336H166.781V62.792H167.693V63.248H168.149V64.16H168.605V65.072H169.061V68.264H168.605V69.176H168.149V70.088H167.693V70.544H166.781V71H164.045V70.544H163.133V70.088H162.677ZM167.693 65.072V64.16H167.237V63.704H166.781V63.248H164.045V63.704H163.589V64.16H163.133V65.072H162.677V68.264H163.133V69.176H163.589V69.632H164.045V70.088H166.781V69.632H167.237V69.176H167.693V68.264H168.149V65.072H167.693ZM170.424 71V62.336H171.336V70.088H175.896V71H170.424ZM177.267 71V62.336H178.179V66.44H178.635V65.984H179.091V65.528H179.547V65.072H180.003V64.616H180.459V64.16H180.915V63.704H181.371V63.248H181.827V62.792H182.283V62.336H183.195V63.248H182.739V63.704H182.283V64.16H181.827V64.616H181.371V65.072H180.915V65.528H180.459V65.984H180.003V66.896H180.459V67.352H180.915V67.808H181.371V68.264H181.827V68.72H182.283V69.176H182.739V69.632H183.195V71H182.283V70.088H181.827V69.632H181.371V69.176H180.915V68.72H180.459V68.264H180.003V67.808H179.547V67.352H178.635V67.808H178.179V71H177.267ZM184.568 71V62.336H185.48V71H184.568ZM189.579 71V63.248H186.843V62.336H193.227V63.248H190.491V71H189.579Z" fill="#EBEBEB"/>
<rect x="-0.5" y="0.5" width="118" height="40" transform="matrix(-1 0 0 1 171 312)" fill="#262626"/>
<rect x="-0.5" y="0.5" width="118" height="40" transform="matrix(-1 0 0 1 171 312)" stroke="#5C5C5C"/>
<path d="M65.912 337V328.336H67.28V328.792H67.736V329.704H68.192V330.616H68.648V331.528H69.104V332.44H69.56V333.352H70.016V334.264H70.472V335.176H69.56V334.264H69.104V333.352H68.648V332.44H68.192V331.528H67.736V330.616H67.28V329.704H66.824V337H65.912ZM70.472 336.088V335.176H70.928V328.336H71.84V337H70.928V336.088H70.472ZM74.1258 336.088V335.176H73.6698V334.264H73.2138V331.072H73.6698V330.16H74.1258V329.248H74.5818V328.792H75.4938V328.336H78.2298V328.792H79.1418V329.248H79.5978V330.16H80.0538V331.072H80.5098V334.264H80.0538V335.176H79.5978V336.088H79.1418V336.544H78.2298V337H75.4938V336.544H74.5818V336.088H74.1258ZM79.1418 331.072V330.16H78.6858V329.704H78.2298V329.248H75.4938V329.704H75.0378V330.16H74.5818V331.072H74.1258V334.264H74.5818V335.176H75.0378V335.632H75.4938V336.088H78.2298V335.632H78.6858V335.176H79.1418V334.264H79.5978V331.072H79.1418ZM84.1529 337V329.248H81.4169V328.336H87.8009V329.248H85.0649V337H84.1529ZM89.1737 337V328.336H90.0857V337H89.1737ZM92.3602 336.088V335.176H91.9042V334.264H91.4482V331.072H91.9042V330.16H92.3602V329.248H92.8162V328.792H93.7282V328.336H96.4642V328.792H97.3762V329.248H97.8322V330.16H98.2882V331.072H98.7442V334.264H98.2882V335.176H97.8322V336.088H97.3762V336.544H96.4642V337H93.7282V336.544H92.8162V336.088H92.3602ZM97.3762 331.072V330.16H96.9202V329.704H96.4642V329.248H93.7282V329.704H93.2722V330.16H92.8162V331.072H92.3602V334.264H92.8162V335.176H93.2722V335.632H93.7282V336.088H96.4642V335.632H96.9202V335.176H97.3762V334.264H97.8322V331.072H97.3762ZM100.107 337V328.336H101.475V328.792H101.931V329.704H102.387V330.616H102.843V331.528H103.299V332.44H103.755V333.352H104.211V334.264H104.667V335.176H103.755V334.264H103.299V333.352H102.843V332.44H102.387V331.528H101.931V330.616H101.475V329.704H101.019V337H100.107ZM104.667 336.088V335.176H105.123V328.336H106.035V337H105.123V336.088H104.667ZM114.704 337V329.248H111.968V328.336H118.352V329.248H115.616V337H114.704ZM120.181 336.088V335.176H119.725V334.264H119.269V331.072H119.725V330.16H120.181V329.248H120.637V328.792H121.549V328.336H124.285V328.792H125.197V329.248H125.653V330.16H126.109V331.072H126.565V334.264H126.109V335.176H125.653V336.088H125.197V336.544H124.285V337H121.549V336.544H120.637V336.088H120.181ZM125.197 331.072V330.16H124.741V329.704H124.285V329.248H121.549V329.704H121.093V330.16H120.637V331.072H120.181V334.264H120.637V335.176H121.093V335.632H121.549V336.088H124.285V335.632H124.741V335.176H125.197V334.264H125.653V331.072H125.197ZM128.384 336.088V335.176H127.928V334.264H127.472V331.072H127.928V330.16H128.384V329.248H128.84V328.792H129.752V328.336H132.488V328.792H133.4V329.248H133.856V330.16H134.312V331.072H134.768V334.264H134.312V335.176H133.856V336.088H133.4V336.544H132.488V337H129.752V336.544H128.84V336.088H128.384ZM133.4 331.072V330.16H132.944V329.704H132.488V329.248H129.752V329.704H129.296V330.16H128.84V331.072H128.384V334.264H128.84V335.176H129.296V335.632H129.752V336.088H132.488V335.632H132.944V335.176H133.4V334.264H133.856V331.072H133.4ZM136.131 337V328.336H137.043V336.088H141.603V337H136.131ZM142.975 337V328.336H143.887V332.44H144.343V331.984H144.799V331.528H145.255V331.072H145.711V330.616H146.167V330.16H146.623V329.704H147.079V329.248H147.535V328.792H147.991V328.336H148.903V329.248H148.447V329.704H147.991V330.16H147.535V330.616H147.079V331.072H146.623V331.528H146.167V331.984H145.711V332.896H146.167V333.352H146.623V333.808H147.079V334.264H147.535V334.72H147.991V335.176H148.447V335.632H148.903V337H147.991V336.088H147.535V335.632H147.079V335.176H146.623V334.72H146.167V334.264H145.711V333.808H145.255V333.352H144.343V333.808H143.887V337H142.975ZM150.275 337V328.336H151.187V337H150.275ZM155.286 337V329.248H152.55V328.336H158.934V329.248H156.198V337H155.286Z" fill="#EBEBEB"/>
<rect x="-0.5" y="0.5" width="127" height="40" transform="matrix(-1 0 0 1 585 297)" fill="#262626"/>
<rect x="-0.5" y="0.5" width="127" height="40" transform="matrix(-1 0 0 1 585 297)" stroke="#5C5C5C"/>
<path d="M476.384 319.264V316.072H475.928V315.16H475.472V314.704H475.016V314.248H471.824V321.088H475.016V320.632H475.472V320.176H475.928V319.264H476.384ZM470.912 322V313.336H475.016V313.792H475.928V314.248H476.384V315.16H476.84V316.072H477.296V319.264H476.84V320.176H476.384V321.088H475.928V321.544H475.016V322H470.912ZM479.115 322V313.336H480.027V322H479.115ZM482.302 321.544V320.632H481.846V319.264H482.758V320.632H483.214V321.088H486.406V320.632H486.862V318.808H485.95V318.352H484.582V317.896H483.214V317.44H482.302V316.984H481.846V314.704H482.302V313.792H483.214V313.336H485.95V313.792H486.862V314.248H487.318V315.16H487.774V316.072H486.862V315.16H486.406V314.704H485.95V314.248H483.214V314.704H482.758V316.528H483.214V316.984H485.038V317.44H486.406V317.896H487.318V318.808H487.774V320.632H487.318V321.544H486.406V322H483.214V321.544H482.302ZM490.059 321.088V320.176H489.603V319.264H489.147V316.072H489.603V315.16H490.059V314.248H490.515V313.792H491.427V313.336H494.163V313.792H495.531V314.248H495.987V315.16H496.443V316.528H495.531V315.16H495.075V314.704H494.619V314.248H491.427V314.704H490.971V315.16H490.515V316.072H490.059V319.264H490.515V320.176H490.971V320.632H491.427V321.088H494.619V320.632H495.075V320.176H495.531V318.808H496.443V320.176H495.987V321.088H495.531V321.544H494.163V322H491.427V321.544H490.515V321.088H490.059ZM498.263 321.088V320.176H497.807V319.264H497.351V316.072H497.807V315.16H498.263V314.248H498.719V313.792H499.631V313.336H502.367V313.792H503.279V314.248H503.735V315.16H504.191V316.072H504.647V319.264H504.191V320.176H503.735V321.088H503.279V321.544H502.367V322H499.631V321.544H498.719V321.088H498.263ZM503.279 316.072V315.16H502.823V314.704H502.367V314.248H499.631V314.704H499.175V315.16H498.719V316.072H498.263V319.264H498.719V320.176H499.175V320.632H499.631V321.088H502.367V320.632H502.823V320.176H503.279V319.264H503.735V316.072H503.279ZM506.01 322V313.336H510.114V313.792H511.026V314.248H511.482V314.704H511.938V316.528H511.482V316.984H511.026V317.44H510.114V316.984H510.57V316.528H511.026V315.16H510.57V314.704H510.114V314.248H506.922V317.44H510.114V317.896H511.026V318.352H511.482V318.808H511.938V322H511.026V319.264H510.57V318.808H510.114V318.352H506.922V322H506.01ZM519.239 319.264V316.072H518.783V315.16H518.327V314.704H517.871V314.248H514.679V321.088H517.871V320.632H518.327V320.176H518.783V319.264H519.239ZM513.767 322V313.336H517.871V313.792H518.783V314.248H519.239V315.16H519.695V316.072H520.151V319.264H519.695V320.176H519.239V321.088H518.783V321.544H517.871V322H513.767ZM528.809 322V314.248H526.073V313.336H532.457V314.248H529.721V322H528.809ZM534.286 321.088V320.176H533.83V319.264H533.374V316.072H533.83V315.16H534.286V314.248H534.742V313.792H535.654V313.336H538.39V313.792H539.302V314.248H539.758V315.16H540.214V316.072H540.67V319.264H540.214V320.176H539.758V321.088H539.302V321.544H538.39V322H535.654V321.544H534.742V321.088H534.286ZM539.302 316.072V315.16H538.846V314.704H538.39V314.248H535.654V314.704H535.198V315.16H534.742V316.072H534.286V319.264H534.742V320.176H535.198V320.632H535.654V321.088H538.39V320.632H538.846V320.176H539.302V319.264H539.758V316.072H539.302ZM542.489 321.088V320.176H542.033V319.264H541.577V316.072H542.033V315.16H542.489V314.248H542.945V313.792H543.857V313.336H546.593V313.792H547.505V314.248H547.961V315.16H548.417V316.072H548.873V319.264H548.417V320.176H547.961V321.088H547.505V321.544H546.593V322H543.857V321.544H542.945V321.088H542.489ZM547.505 316.072V315.16H547.049V314.704H546.593V314.248H543.857V314.704H543.401V315.16H542.945V316.072H542.489V319.264H542.945V320.176H543.401V320.632H543.857V321.088H546.593V320.632H547.049V320.176H547.505V319.264H547.961V316.072H547.505ZM550.236 322V313.336H551.148V321.088H555.708V322H550.236ZM557.08 322V313.336H557.992V317.44H558.448V316.984H558.904V316.528H559.36V316.072H559.816V315.616H560.272V315.16H560.728V314.704H561.184V314.248H561.64V313.792H562.096V313.336H563.008V314.248H562.552V314.704H562.096V315.16H561.64V315.616H561.184V316.072H560.728V316.528H560.272V316.984H559.816V317.896H560.272V318.352H560.728V318.808H561.184V319.264H561.64V319.72H562.096V320.176H562.552V320.632H563.008V322H562.096V321.088H561.64V320.632H561.184V320.176H560.728V319.72H560.272V319.264H559.816V318.808H559.36V318.352H558.448V318.808H557.992V322H557.08ZM564.381 322V313.336H565.293V322H564.381ZM569.391 322V314.248H566.655V313.336H573.039V314.248H570.303V322H569.391Z" fill="#EBEBEB"/>
</g>
<defs>
<clipPath id="clip0_191_235">
<rect width="650" height="400" fill="white"/>
</clipPath>
</defs>
</svg>
