<svg width="166" height="48" viewBox="0 0 166 48" fill="none" xmlns="http://www.w3.org/2000/svg">
<g clip-path="url(#clip0_75_1228)">
<mask id="mask0_75_1228" style="mask-type:luminance" maskUnits="userSpaceOnUse" x="0" y="0" width="165" height="48">
<path d="M164.524 0H0V47.8348H164.524V0Z" fill="white"/>
</mask>
<g mask="url(#mask0_75_1228)">
<path d="M21.8228 47.7177C21.3053 47.6671 20.4469 47.5281 19.9292 47.4271C18.8688 47.2122 17.1899 46.6942 17.9095 46.7953C22.2771 47.4777 25.4584 47.3765 28.9424 46.4795C30.5961 46.0624 31.9848 45.5571 33.3733 44.8873C34.2823 44.4577 34.6736 44.243 35.9233 43.4976L36.2768 43.2954L35.898 43.6238C35.3048 44.1546 33.588 45.2664 32.5907 45.7718C29.1824 47.4777 25.6477 48.122 21.8228 47.7177Z" fill="white"/>
<path d="M19.6258 45.0142C15.8009 44.4203 12.2158 42.7903 9.00939 40.1622C7.4062 38.8481 5.82826 37.0159 4.61639 35.045C4.36392 34.6279 4.14932 34.3246 4.14932 34.3752C4.14932 34.7291 5.38642 37.155 6.25746 38.4943C6.93913 39.5557 8.60544 41.59 9.28711 42.1964C10.0824 42.9041 11.6351 44.0917 12.1653 44.4076C12.4809 44.5846 12.7333 44.7615 12.7333 44.7868C12.7333 44.8752 12.3041 44.635 11.3321 44.0033C6.39631 40.8066 2.12956 34.9438 0.677843 29.359C-1.65752 20.4006 2.14218 10.9747 10.5242 4.97289C16.6466 0.588443 24.4101 -1.04151 31.1637 0.664255C37.9299 2.37002 43.8504 7.28514 47.2967 14.0703C48.9503 17.3428 49.7836 20.35 50.1117 24.3428C50.339 27.0594 49.8845 30.2182 48.8241 33.3013C48.3191 34.767 47.2084 37.3067 47.1073 37.2055C47.082 37.1802 47.1956 36.8012 47.3723 36.3589C48.5591 33.3013 49.1397 28.7526 48.8116 25.063C48.1551 17.823 44.1534 11.1768 38.0435 7.17144C36.7812 6.35014 34.4207 5.16242 33.0447 4.65702C28.0835 2.85017 22.5041 2.71117 17.6313 4.27794C16.066 4.77072 13.3645 6.14797 11.9633 7.14617C10.5369 8.16962 10.297 8.4855 11.6225 7.60104C14.7279 5.55412 18.1362 4.34112 21.7593 4.02524C23.1352 3.89889 23.8295 3.91152 25.4832 4.10106C28.9672 4.48012 33.7517 6.28697 36.39 8.23279C38.4727 9.76167 41.2626 12.8952 42.4113 15.0179C42.6133 15.397 42.7144 15.6118 42.626 15.4855C42.5375 15.3591 42.1083 14.7652 41.6918 14.1587C38.7252 9.95119 33.7642 6.5523 28.538 5.14979C27.2884 4.82127 24.4732 4.69492 22.706 4.89707C17.5429 5.50357 13.6296 7.29779 10.3222 10.5956C6.83815 14.0703 5.22232 17.9746 5.07084 23.2434C4.93199 27.9186 5.84088 31.3807 8.1005 34.767C8.97153 36.081 10.7136 37.9004 12.0391 38.8734C12.8217 39.442 15.3843 40.8951 15.3843 40.7561C15.3843 40.7308 15.0435 40.4908 14.6143 40.2253C12.5692 38.9618 10.7136 37.1802 9.38811 35.1713C7.48195 32.2778 6.80026 29.7255 6.78765 25.5052C6.78765 22.9909 7.22947 21.1335 8.37822 18.7453C8.98414 17.4818 10.499 15.0179 10.6757 15.0179C10.7136 15.0179 10.6505 15.1443 10.5495 15.3086C9.22399 17.1786 8.2141 19.5666 7.6713 22.157C7.26735 24.0142 7.2421 27.7165 7.60819 29.4853C8.16362 32.1515 10.1834 35.285 12.7333 37.4455C13.8442 38.3806 13.9957 38.3806 13.1247 37.433C12.6829 36.9528 12.1527 36.3085 11.9507 35.9926C11.5846 35.4493 11.5972 35.4618 12.3041 36.1948C13.6801 37.6477 15.1066 38.709 16.8486 39.5682C18.2499 40.2759 19.4113 40.6676 20.3075 40.7435C20.9892 40.7939 20.9765 40.7939 19.9289 40.5033C15.6494 39.3282 12.0264 36.561 10.297 33.137C9.8678 32.2903 9.28711 30.4962 8.99678 29.1569C8.68119 27.7038 8.68119 24.1913 8.98414 22.915C9.41334 21.1588 9.74156 20.2362 10.4106 18.9349C12.6955 14.4873 16.4952 11.6822 21.3804 10.7978C22.9333 10.5198 23.5264 10.5577 22.201 10.8609C16.3689 12.1624 11.9381 16.5721 10.6757 22.3464C10.3475 23.7995 10.3349 26.4781 10.6378 28.0702C11.3069 31.5829 13.5539 35.1587 16.2553 36.9906C16.9749 37.4836 18.7043 38.3932 18.881 38.3932C18.9441 38.3806 18.7043 38.229 18.3508 38.0522C15.965 36.8138 13.819 34.6026 12.7712 32.3284C12.0264 30.711 11.4584 28.3355 11.5467 27.1479C11.5846 26.6424 11.5594 26.5414 11.4836 26.7689C11.4079 26.9836 11.37 26.693 11.3826 25.821L11.3953 24.5575L11.471 25.5052C11.5467 26.3771 11.5594 26.4024 11.5972 25.821C11.6225 25.3914 11.6603 25.6695 11.7361 26.6424C11.8876 28.841 12.2537 30.4078 12.9101 31.646C14.5638 34.7542 17.2273 37.0034 20.3959 37.9763C21.3804 38.2669 21.7213 38.3047 23.3372 38.3175C25.4832 38.3175 26.4425 38.1026 28.3235 37.193C29.8889 36.4222 30.8609 35.7652 31.896 34.7291C33.3476 33.2886 34.2312 31.747 34.6857 29.8645C34.9507 28.7778 35.1149 26.8573 34.9382 26.971C34.8751 27.0089 34.8246 27.2489 34.8246 27.5016C34.7993 29.3843 33.537 32.1135 32.0221 33.5413C31.2521 34.2742 29.4597 35.5124 29.346 35.3987C29.308 35.3481 29.2702 35.386 29.2702 35.4746C29.2702 35.7018 27.8437 36.321 26.6192 36.6369C25.7355 36.8644 25.3316 36.8897 24.284 36.8265C23.5895 36.7885 22.7944 36.7001 22.5166 36.6244C21.8224 36.4222 20.5473 35.9673 20.5853 35.9167C20.6104 35.9042 21.0776 35.9926 21.6329 36.1314C22.1885 36.2579 22.9836 36.3716 23.4003 36.3842C23.9809 36.3842 24.0945 36.4222 23.9053 36.5106C23.5644 36.6748 26.2658 36.5485 26.9348 36.3716C27.6418 36.182 28.9041 35.7146 28.8536 35.664C28.8285 35.6387 28.5002 35.7271 28.1215 35.8536C27.7428 35.9926 27.2126 36.1314 26.9348 36.182C26.5814 36.2326 26.7203 36.1567 27.3767 35.9293C29.346 35.2344 31.3404 33.9456 32.2116 32.7958C32.7922 32.0378 33.5117 30.4962 33.8273 29.3843C34.206 27.9943 34.2187 25.8463 33.84 24.5828C33.0572 22.0052 30.8229 19.8194 27.9952 18.859C25.1171 17.8862 22.7186 18.3284 20.257 20.2868C18.6285 21.5884 17.5682 23.0666 17.2904 24.4313C17.038 25.6569 17.038 25.9475 17.2904 27.3753C17.5556 28.9169 17.9595 30.0539 18.4896 30.7994C18.8052 31.2543 18.8052 31.2543 18.3508 30.749C17.7828 30.1298 17.3788 29.4602 16.8108 28.1839C16.3184 27.0847 16.3563 27.6028 16.8486 28.841C17.2904 29.9402 17.8459 30.7237 18.7421 31.5576C19.6511 32.3915 20.5853 32.8842 22.3272 33.4782C23.375 33.8319 23.6906 33.8825 24.7888 33.8699C26.7708 33.8572 27.6923 33.4529 29.4975 31.8482C30.52 30.9258 31.1132 30.1551 31.5171 29.2327C31.6687 28.8916 31.7824 28.6894 31.7949 28.7904C31.7949 29.1316 30.9743 30.85 30.4442 31.646C29.6236 32.8464 28.5885 33.794 27.4398 34.3626C26.1647 34.9944 25.2054 35.2218 23.842 35.2218C20.6862 35.2218 17.6439 33.5413 15.7378 30.749C15.1571 29.8898 15.2076 30.1929 15.8514 31.507C16.6088 33.0233 18.0226 34.5395 19.3228 35.2344C20.1561 35.6893 20.3328 35.8789 19.5247 35.4746C17.0758 34.2362 14.9172 31.6333 13.8947 28.7273C12.4683 24.6966 13.516 20.5017 16.7098 17.3681C18.6033 15.4981 20.8251 14.3356 23.4634 13.805L24.6626 13.5649L23.4003 13.527C22.1127 13.4891 20.5473 13.7291 19.6889 14.0829C19.4491 14.184 19.2344 14.2346 19.2092 14.2093C19.0955 14.0956 21.2921 13.3627 22.4913 13.11C23.8673 12.8194 26.2533 12.731 27.7554 12.8952C29.4975 13.0974 31.6813 13.9187 33.2719 14.98C34.206 15.5992 35.5694 16.8753 36.39 17.9241C39.508 21.8537 40.5304 27.3626 39.0408 32.2903C39.003 32.4168 39.1166 32.2525 39.2933 31.9366C40.0634 30.5215 40.6315 27.9312 40.6315 25.8463C40.6315 25.1514 40.6567 24.6081 40.6945 24.646C40.7323 24.684 40.7703 25.4801 40.7703 26.4024C40.7829 28.4745 40.5304 29.9908 39.8739 31.9872C38.1824 37.054 34.7615 41.1731 30.3431 43.4474C29.043 44.117 26.8844 44.7868 25.2938 45.0268C23.7537 45.2542 21.1407 45.2542 19.6258 45.0142ZM25.3316 39.442C25.2054 39.4167 24.9782 39.4167 24.8268 39.442C24.6626 39.4673 24.7637 39.4926 25.0413 39.4926C25.3191 39.5051 25.4452 39.4798 25.3316 39.442ZM27.667 39.1386C28.3235 38.9871 29.0808 38.709 29.4217 38.4943C29.75 38.2922 30.0276 38.1026 30.0276 38.0773C30.0276 38.0522 29.6489 38.2038 29.1819 38.3932C28.4624 38.6965 27.2756 39.0502 26.0511 39.3157C25.8744 39.3535 25.9124 39.3788 26.1647 39.3914C26.3669 39.3914 27.0359 39.2777 27.667 39.1386ZM14.69 24.4818C15.1571 22.3717 16.1165 20.5649 17.7449 18.8086L18.6033 17.8609L17.7828 18.5559C16.3689 19.7435 15.4348 20.9945 14.8667 22.4729C14.4628 23.5089 14.3744 23.9385 14.3113 25.1893C14.2482 26.4402 14.2608 26.4277 14.69 24.4818ZM17.1516 21.525C18.2877 19.4908 20.1939 17.9241 22.605 17.0522C23.3245 16.7869 23.5012 16.6858 23.1478 16.7364C20.7493 17.1154 18.1362 18.998 17.1137 21.1082C16.6971 21.9546 16.2427 23.3068 16.2806 23.5846C16.2806 23.6352 16.4194 23.3068 16.5709 22.8519C16.735 22.397 16.9875 21.8031 17.1516 21.525ZM33.4359 21.2978C32.363 19.4151 31.1765 18.3031 29.1061 17.2291C27.4398 16.3573 26.1144 16.0288 24.4228 16.0414C22.4408 16.054 22.403 16.2309 24.347 16.3067C25.2812 16.3447 26.19 16.4331 26.3669 16.5089C26.5436 16.5721 26.9348 16.7111 27.2504 16.7995C28.0837 17.0396 29.2197 17.5829 30.1539 18.1894C31.2268 18.8718 32.8805 20.5649 33.4359 21.5503C33.6759 21.9674 33.9031 22.2958 33.9284 22.2705C33.9536 22.2454 33.7389 21.8031 33.4359 21.2978ZM34.6479 20.11C34.5468 19.9078 34.2187 19.5288 33.9284 19.2508L33.3856 18.7453L33.9031 19.3266C34.1809 19.6425 34.4837 20.0341 34.5595 20.1858C34.6479 20.3249 34.7362 20.4511 34.774 20.4511C34.7993 20.4511 34.7488 20.2996 34.6479 20.11ZM21.3301 16.3952C21.4688 16.332 22.1 16.1551 22.7438 16.0161C24.044 15.7255 26.4552 15.6623 27.6165 15.8898C28.4244 16.054 28.6391 16.054 28.3866 15.9151C27.9321 15.6497 26.3289 15.4855 24.8393 15.5486C23.6275 15.6118 23.0469 15.7003 22.2641 15.953C21.7087 16.1299 21.1659 16.332 21.0648 16.4078C20.8123 16.5721 21.0145 16.5721 21.3301 16.3952Z" fill="white"/>
<path d="M24.7636 36.4091C24.8772 36.3838 25.0792 36.3838 25.2055 36.4091C25.3192 36.447 25.2181 36.4722 24.9783 36.4722C24.7383 36.4722 24.6375 36.447 24.7636 36.4091Z" fill="white"/>
<path d="M11.7106 24.7213C11.7611 24.3676 11.7864 24.3549 11.8242 24.6076C11.8495 24.7719 11.8242 24.9488 11.7611 25.0119C11.6854 25.0878 11.6728 24.9741 11.7106 24.7213Z" fill="white"/>
<path d="M11.484 24.0651C11.4588 23.0291 12.6202 20.1103 13.5796 18.8468C14.3496 17.8107 15.0439 17.0525 15.3847 16.8251C15.5867 16.6861 15.511 16.8377 15.1323 17.2547C14.8167 17.5959 14.4001 18.1392 14.1855 18.4424C13.9835 18.7456 13.7058 19.0995 13.5543 19.2258C13.4155 19.3521 13.3776 19.428 13.466 19.3774C13.6048 19.3017 13.6174 19.3395 13.5038 19.5542C13.4155 19.6933 13.3018 19.8197 13.2261 19.8197C13.1504 19.8197 13.1377 19.8829 13.1756 19.946C13.2135 20.0219 13.1882 20.0725 13.1125 20.0725C13.0368 20.0725 13.0115 20.1356 13.0494 20.1987C13.0872 20.2746 13.062 20.325 12.9863 20.325C12.8979 20.325 12.8727 20.4136 12.9105 20.5272C12.961 20.6536 12.9358 20.6915 12.8348 20.6283C12.7338 20.5652 12.7212 20.603 12.7717 20.7546C12.8222 20.8683 12.8095 20.9442 12.7464 20.9064C12.5949 20.8052 12.0269 22.2583 11.7239 23.4712C11.585 24.0526 11.484 24.28 11.484 24.0651Z" fill="white"/>
<path d="M40.3917 23.3953C40.1392 22.2076 39.3944 20.11 38.8516 19.0361C37.1978 15.7383 35.2285 13.4639 32.1737 11.3286L31.8582 11.1138L32.2368 11.2654C35.5694 12.6553 38.4982 15.991 39.8236 19.9206C40.1897 20.9945 40.7703 24.1155 40.6062 24.1155C40.5684 24.1155 40.48 23.787 40.3917 23.3953Z" fill="white"/>
<path d="M74.0142 36.3604C72.3616 36.3604 70.945 35.9912 69.7646 35.2527C68.5842 34.5143 67.6791 33.51 67.0496 32.2398C66.4201 30.9697 66.1052 29.537 66.1052 27.942C66.1052 26.3271 66.4298 24.8847 67.0791 23.6146C67.7381 22.3444 68.6629 21.3449 69.8531 20.6164C71.0434 19.8877 72.4501 19.5235 74.0732 19.5235C75.9522 19.5235 77.526 20.0009 78.795 20.9561C80.0738 21.9013 80.8903 23.1961 81.2444 24.8404L77.2309 25.9038C76.9948 25.0767 76.5817 24.4317 75.9914 23.969C75.411 23.5062 74.752 23.2749 74.0142 23.2749C73.1682 23.2749 72.4746 23.4817 71.9337 23.8952C71.3927 24.2988 70.9943 24.8552 70.7385 25.5641C70.4826 26.2631 70.3548 27.0558 70.3548 27.942C70.3548 29.3303 70.6597 30.4575 71.2697 31.3241C71.8894 32.1807 72.8043 32.609 74.0142 32.609C74.9193 32.609 75.6078 32.4023 76.08 31.9887C76.5522 31.5752 76.9063 30.9844 77.1424 30.2164L81.2444 31.073C80.792 32.7665 79.9362 34.0712 78.677 34.9869C77.4178 35.9026 75.8636 36.3604 74.0142 36.3604ZM87.449 36.3604C86.3078 36.3604 85.3389 36.1437 84.5421 35.7106C83.7551 35.2675 83.1551 34.6815 82.7419 33.953C82.3386 33.2146 82.137 32.4023 82.137 31.5161C82.137 30.7777 82.25 30.1031 82.4763 29.4927C82.7025 28.8822 83.0666 28.3455 83.5682 27.8829C84.0797 27.4103 84.7634 27.0163 85.6193 26.7014C86.2095 26.4846 86.9128 26.2926 87.7293 26.1253C88.5457 25.9579 89.4705 25.8004 90.5034 25.6527C91.5362 25.4951 92.6724 25.3228 93.9119 25.1358L92.4658 25.9333C92.4658 24.9881 92.2395 24.294 91.7871 23.8509C91.3345 23.4078 90.5771 23.1863 89.5147 23.1863C88.9245 23.1863 88.3096 23.329 87.6703 23.6146C87.0308 23.9 86.5832 24.4071 86.3275 25.1358L82.6977 23.9838C83.1009 22.6644 83.8584 21.5912 84.97 20.7641C86.0815 19.937 87.5965 19.5235 89.5147 19.5235C90.9213 19.5235 92.1707 19.7401 93.2626 20.1733C94.3546 20.6065 95.1809 21.3549 95.7416 22.4183C96.0562 23.009 96.2433 23.5998 96.3023 24.1906C96.3613 24.7813 96.3908 25.441 96.3908 26.1697V35.9173H92.879V32.6386L93.3807 33.318C92.6034 34.3911 91.7624 35.1689 90.8575 35.6515C89.9622 36.1241 88.826 36.3604 87.449 36.3604ZM88.3048 33.1998C89.0426 33.1998 89.6623 33.0717 90.164 32.8158C90.6754 32.55 91.0788 32.2496 91.3739 31.9149C91.6788 31.58 91.8854 31.2994 91.9937 31.073C92.2002 30.6397 92.3183 30.1376 92.3478 29.5666C92.3871 28.9856 92.4068 28.5032 92.4068 28.1192L93.5873 28.4146C92.3969 28.6114 91.433 28.7788 90.6952 28.9167C89.9574 29.0447 89.3622 29.1628 88.9098 29.2712C88.4571 29.3794 88.0587 29.4975 87.7146 29.6257C87.3209 29.7831 87.0013 29.9554 86.7554 30.1426C86.5194 30.3198 86.3423 30.5166 86.2242 30.7334C86.116 30.9499 86.0619 31.1912 86.0619 31.457C86.0619 31.8213 86.1505 32.1364 86.3275 32.4023C86.5144 32.6581 86.775 32.8551 87.1096 32.993C87.444 33.1308 87.8424 33.1998 88.3048 33.1998ZM107.163 36.3604C105.579 36.3604 104.256 35.9912 103.193 35.2527C102.131 34.5143 101.329 33.51 100.788 32.2398C100.257 30.9697 99.9914 29.537 99.9914 27.942C99.9914 26.3469 100.257 24.9143 100.788 23.6441C101.319 22.374 102.101 21.3697 103.134 20.6312C104.167 19.8927 105.441 19.5235 106.956 19.5235C108.481 19.5235 109.809 19.8877 110.94 20.6164C112.071 21.3449 112.947 22.3444 113.566 23.6146C114.196 24.8748 114.511 26.3174 114.511 27.942C114.511 29.537 114.201 30.9697 113.581 32.2398C112.971 33.51 112.115 34.5143 111.014 35.2527C109.912 35.9912 108.628 36.3604 107.163 36.3604ZM99.3126 43.0066V19.9666H102.854V30.8958H103.356V43.0066H99.3126ZM106.513 32.7863C107.379 32.7863 108.087 32.5695 108.638 32.1364C109.189 31.7031 109.597 31.1222 109.863 30.3937C110.128 29.6552 110.261 28.8379 110.261 27.942C110.261 27.0558 110.123 26.2483 109.848 25.5198C109.573 24.7814 109.145 24.1954 108.564 23.7623C107.994 23.3192 107.261 23.0977 106.366 23.0977C105.53 23.0977 104.851 23.2994 104.329 23.7032C103.818 24.1068 103.444 24.673 103.208 25.4017C102.972 26.1301 102.854 26.977 102.854 27.942C102.854 28.9068 102.972 29.7536 103.208 30.4823C103.444 31.2108 103.828 31.777 104.359 32.1807C104.9 32.5843 105.618 32.7863 106.513 32.7863ZM116.872 35.9173V19.9666H120.414V23.8657L120.03 23.3635C120.237 22.8121 120.512 22.3099 120.856 21.857C121.201 21.404 121.624 21.03 122.125 20.7346C122.509 20.4983 122.927 20.3161 123.38 20.1881C123.832 20.0502 124.299 19.9666 124.781 19.937C125.263 19.8975 125.745 19.9075 126.227 19.9666V23.718C125.785 23.5801 125.268 23.5357 124.678 23.585C124.098 23.6244 123.571 23.7573 123.099 23.9838C122.627 24.2004 122.229 24.4908 121.904 24.8552C121.579 25.2097 121.333 25.633 121.166 26.1253C120.999 26.6077 120.915 27.1542 120.915 27.7647V35.9173H116.872ZM128.444 17.7512V14.2065H132.457V17.7512H128.444ZM128.444 35.9173V19.9666H132.457V35.9173H128.444ZM136.645 35.9173V31.9001H140.659V35.9173H136.645ZM144.858 17.7512V14.2065H148.872V17.7512H144.858ZM144.858 35.9173V19.9666H148.872V35.9173H144.858ZM161.972 35.9173C160.87 36.1241 159.788 36.2127 158.726 36.1832C157.673 36.1634 156.729 35.9812 155.893 35.6367C155.066 35.2823 154.437 34.7161 154.004 33.9383C153.61 33.2096 153.404 32.4711 153.384 31.7229C153.364 30.9647 153.355 30.1081 153.355 29.153V15.5358H157.368V28.9167C157.368 29.537 157.373 30.0983 157.383 30.6004C157.402 31.0926 157.506 31.4866 157.693 31.782C158.047 32.3432 158.612 32.6484 159.39 32.6977C160.167 32.7468 161.028 32.7074 161.972 32.5795V35.9173ZM150.64 23.0681V19.9666H161.972V23.0681H150.64Z" fill="#F7F7F7"/>
</g>
</g>
<defs>
<clipPath id="clip0_75_1228">
<rect width="166" height="48" fill="white"/>
</clipPath>
</defs>
</svg>
