<svg width="153" height="24" viewBox="0 0 153 24" fill="none" xmlns="http://www.w3.org/2000/svg">
<g clip-path="url(#clip0_77_1518)">
<path d="M7.24823 23.776C6.14129 23.776 5.1408 23.5946 4.24675 23.232C3.37398 22.8693 2.6183 22.3573 1.97969 21.696C1.34108 21.0346 0.85148 20.2346 0.510887 19.296C0.170295 18.3573 0 17.3226 0 16.192V13.728C0 12.2133 0.298017 10.8906 0.894054 9.75998C1.49009 8.60798 2.33092 7.72264 3.41656 7.10398C4.50219 6.464 5.77941 6.144 7.24823 6.144C8.48287 6.144 9.57915 6.38933 10.5371 6.87998C11.5163 7.34931 12.24 8.01064 12.7083 8.86398H12.8999V0.16H17.3702V23.488H13.315L12.8999 21.024H12.7083C12.24 21.8986 11.5163 22.5813 10.5371 23.072C9.57915 23.5413 8.48287 23.776 7.24823 23.776ZM8.81282 20.448C9.74945 20.448 10.569 20.2346 11.2715 19.808C11.9952 19.3813 12.538 18.784 12.8999 18.016V11.872C12.538 11.1253 11.9952 10.5386 11.2715 10.112C10.569 9.68531 9.74945 9.47198 8.81282 9.47198C7.96134 9.47198 7.22694 9.63198 6.6096 9.95198C5.99228 10.2506 5.50268 10.688 5.1408 11.264C4.80021 11.8186 4.62991 12.512 4.62991 13.344V16.576C4.62991 17.3653 4.80021 18.0586 5.1408 18.656C5.50268 19.2533 5.99228 19.7013 6.6096 20C7.22694 20.2986 7.96134 20.448 8.81282 20.448ZM27.8114 23.808C26.4704 23.808 25.2463 23.6266 24.1394 23.264C23.0538 22.88 22.1278 22.3466 21.3615 21.664C20.5952 20.96 19.9991 20.1173 19.5734 19.136C19.1689 18.1546 18.9667 17.0453 18.9667 15.808V14.08C18.9667 12.4373 19.3286 11.0293 20.0523 9.85598C20.7761 8.66131 21.7979 7.74398 23.1177 7.10398C24.4587 6.44266 26.0233 6.112 27.8114 6.112C29.1099 6.112 30.2807 6.304 31.3238 6.68798C32.3881 7.05064 33.2928 7.57331 34.0379 8.25598C34.7829 8.93864 35.3577 9.77064 35.7621 10.752C36.1666 11.712 36.3688 12.7893 36.3688 13.984V16.064H22.8303V13.376H32.2498L31.8347 13.888V12.768C31.8347 12.0426 31.6644 11.424 31.3238 10.912C31.0045 10.3786 30.5468 9.97331 29.9508 9.69598C29.3547 9.39731 28.6416 9.24798 27.8114 9.24798C26.9387 9.24798 26.183 9.40798 25.5444 9.72798C24.9058 10.0266 24.4162 10.4533 24.0756 11.008C23.735 11.5413 23.5647 12.1706 23.5647 12.896V16.992C23.5647 17.7173 23.735 18.3573 24.0756 18.912C24.4374 19.4666 24.9377 19.8933 25.5763 20.192C26.2362 20.4906 27.0025 20.64 27.8753 20.64C28.9396 20.64 29.8124 20.4373 30.4936 20.032C31.1961 19.6053 31.6431 19.0186 31.8347 18.272H36.2091C36.0176 19.424 35.5386 20.416 34.7723 21.248C34.0059 22.0586 33.0267 22.688 31.8347 23.136C30.6426 23.584 29.3015 23.808 27.8114 23.808ZM42.6007 23.488L35.9911 6.432H40.5891L44.7081 17.984L45.2509 19.968H45.4744L45.9853 17.984L50.1363 6.432H54.7342L48.1566 23.488H42.6007ZM61.5242 23.488C60.5663 23.488 59.8212 23.2533 59.289 22.784C58.7569 22.3146 58.4908 21.6 58.4908 20.64V1.696H62.9291V19.936H66.5053V23.488H61.5242ZM55.617 9.79198V6.432H66.3776V9.79198H55.617ZM68.119 23.488V6.432H72.5573V23.488H68.119ZM68.119 4.096V0H72.5893V4.096H68.119ZM74.8005 23.488V6.432H78.7918L79.2388 8.86398H79.4304C80.069 7.98931 80.8779 7.31731 81.8571 6.84798C82.8363 6.37866 83.9006 6.144 85.0501 6.144C86.4125 6.144 87.5726 6.42133 88.5305 6.97598C89.5097 7.53064 90.2228 8.34131 90.6699 9.40798H90.9253C91.5426 8.38398 92.3941 7.58398 93.4798 7.00798C94.5654 6.432 95.7681 6.144 97.0879 6.144C98.4077 6.144 99.5253 6.4 100.441 6.91198C101.377 7.40264 102.08 8.12798 102.548 9.08798C103.038 10.048 103.282 11.2213 103.282 12.608V23.488H98.8441V13.152C98.8441 12.3626 98.7057 11.7013 98.429 11.168C98.1522 10.6346 97.7584 10.24 97.2475 9.98398C96.7579 9.70664 96.1406 9.56798 95.3956 9.56798C94.7783 9.56798 94.2035 9.67464 93.6713 9.88798C93.1605 10.1013 92.6921 10.4 92.2664 10.784C91.862 11.1466 91.5214 11.584 91.2446 12.096C91.2446 12.2453 91.2446 12.3946 91.2446 12.544C91.2446 12.6933 91.2446 12.8426 91.2446 12.992V23.488H86.8382V13.152C86.8382 12.3626 86.6999 11.7013 86.4231 11.168C86.1464 10.6346 85.7526 10.24 85.2417 9.98398C84.7308 9.70664 84.1135 9.56798 83.3897 9.56798C82.4744 9.56798 81.6549 9.80264 80.9311 10.272C80.2286 10.72 79.6645 11.3386 79.2388 12.128V23.488H74.8005ZM112.166 23.776C111.038 23.776 110.027 23.5946 109.133 23.232C108.26 22.8693 107.505 22.3573 106.866 21.696C106.227 21.0346 105.738 20.2346 105.397 19.296C105.057 18.3573 104.886 17.3226 104.886 16.192V13.728C104.886 12.2133 105.184 10.8906 105.78 9.75998C106.376 8.60798 107.217 7.72264 108.303 7.10398C109.388 6.464 110.676 6.144 112.166 6.144C113.38 6.144 114.465 6.38933 115.423 6.87998C116.402 7.34931 117.126 8.01064 117.595 8.86398H117.786L118.201 6.432H122.256V23.488H118.201L117.786 21.024H117.595C117.126 21.8986 116.402 22.5813 115.423 23.072C114.465 23.5413 113.38 23.776 112.166 23.776ZM113.699 20.448C114.636 20.448 115.455 20.2346 116.158 19.808C116.881 19.3813 117.424 18.784 117.786 18.016V11.872C117.424 11.1253 116.881 10.5386 116.158 10.112C115.455 9.68531 114.636 9.47198 113.699 9.47198C112.848 9.47198 112.113 9.63198 111.496 9.95198C110.879 10.2506 110.389 10.688 110.027 11.264C109.686 11.8186 109.516 12.512 109.516 13.344V16.576C109.516 17.3653 109.686 18.0586 110.027 18.656C110.389 19.2533 110.879 19.7013 111.496 20C112.113 20.2986 112.848 20.448 113.699 20.448ZM129.505 23.488C128.547 23.488 127.802 23.2533 127.269 22.784C126.737 22.3146 126.471 21.6 126.471 20.64V1.696H130.91V19.936H134.486V23.488H129.505ZM123.597 9.79198V6.432H134.358V9.79198H123.597ZM143.994 23.808C142.653 23.808 141.429 23.6266 140.322 23.264C139.237 22.88 138.311 22.3466 137.544 21.664C136.778 20.96 136.182 20.1173 135.756 19.136C135.352 18.1546 135.15 17.0453 135.15 15.808V14.08C135.15 12.4373 135.512 11.0293 136.235 9.85598C136.959 8.66131 137.981 7.74398 139.301 7.10398C140.642 6.44266 142.206 6.112 143.994 6.112C145.293 6.112 146.464 6.304 147.507 6.68798C148.571 7.05064 149.476 7.57331 150.221 8.25598C150.966 8.93864 151.541 9.77064 151.945 10.752C152.35 11.712 152.552 12.7893 152.552 13.984V16.064H139.013V13.376H148.433L148.018 13.888V12.768C148.018 12.0426 147.847 11.424 147.507 10.912C147.187 10.3786 146.73 9.97331 146.134 9.69598C145.538 9.39731 144.825 9.24798 143.994 9.24798C143.122 9.24798 142.366 9.40798 141.727 9.72798C141.089 10.0266 140.599 10.4533 140.258 11.008C139.918 11.5413 139.748 12.1706 139.748 12.896V16.992C139.748 17.7173 139.918 18.3573 140.258 18.912C140.62 19.4666 141.121 19.8933 141.759 20.192C142.419 20.4906 143.185 20.64 144.058 20.64C145.123 20.64 145.995 20.4373 146.677 20.032C147.379 19.6053 147.826 19.0186 148.018 18.272H152.392C152.2 19.424 151.722 20.416 150.955 21.248C150.189 22.0586 149.21 22.688 148.018 23.136C146.826 23.584 145.484 23.808 143.994 23.808Z" fill="#F7F7F7"/>
</g>
<defs>
<clipPath id="clip0_77_1518">
<rect width="153" height="24" fill="white"/>
</clipPath>
</defs>
</svg>
