<svg width="119" height="48" viewBox="0 0 119 48" fill="none" xmlns="http://www.w3.org/2000/svg">
<path d="M110.002 48C107.325 48 104.527 47.0409 102.37 45.3226C101.291 44.4434 101.091 42.805 102.01 41.726C102.889 40.6471 104.527 40.4473 105.606 41.3664C107.605 43.0048 110.402 43.2446 111.88 42.5253C112.6 42.1656 112.919 41.6461 112.919 40.767C112.919 38.9687 111.721 37.4901 109.603 35.0524C108.484 33.7737 107.205 32.2951 106.046 30.4968C102.25 39.0486 97.6541 47.5205 91.2602 47.5205C91.2202 47.5205 91.1803 47.5205 91.1803 47.5205C87.4638 47.4805 85.4658 45.6823 84.4268 44.1637C84.147 43.7641 83.7874 43.1647 83.5076 42.3654C81.3097 45.3226 78.3526 47.4406 74.1566 47.4805C74.1166 47.4805 74.0767 47.4805 74.0367 47.4805C70.8398 47.4805 69.0015 45.8821 68.0425 44.5633C67.2832 43.5243 66.7637 42.2455 66.444 40.767C64.326 43.4044 61.5287 45.5224 57.7723 46.6813C52.5373 48.3197 49.1406 47.4406 47.0226 46.0019C44.8647 47.0409 42.6668 47.6004 40.5488 47.4805C37.8314 47.3606 35.7934 46.4415 34.5146 44.8031C32.2368 41.8859 33.076 37.8498 33.8752 33.9335C34.3148 31.6957 34.9542 28.6186 34.3148 27.6995C34.115 27.4198 33.5555 27.2999 33.1559 27.22C29.9989 26.8203 26.9219 32.9345 24.0846 45.4824C23.7649 46.8411 22.4862 47.6803 21.1275 47.4406C19.7688 47.2008 18.8496 45.922 19.0494 44.5633C19.0494 44.5234 19.2892 43.0048 19.6089 40.727C16.7317 45.4824 13.5747 48.1199 8.45961 47.4406C5.46248 47.0409 3.90397 45.4425 3.10474 44.1637C0.946811 40.727 1.34643 35.2922 4.42348 25.9412C4.86306 24.5825 6.30168 23.8632 7.66037 24.3028C9.01907 24.7423 9.73838 26.181 9.2988 27.5397C6.30167 36.6909 6.66133 40.1675 7.46056 41.4463C7.66037 41.806 8.05999 42.2056 9.17892 42.3654C13.1751 42.8849 15.0533 39.2884 19.8886 28.8184C20.608 27.2999 21.3273 25.6615 22.1665 23.9431C22.7259 22.7842 24.0047 22.2248 25.2035 22.5844C26.2026 22.8641 26.8819 23.7433 27.0018 24.7423C28.9999 22.6643 31.2378 21.8651 33.8752 22.1848C35.9532 22.4645 37.5117 23.3037 38.5507 24.7423C40.5089 27.4997 39.7496 31.2961 38.9903 34.9725C38.5108 37.3702 37.8314 40.6471 38.6706 41.6861C39.0702 42.2056 40.2291 42.3654 40.8685 42.3654C41.7876 42.4054 42.7867 42.2056 43.7857 41.806C42.507 38.649 42.5869 34.493 44.1853 30.4569C46.1435 25.5016 49.74 22.3846 53.7761 22.1049C57.6924 21.8251 59.5306 23.3836 60.3698 24.7423C61.8484 27.14 61.3689 30.5767 58.9712 34.6528C57.3727 37.3702 55.0549 40.1276 52.4174 42.4054C53.6962 42.4454 55.0949 42.1257 56.2937 41.766C62.5277 39.8478 65.2052 34.2532 67.6428 25.9811C68.2423 23.3437 69.0415 20.6263 69.8807 17.789C70.6 15.3114 71.2794 13.1135 72.5182 9.59686C72.5981 9.31713 72.678 9.11732 72.7579 8.91751C72.9577 8.31809 73.0776 8.03836 73.3174 7.23912C73.717 5.88043 75.0757 5.12116 76.4344 5.44085C77.7931 5.8005 78.5923 7.1592 78.2727 8.5179C78.1128 9.11732 77.7931 10.1164 77.1537 12.0745C76.1547 14.9917 75.2755 17.7091 74.5562 20.2267C74.3564 20.9859 74.1566 21.7452 73.9168 22.6244C73.5572 24.023 73.1975 25.3817 72.7979 26.7804C70.9597 34.493 70.7599 39.4482 72.2784 41.5262C72.5581 41.9259 72.9977 42.3255 74.1166 42.3255H74.1566C79.2317 42.2855 81.7094 35.9316 83.9872 28.8983C84.3468 27.7794 84.7065 26.7005 85.0262 25.7414C85.5057 24.4226 86.9843 23.7433 88.303 24.2228C89.6218 24.7024 90.3011 26.181 89.8216 27.4997C87.6636 33.414 87.2241 39.0886 88.7026 41.2065C89.0623 41.726 89.6617 42.3255 91.3001 42.3255C91.3001 42.3255 91.3002 42.3255 91.3401 42.3255C94.0175 42.3255 97.6541 37.0505 102.17 26.6205C103.648 23.2238 104.208 21.945 106.166 22.0249C107.245 22.0649 108.204 22.7842 108.564 23.8232C109.683 27.14 111.681 29.4179 113.559 31.6157C115.797 34.2133 118.114 36.8907 118.114 40.687C118.114 43.5243 116.676 45.8821 114.158 47.0809C112.839 47.7203 111.441 48 110.002 48ZM54.6553 27.22C54.4955 27.22 54.2956 27.22 54.0958 27.2599C52.1377 27.4198 50.0997 29.4179 48.9008 32.415C47.9817 34.8127 47.7419 37.3303 48.2215 39.2085C50.6991 37.2503 53.0169 34.6528 54.4955 32.1352C56.054 29.4578 56.1339 27.8593 55.9341 27.4997C55.9341 27.4198 55.6144 27.22 54.6553 27.22Z" fill="white"/>
<path d="M9.8184 11.555C12.296 10.1963 13.9744 12.634 13.8146 14.8319C13.6547 16.6701 13.0553 20.8661 11.1771 21.7852C10.1381 22.2648 8.7794 21.8252 7.82032 21.2657C5.42262 19.7871 7.78036 12.634 9.8184 11.555Z" fill="white"/>
<path d="M90.8206 11.635C93.3782 10.3962 94.9367 12.8738 94.6569 15.0717C94.4172 16.8699 93.6179 21.0659 91.7398 21.9051C90.6608 22.3447 89.3421 21.8252 88.4229 21.2258C86.0652 19.6673 88.7426 12.634 90.8206 11.635Z" fill="white"/>
<path d="M41.0285 47.5204C40.8687 47.5204 40.7088 47.5204 40.549 47.5204C40.0695 47.4805 39.5899 47.4405 39.1503 47.3606C37.7517 47.1208 36.7926 45.8021 37.0324 44.4034C37.2721 43.0048 38.5909 42.0457 39.9895 42.2854C40.2293 42.3254 40.509 42.3654 40.7888 42.3654C43.3063 42.4853 46.7431 40.7269 49.9799 37.6899C52.9771 34.8526 55.3748 31.296 55.9342 28.8184C56.2539 27.4197 57.6126 26.5805 59.0113 26.8602C60.4099 27.1799 61.2491 28.5386 60.9694 29.9373C59.4509 36.7308 49.6203 47.5204 41.0285 47.5204Z" fill="white"/>
<path d="M52.6175 47.5603C48.8611 47.5603 46.6632 45.9618 45.4244 44.6031C43.3464 42.2853 42.5072 38.8486 42.9867 34.9324C43.1466 33.5337 44.4653 32.5347 45.864 32.6945C47.2626 32.8544 48.2617 34.1731 48.1018 35.5718C47.7821 37.9695 48.2217 40.0075 49.2607 41.1664C50.02 42.0456 51.1389 42.4452 52.6974 42.4052C52.6974 42.4052 52.6974 42.4052 52.7374 42.4052C54.136 42.4052 55.2949 43.5241 55.2949 44.9228C55.2949 46.3215 54.176 47.4803 52.7773 47.5203C52.6974 47.5603 52.6575 47.5603 52.6175 47.5603Z" fill="white"/>
<path d="M57.053 46.8011C55.974 46.8011 54.935 46.0818 54.6153 45.0028C54.1758 43.6441 54.935 42.2055 56.2937 41.8059C63.6067 39.5281 66.0444 32.2551 68.9216 21.3855C70.0805 16.9897 70.7598 14.6719 72.5182 9.63676C72.9977 8.31803 74.4363 7.59872 75.795 8.07826C77.1138 8.5578 77.8331 9.99642 77.3535 11.3551C75.6352 16.2304 74.9958 18.4683 73.8769 22.7042C71.3193 32.4149 68.4021 43.4044 57.8123 46.7212C57.5325 46.7612 57.2928 46.8011 57.053 46.8011Z" fill="white"/>
<path d="M9.97815 47.5203C9.49861 47.5203 8.9791 47.4803 8.41964 47.4004C7.02098 47.2006 6.02194 45.9218 6.22175 44.5231C6.42156 43.1245 7.70033 42.1254 9.09899 42.3252C13.0952 42.8447 14.9734 39.2482 19.8087 28.7782C20.528 27.2597 21.2473 25.6213 22.0865 23.9029C22.686 22.6241 24.2045 22.0647 25.4833 22.6641C26.762 23.2635 27.3215 24.7821 26.7221 26.0608C25.9229 27.7792 25.1636 29.3777 24.4842 30.8962C19.9286 40.7667 16.8516 47.5203 9.97815 47.5203Z" fill="white"/>
<path d="M74.0368 47.4806C71.7989 47.4806 69.9207 46.6814 68.5221 45.2028C66.4041 42.885 65.6848 39.0487 66.2842 33.4541C67.1234 25.5416 70.4402 15.751 72.2385 10.4761C72.2785 10.3562 72.3184 10.1964 72.3584 10.0765C72.3984 9.91663 72.3984 9.79675 72.4783 9.6369C72.5582 9.35717 72.6381 9.15736 72.7181 8.95755C72.9179 8.35813 73.0378 8.0784 73.2775 7.27916C73.6771 5.92047 75.0358 5.16119 76.3945 5.48089C77.7532 5.84054 78.5525 7.19924 78.2328 8.55794C78.0729 9.19732 77.7532 10.1564 77.1138 12.1145C75.3955 17.1897 72.1986 26.6206 71.3993 33.9736C70.8399 39.4083 71.8789 41.2466 72.3584 41.7661C72.5982 42.0458 73.0378 42.3655 74.0368 42.3655H74.0768C79.1519 42.3256 81.6295 35.9716 83.9073 28.9384C84.267 27.8195 84.6266 26.7405 84.9463 25.7814C85.4259 24.4627 86.9045 23.7833 88.2232 24.2629C89.5419 24.7424 90.2213 26.221 89.7417 27.5397C89.422 28.3789 89.1023 29.4179 88.7427 30.4969C86.5848 37.2105 83.3079 47.4007 74.1167 47.4806C74.1167 47.4806 74.0768 47.4806 74.0368 47.4806Z" fill="white"/>
<path d="M26.922 25.3417C25.8431 33.2142 24.1247 45.1228 24.0848 45.2427C23.885 46.5214 22.806 47.4405 21.5672 47.4405C21.4473 47.4405 21.3274 47.4405 21.2075 47.4006C19.8089 47.2008 24.7641 36.0115 19.0496 44.4834C18.7699 40.4073 23.2056 32.6148 21.8469 24.5825C21.8469 22.9041 23.3255 22.1848 24.7242 22.3846C26.1628 22.6643 27.1219 23.9431 26.922 25.3417Z" fill="white"/>
<path d="M68.8817 36.2913C68.8017 36.2913 68.6818 36.2913 68.6019 36.2913C67.2033 36.1315 66.1643 34.8927 66.3241 33.4541C67.1633 25.5017 70.4801 15.751 72.2784 10.4761C72.3184 10.3562 72.3583 10.1964 72.3983 10.0765C72.4382 9.91663 72.4382 9.79675 72.5182 9.6369C72.5981 9.35717 72.678 9.15736 72.7579 8.95755C72.9577 8.35813 73.0776 8.03843 73.3174 7.27916C73.717 5.92047 75.0757 5.16119 76.4344 5.48089C77.7931 5.84054 78.5923 7.19924 78.2726 8.55794C78.1128 9.15736 77.7931 10.1564 77.1537 12.0746C75.4354 17.1497 72.2384 26.5806 71.4392 33.9336C71.2794 35.2923 70.1604 36.2913 68.8817 36.2913Z" fill="white"/>
<path d="M74.1166 47.4803C72.718 47.4803 71.5591 46.3614 71.5591 44.9228C71.5591 43.5241 72.678 42.3652 74.1166 42.3253C79.1918 42.2853 81.6694 35.9314 83.9472 28.8981C84.3069 27.7792 84.6665 26.7002 84.9862 25.7412C85.4657 24.4224 86.9443 23.7431 88.2631 24.2226C89.5818 24.7022 90.2611 26.1807 89.7816 27.4995C89.4619 28.3387 89.1422 29.3777 88.7826 30.4566C86.6246 37.2501 83.3478 47.4004 74.1166 47.4803Z" fill="white"/>
<path d="M21.5669 47.4803C21.3671 47.4803 21.1673 47.4403 21.0075 47.4003C19.6088 47.0807 18.7696 45.722 19.0893 44.3233C22.8857 27.6992 27.1616 21.2654 33.8352 22.1446C35.2338 22.3444 36.2329 23.6232 36.033 25.0218C35.8332 26.4205 34.5545 27.4195 33.1558 27.2197C29.9988 26.8201 26.9218 32.9342 24.0845 45.4822C23.8048 46.681 22.7658 47.4803 21.5669 47.4803Z" fill="white"/>
<path d="M91.2204 47.5203C87.464 47.4803 85.4659 45.6821 84.4269 44.1635C80.7904 38.8886 83.5877 29.5375 84.9464 25.7811C85.426 24.4624 86.9046 23.7431 88.2233 24.2626C89.542 24.7421 90.2613 26.2207 89.7418 27.5395C87.5839 33.4538 87.1443 39.1283 88.6229 41.2463C88.9826 41.7658 89.582 42.3652 91.2204 42.3652C92.6191 42.3652 93.778 43.5641 93.738 44.9627C93.778 46.4014 92.6191 47.5203 91.2204 47.5203Z" fill="white"/>
<path d="M67.2432 21.1458C66.0443 21.1458 64.6856 21.1059 63.0072 21.0659C61.6086 21.0259 60.4896 19.8671 60.5296 18.4284C60.5696 17.0298 61.7684 15.9109 63.1671 15.9508C70.0405 16.1107 71.2793 15.9908 78.2726 15.1116L79.7512 14.9118C81.1498 14.752 82.4286 15.751 82.5884 17.1497C82.7483 18.5483 81.7493 19.8271 80.3506 19.9869L78.872 20.1868C73.3973 20.9061 71.2793 21.1458 67.2432 21.1458Z" fill="white"/>
<path d="M10.2981 8.71768C10.1383 8.71768 9.97842 8.5978 9.8985 8.43795L9.81858 8.23814C7.62069 1.76435 8.30003 0.765307 8.49984 0.445614C8.65969 0.205844 8.89946 0.0459965 9.21915 0.0060348C9.65873 -0.0339269 10.0583 0.125921 10.378 0.445614C11.497 1.6045 11.1773 5.00125 10.7777 7.83852C10.7377 8.07829 10.7377 8.23814 10.6977 8.31806C10.6977 8.51787 10.5778 8.67772 10.418 8.71768C10.378 8.71768 10.3381 8.71768 10.2981 8.71768Z" fill="white"/>
<path d="M5.70239 9.91661C5.62247 9.91661 5.54254 9.87665 5.46262 9.83669C5.42266 9.79673 5.34274 9.75677 5.22285 9.67684C-0.211937 5.72064 -0.251899 4.76156 0.147718 4.24206C0.307565 4.04225 0.547336 3.92236 0.787106 3.92236C1.74619 3.92236 3.10488 5.60075 4.78327 7.79865C5.26281 8.43803 5.78232 9.07742 5.94216 9.1973C6.14197 9.31719 6.14197 9.59692 6.02208 9.79673C5.94216 9.87665 5.82227 9.91661 5.70239 9.91661Z" fill="white"/>
<path d="M14.6538 9.67687C14.6139 9.67687 14.5339 9.67687 14.494 9.63691C14.2942 9.55698 14.1743 9.31721 14.2942 9.07744C14.3341 8.95756 14.4141 8.75775 14.5339 8.51798C15.6129 5.6807 16.8917 2.7635 18.4502 2.48377C18.8098 2.40385 19.3293 2.48377 19.8488 3.04323C20.1685 3.40289 20.3284 3.88243 20.2485 4.36197C20.0487 6.0004 17.5311 7.83863 15.4131 9.23729C15.2533 9.35718 15.0534 9.47706 14.9735 9.51702C14.8536 9.63691 14.7737 9.67687 14.6538 9.67687Z" fill="white"/>
<path d="M21.927 14.9118C19.9689 14.9118 17.0117 13.9927 16.8119 13.5132C16.732 13.3134 16.8119 13.1135 17.0117 12.9937C17.1316 12.9537 17.2515 12.8338 17.4513 12.7539C19.7291 11.3952 22.2467 10.1164 23.6054 10.9157C24.2048 11.2353 24.4845 11.8747 24.4845 12.7939C24.4845 13.9527 23.8451 14.6721 22.6463 14.9118C22.4864 14.9118 22.2067 14.9118 21.927 14.9118Z" fill="white"/>
</svg>
