<svg width="148" height="48" viewBox="0 0 148 48" fill="none" xmlns="http://www.w3.org/2000/svg">
<g clip-path="url(#clip0_75_1312)">
<path d="M143.019 30.6848C139.536 30.6848 137.383 28.1548 137.383 24.9924V24.9608C137.383 21.9249 139.615 19.2368 142.94 19.2368C144.808 19.2368 145.964 19.7744 147.072 20.7073L146.265 21.656C145.41 20.9129 144.46 20.3911 142.892 20.3911C140.438 20.3911 138.681 22.4625 138.681 24.9292V24.9608C138.681 27.6015 140.375 29.5622 143.067 29.5622C144.333 29.5622 145.505 29.072 146.265 28.4553V25.704H142.892V24.5813H147.468V28.9929C146.439 29.91 144.887 30.6848 143.019 30.6848Z" fill="white"/>
<path d="M125.065 30.4948L130.116 19.3472H131.288L136.338 30.4948H134.992L133.694 27.5696H127.662L126.348 30.4948H125.065ZM128.152 26.4469H133.203L130.686 20.8019L128.152 26.4469Z" fill="white"/>
<path d="M110.878 30.4948V19.4263H118.842V20.5806H112.129V24.5336H118.129V25.6721H112.129V30.4948H110.878Z" fill="white"/>
<path d="M102.572 30.6848C99.1996 30.6848 96.9353 28.0442 96.9353 24.9924V24.9608C96.9353 21.909 99.2316 19.2368 102.604 19.2368C105.976 19.2368 108.24 21.8774 108.24 24.9292V24.9608C108.24 28.0126 105.944 30.6848 102.572 30.6848ZM102.604 29.5305C105.137 29.5305 106.942 27.5066 106.942 24.9924V24.9608C106.942 22.4466 105.105 20.3911 102.572 20.3911C100.039 20.3911 98.2337 22.415 98.2337 24.9292V24.9608C98.2337 27.4749 100.071 29.5305 102.604 29.5305Z" fill="white"/>
<path d="M82.1042 30.4948V19.4263H86.2521C88.7543 19.4263 90.4006 20.7545 90.4006 22.9366V22.9682C90.4006 25.3559 88.4057 26.5892 86.0468 26.5892H83.3554V30.4948H82.1042ZM83.3554 25.4507H86.0941C87.9304 25.4507 89.1342 24.4704 89.1342 23.0156V22.984C89.1342 21.4028 87.9464 20.5806 86.1575 20.5806H83.3554V25.4507Z" fill="white"/>
<path d="M68.646 30.4948L73.6966 19.3472H74.8682L79.9185 30.4948H78.5728L77.2751 27.5696H71.2426L69.9285 30.4948H68.646ZM71.7334 26.4469H76.7838L74.2666 20.8019L71.7334 26.4469Z" fill="white"/>
<path d="M55.8506 30.4948V19.4263H57.1172L61.1545 25.4665L65.1918 19.4263H66.4584V30.4948H65.2076V21.5293L61.1703 27.4589H61.107L57.0697 21.5451V30.4948H55.8506Z" fill="white"/>
<path d="M5.22656 9.06156C10.2695 9.06156 14.3425 6.03555 18.6867 6.03555C27.5998 6.03555 40.3146 15.0219 46.3549 15.0219C46.3549 15.0219 40.7216 0 24.0475 0C11.5381 0 5.22656 9.06156 5.22656 9.06156Z" fill="white"/>
<path d="M18.8976 10.1895C28.3998 10.1895 36.6896 18.6343 47.4906 18.6343C47.4906 18.6343 48.0331 20.7264 48.0632 22.7897C36.2717 22.7897 31.1138 16.7828 23.2404 16.7828C14.1602 16.7828 13.0792 23.3763 0 23.3763C0 23.3763 0.0219197 18.168 2.53584 13.2605C11.049 13.2605 12.8025 10.1895 18.8962 10.1895H18.8976Z" fill="white"/>
<path d="M23.5735 20.4419C29.3343 20.4419 38.283 26.4488 47.9715 26.4488C47.9715 26.4488 47.6715 29.0686 47.1605 30.6493C36.4842 30.6493 35.8212 27.0367 26.8313 27.0367C17.8415 27.0367 11.3682 34.2168 2.28249 34.2168C2.28249 34.2168 0.550831 30.6944 0.191895 27.0367C11.9902 27.0367 17.1784 20.4433 23.5735 20.4433V20.4419Z" fill="white"/>
<path d="M27.4943 30.6479C35.2471 30.6479 35.3567 33.5837 46.1001 33.5837C46.1001 33.5837 44.2164 38.3708 39.9722 41.9834C34.7334 41.9834 32.1688 38.9629 24.9297 38.9629C17.6907 38.9629 16.0933 42.6165 8.86799 42.6165C8.86799 42.6165 6.26092 40.5695 4.35938 37.7843C11.7176 37.7843 18.1428 30.6493 27.4943 30.6493V30.6479Z" fill="white"/>
<path d="M26.2848 41.4408C30.7948 41.4408 34.2623 43.7886 37.6585 43.7886C37.6585 43.7886 32.2305 48.0001 24.049 48.0001C17.8882 48.0001 13.5439 45.5949 13.5439 45.5949C16.6661 45.5949 20.372 41.4395 26.2848 41.4395V41.4408Z" fill="white"/>
</g>
<defs>
<clipPath id="clip0_75_1312">
<rect width="148" height="48" fill="white"/>
</clipPath>
</defs>
</svg>
