<svg width="254" height="48" viewBox="0 0 254 48" fill="none" xmlns="http://www.w3.org/2000/svg">
<g clip-path="url(#clip0_75_1240)">
<path d="M47.7703 36.5815C47.3553 37.329 46.8572 38.1179 46.3177 38.7822C45.1971 40.0694 43.869 40.9829 42.1673 41.4812L25.566 46.713C24.819 46.9622 24.0304 46.7961 23.3664 46.3809C22.7023 45.9656 22.2458 45.2597 22.2458 44.5123L19.216 11.8341L19.8801 11.9172L21.4157 12.0002L24.3624 12.2494C25.2755 12.3324 26.0641 12.9968 26.1471 13.7857L29.1768 37.8272L35.5268 36.3739L31.8745 12.7476L32.6216 12.8307L33.7422 12.9137L35.7758 13.0798C36.4399 13.1629 37.1455 13.7442 37.2285 14.4501L40.9638 35.2113L45.6951 34.2148L41.5448 13.5366C41.0468 11.0037 38.6811 8.71996 36.1079 8.38778L13.8206 5.27359C13.0736 5.19054 12.285 5.43968 11.7039 5.93795C11.1229 6.43622 10.8739 7.22515 10.8739 7.97255L12.9905 45.0937L13.0736 47.2113L13.1566 48.0418C6.68205 46.5054 1.95068 41.3982 1.95068 34.5469L1.70166 10.5054C1.70166 7.55733 2.82225 5.14902 4.7314 3.40508C6.43303 1.7857 8.71571 0.706116 11.3304 0.290891C13.4471 -0.0412892 15.7298 -0.0412892 18.0124 0.373936L35.3193 3.73726C40.2167 4.65075 44.533 9.09366 45.6536 13.9103L48.7664 28.1525C49.4304 30.976 49.0154 34.0487 47.7703 36.5815Z" fill="white"/>
<path d="M67.8993 10.2559H75.0794L76.947 27.4462H77.0301L86.1608 10.2559H93.4238L88.4435 33.9652H83.5461L87.8624 15.0725H87.7794L77.6941 33.9652H73.7098L71.4271 15.0725H71.3856L67.8163 33.9652H62.9189L67.8993 10.2559Z" fill="white"/>
<path d="M96.3706 16.7749H101.102L97.4496 33.9652H92.7183L96.3706 16.7749ZM101.683 14.1175H96.9516L97.7817 10.2144H102.513L101.683 14.1175Z" fill="white"/>
<path d="M114.715 22.6713C114.715 20.6367 113.595 19.8063 111.602 19.8063C108.033 19.8063 106.788 24.1246 106.788 27.0727C106.788 29.1073 107.618 30.8097 110.025 30.8097C112.142 30.8097 113.346 29.2734 113.844 27.571H118.575C117.122 31.8893 114.176 34.3392 109.693 34.3392C104.962 34.3392 102.057 31.9724 102.057 26.9897C102.057 21.135 105.626 16.2354 111.727 16.2354C115.877 16.2354 119.364 18.1039 119.447 22.6713H114.715Z" fill="white"/>
<path d="M123.348 16.7751H127.83L127.166 19.8063L127.249 19.8893C128.369 17.5226 130.652 16.2354 133.184 16.2354C133.682 16.2354 134.097 16.2354 134.636 16.3184L133.723 20.8859C133.059 20.7198 132.354 20.5537 131.69 20.5537C128.037 20.5537 126.792 23.2527 126.17 26.2423L124.551 33.8824H119.82L123.348 16.7751Z" fill="white"/>
<path d="M143.269 16.3184C148.001 16.3184 151.238 18.6021 151.238 23.5848C151.238 29.6056 147.503 34.4222 141.236 34.4222C136.504 34.4222 133.35 31.9723 133.35 27.0727C133.433 21.1765 137.168 16.3184 143.269 16.3184ZM141.485 30.8097C145.054 30.8097 146.548 26.4914 146.548 23.6263C146.548 21.3426 145.552 19.8062 143.062 19.8062C139.576 19.8062 138.081 24.0415 138.081 26.9066C138.081 29.0242 139.285 30.8097 141.485 30.8097Z" fill="white"/>
<path d="M171.45 33.9653H166.553L165.971 21.8407L160.618 33.8822H155.72L153.853 16.6919H158.667L159.331 28.8165H159.414L164.643 16.6919H169.375L169.873 28.7334H169.956L175.476 16.6919H180.456L171.45 33.9653Z" fill="white"/>
<path d="M184.648 26.4914C184.648 26.9066 184.648 27.2388 184.648 27.4879C184.648 29.5225 185.935 30.8928 188.466 30.8928C190.334 30.8928 191.247 29.6056 192.036 28.526H196.767C195.231 32.346 192.783 34.4637 187.885 34.4637C183.32 34.4637 180.249 31.8478 180.249 26.9066C180.249 21.3841 183.901 16.3184 189.712 16.3184C194.443 16.3184 197.68 18.8512 197.68 23.8755C197.68 24.7889 197.597 25.744 197.431 26.5744H184.648V26.4914ZM193.032 23.5433C193.032 21.7578 192.617 19.8893 189.795 19.8893C187.18 19.8893 185.81 21.5917 185.146 23.5433H193.032Z" fill="white"/>
<path d="M203.449 10.2559H208.181L206.396 18.6434H206.479C207.931 17.024 209.26 16.3597 211.542 16.3597C215.859 16.3597 217.726 19.6815 217.726 23.6261C217.726 28.9825 214.697 34.3804 208.845 34.3804C206.479 34.3804 204.279 33.633 203.408 31.2662H203.366L202.785 33.9652H198.469L203.449 10.2559ZM204.57 27.2801C204.57 29.3977 205.856 30.9341 207.973 30.9341C211.542 30.9341 213.036 26.6988 213.036 23.7507C213.036 21.633 212.123 19.9306 209.633 19.9306C205.981 19.8891 204.57 24.2074 204.57 27.2801Z" fill="white"/>
<path d="M224.035 26.4914C224.035 26.9066 224.035 27.2388 224.035 27.4879C224.035 29.5225 225.321 30.8928 227.853 30.8928C229.721 30.8928 230.634 29.6056 231.422 28.526H236.154C234.618 32.346 232.169 34.4637 227.272 34.4637C222.706 34.4637 219.635 31.8478 219.635 26.9066C219.635 21.3841 223.288 16.3184 229.098 16.3184C233.829 16.3184 237.067 18.8512 237.067 23.8755C237.067 24.7889 236.984 25.744 236.818 26.5744H224.035V26.4914ZM232.418 23.5433C232.418 21.7578 232.003 19.8893 229.181 19.8893C226.566 19.8893 225.197 21.5917 224.533 23.5433H232.418Z" fill="white"/>
<path d="M241.383 16.7751H245.866L245.202 19.8063L245.285 19.8893C246.405 17.5226 248.688 16.2354 251.22 16.2354C251.718 16.2354 252.133 16.2354 252.672 16.3184L251.759 20.8859C251.095 20.7198 250.389 20.5537 249.725 20.5537C246.073 20.5537 244.828 23.2527 244.205 26.2423L242.587 33.8824H237.814L241.383 16.7751Z" fill="white"/>
</g>
<defs>
<clipPath id="clip0_75_1240">
<rect width="254" height="48" fill="white"/>
</clipPath>
</defs>
</svg>
