<svg width="119" height="48" viewBox="0 0 119 48" fill="none" xmlns="http://www.w3.org/2000/svg">
<g clip-path="url(#clip0_75_1252)">
<mask id="mask0_75_1252" style="mask-type:luminance" maskUnits="userSpaceOnUse" x="0" y="0" width="119" height="48">
<path d="M118.289 0H0V48H118.289V0Z" fill="white"/>
</mask>
<g mask="url(#mask0_75_1252)">
<mask id="mask1_75_1252" style="mask-type:luminance" maskUnits="userSpaceOnUse" x="0" y="0" width="119" height="48">
<path d="M118.289 0H0V48H118.289V0Z" fill="white"/>
</mask>
<g mask="url(#mask1_75_1252)">
<path d="M16.6083 44.8799C16.4989 44.9596 16.3655 45.046 16.2244 45.1391C16.0905 45.229 15.9623 45.3271 15.8405 45.4328C15.73 45.5278 15.6376 45.6419 15.568 45.7698C15.5067 45.888 15.4902 46.0244 15.5219 46.1538C15.5286 46.1797 15.5353 46.2037 15.5421 46.2277C15.5488 46.2517 15.5584 46.2757 15.5661 46.2988C15.5737 46.3218 15.5833 46.3458 15.5929 46.3698L15.6217 46.438C15.5325 46.5695 15.4576 46.7048 15.3837 46.8316C15.3176 46.9518 15.2418 47.0664 15.1572 47.1743C15.0795 47.273 14.9813 47.3536 14.8693 47.4104C14.7352 47.47 14.5886 47.496 14.4423 47.4863C14.2748 47.479 14.1092 47.4489 13.95 47.397C13.7907 47.3446 13.6374 47.276 13.4922 47.1925C13.3418 47.106 13.1972 47.0098 13.0594 46.9045C12.9183 46.7999 12.7801 46.6866 12.6448 46.5704C12.6448 46.5522 12.6381 46.5359 12.6342 46.5196C12.6304 46.5032 12.6266 46.4869 12.6227 46.4696C12.6189 46.4524 12.615 46.436 12.6093 46.4197C12.6035 46.4034 12.5987 46.3861 12.5939 46.3679C12.5525 46.2461 12.4946 46.1305 12.4222 46.0242C12.349 45.9196 12.2651 45.8231 12.1717 45.7362C12.0771 45.6495 11.9767 45.5694 11.8713 45.4962C11.7667 45.4232 11.6573 45.356 11.5498 45.2927C11.5502 45.2959 11.5502 45.2991 11.5498 45.3023L11.5556 45.3109C11.5553 45.3138 11.5553 45.3167 11.5556 45.3196C11.5595 45.3237 11.563 45.3282 11.5661 45.333C11.5719 45.3522 11.5767 45.3724 11.5824 45.3935C11.5882 45.4146 11.5939 45.4328 11.6007 45.454C11.6074 45.4751 11.6122 45.4952 11.6189 45.5154C11.6256 45.5356 11.6323 45.5567 11.64 45.5768C11.7545 45.9072 11.9161 46.2192 12.1199 46.5032C12.3161 46.7793 12.5478 47.0286 12.8089 47.2444C13.0632 47.4556 13.3458 47.6301 13.6486 47.7628C13.9458 47.8941 14.2639 47.9721 14.5881 47.9932C14.9002 48.0131 15.2126 47.9602 15.5008 47.8386C15.7868 47.715 16.0397 47.5255 16.2388 47.2856C16.4552 47.0241 16.6089 46.7164 16.6879 46.3861C16.7775 46.0044 16.7803 45.6075 16.6966 45.2245L16.6083 44.8799Z" fill="white"/>
<path d="M3.73575 28.7732L3.63403 28.8202C3.6014 28.8366 3.56781 28.8538 3.53806 28.8721L3.44209 28.9297C3.40946 28.9498 3.37587 28.971 3.34612 28.993C3.16474 29.113 2.99488 29.2311 2.83653 29.3569C2.67781 29.4804 2.52923 29.6166 2.3922 29.7639C2.24535 29.9222 2.11393 30.0942 1.9997 30.2775C1.8646 30.4945 1.74745 30.7221 1.64941 30.9582C1.96076 30.9147 2.27663 30.9147 2.58798 30.9582C2.91923 31.0044 3.2435 31.0915 3.55341 31.2174C3.89802 31.3574 4.22785 31.5314 4.53804 31.7367C4.88816 31.9689 5.21934 32.2286 5.52843 32.5134L4.21079 28.6177L4.09179 28.6474C4.05341 28.658 4.01502 28.6695 3.97567 28.682L3.85955 28.7233C3.82116 28.7386 3.78374 28.755 3.74535 28.7713" fill="white"/>
<path d="M4.80225 28.561L6.09493 32.353L8.96629 32.3953C8.68707 31.8323 8.36427 31.2921 8.00085 30.7796C7.69528 30.3471 7.34569 29.9476 6.95768 29.5873C6.63706 29.287 6.27392 29.0356 5.87996 28.8414C5.54333 28.6762 5.17668 28.5812 4.80225 28.562" fill="white"/>
<path d="M6.50391 33.5503C6.97685 34.1153 7.40977 34.7126 7.79948 35.3378C8.24994 36.0575 8.65942 36.8021 9.02595 37.5679C9.41846 38.3839 9.79364 39.2661 10.1372 40.205C10.4808 41.1439 10.809 42.1586 11.0969 43.2165C11.118 42.7557 11.1238 42.2815 11.1142 41.8005C11.1046 41.3196 11.0806 40.829 11.0403 40.3337C11 39.8383 10.9443 39.3381 10.8742 38.8351C10.8042 38.3321 10.7169 37.8281 10.6142 37.3241C10.5438 36.9856 10.4687 36.6546 10.3886 36.3314C10.3087 36.0083 10.2223 35.6934 10.1295 35.3868C10.0393 35.0796 9.94335 34.781 9.84163 34.4911C9.7399 34.2012 9.63626 33.9218 9.52881 33.6501L6.50391 33.5503Z" fill="white"/>
<path d="M0 5.63086C0.0831721 6.41038 0.175941 7.19855 0.278306 7.99535C0.380672 8.79215 0.492955 9.59887 0.615153 10.4155C0.737992 11.2315 0.871068 12.0549 1.01438 12.8856C1.15769 13.7163 1.31188 14.5554 1.47694 15.4027C1.69191 16.5099 1.91904 17.5931 2.15831 18.6523C2.39759 19.7115 2.64711 20.7486 2.90686 21.7636C3.1679 22.7787 3.43852 23.7643 3.71875 24.7204C3.99898 25.6766 4.28688 26.6046 4.58246 27.5044C4.70944 27.4846 4.83779 27.4746 4.96633 27.4747C5.09753 27.4764 5.22841 27.488 5.35788 27.5092C5.49157 27.5314 5.62341 27.5635 5.75231 27.6052C5.88744 27.6493 6.01952 27.7022 6.14769 27.7636C5.84827 27.052 5.55269 26.3179 5.26095 25.5614C4.96921 24.8049 4.68706 24.0354 4.41452 23.2526C4.13941 22.4687 3.8691 21.6657 3.60359 20.844C3.33807 20.0222 3.08217 19.1903 2.83585 18.3479C2.51212 17.2382 2.20918 16.1349 1.92703 15.0379C1.64489 13.941 1.38642 12.8615 1.15161 11.7998C0.918731 10.7419 0.706323 9.69614 0.514387 8.66255C0.322452 7.62895 0.150989 6.61838 0 5.63086Z" fill="white"/>
<path d="M25.5902 21.8266C25.4203 21.8545 25.2523 21.8861 25.0844 21.9226C24.9165 21.9591 24.7485 21.9965 24.5825 22.0388C24.4165 22.081 24.2504 22.1271 24.0854 22.1751C23.9203 22.2231 23.7562 22.2769 23.594 22.3316L23.0547 27.1441C23.5899 26.5365 24.159 25.9596 24.7591 25.4161C25.3333 24.8965 25.9374 24.4109 26.5681 23.9617C27.1736 23.53 27.8046 23.1355 28.4577 22.7799C29.0892 22.4361 29.7414 22.1318 30.4106 21.8689C30.0407 21.7552 29.6619 21.6723 29.2782 21.6212C28.9055 21.5718 28.5296 21.5498 28.1535 21.5549C27.7696 21.5549 27.3857 21.5876 26.975 21.6317C26.5642 21.6759 26.1343 21.7393 25.6765 21.8103H25.6535H25.6324H25.6103H25.5882" fill="white"/>
<path d="M21.4816 29.1382L14.498 32.6086C14.4033 32.9926 14.3246 33.3832 14.2619 33.7806C14.1993 34.1781 14.1528 34.5798 14.1228 34.9855C14.0921 35.3919 14.0796 35.8018 14.0853 36.2153C14.0901 36.63 14.1141 37.0475 14.1564 37.4632C14.2191 38.0776 14.3233 38.687 14.4683 39.2873C14.6088 39.8685 14.7896 40.4391 15.0095 40.995C15.2239 41.5369 15.4767 42.0627 15.7657 42.5686C16.0488 43.0629 16.3674 43.5362 16.7187 43.9846C16.7722 41.196 17.2498 38.4318 18.1352 35.7871C18.5437 34.5711 19.0396 33.3863 19.6188 32.2419C20.1638 31.1645 20.7864 30.1281 21.4816 29.1411" fill="white"/>
<path d="M19.3749 0C19.6098 0.889822 19.7984 1.79119 19.9402 2.70048C20.0909 3.64512 20.2041 4.62048 20.2895 5.64096C20.3749 6.66144 20.4373 7.73568 20.4814 8.84064C20.5246 9.96096 20.5505 11.1216 20.5697 12.3197C20.635 14.6323 20.4575 16.9455 20.04 19.2211C19.7322 20.8533 19.2252 22.4415 18.5304 23.9501C17.9703 25.1063 17.3497 26.2324 16.6715 27.3235C16.0553 28.2959 15.5642 29.3423 15.2099 30.4378C15.1984 30.4666 15.1859 30.4944 15.1754 30.5232C15.1648 30.552 15.1504 30.5798 15.1389 30.6086L15.1034 30.6941C15.0919 30.7229 15.0804 30.7517 15.0698 30.7805L21.6753 27.6038V27.5981C22.0131 25.4803 22.23 23.496 22.3471 21.6461C22.4651 19.8461 22.4948 18.1613 22.4632 16.5974C22.4315 15.0662 22.3384 13.6426 22.2098 12.3331C22.0831 11.0448 21.9219 9.86016 21.7415 8.7888C21.6081 7.9776 21.4536 7.18464 21.2847 6.40896C21.1158 5.63328 20.9306 4.88832 20.731 4.15488C20.5313 3.42144 20.3183 2.71488 20.0899 2.02176C19.8615 1.32864 19.6283 0.65376 19.3749 0Z" fill="white"/>
<path d="M46.8083 37.006C42.2978 37.006 40.269 34.75 40.269 31.822L40.4946 31.5964H43.2009L43.4264 31.822C43.4264 33.4012 44.3285 34.3036 47.0348 34.3036C49.0645 34.3036 50.1921 33.6316 50.1921 32.2732C50.1921 30.694 49.29 30.2428 46.1336 29.7916C42.9773 29.3404 40.4955 28.2124 40.4955 25.054C40.4955 22.798 42.2997 20.7686 46.5837 20.7686C50.8677 20.7686 52.6719 22.799 52.6719 25.5052L52.4464 25.7308H49.7401L49.5146 25.5052C49.5146 24.1516 48.8428 23.4748 46.3572 23.4748C44.3285 23.4748 43.6509 24.1516 43.6509 25.054C43.6509 26.4076 44.553 26.8588 47.7104 27.31C50.8677 27.7612 53.3475 29.1148 53.3475 32.2732C53.3475 34.7548 51.5433 37.0098 46.8083 37.0098" fill="white"/>
<path d="M61.0154 37.0069C60.4747 37.0391 59.9333 36.9551 59.4278 36.7605C58.9222 36.5659 58.4643 36.2653 58.0845 35.8788H57.859V41.0629L57.6335 41.2885H54.9272L54.7017 41.0629V25.7279L54.9272 25.5023H57.406L57.6316 25.7279L57.8571 26.3999H58.0826C58.4623 26.0134 58.9203 25.7128 59.4259 25.5182C59.9314 25.3236 60.4728 25.2396 61.0135 25.2719C63.7197 25.2719 65.974 27.5278 65.974 31.1364C65.974 34.745 63.7188 37.0011 61.0135 37.0011M60.3417 27.977C58.5375 27.977 57.8609 29.3307 57.8609 31.1355C57.8609 32.9403 58.5327 34.2938 60.3417 34.2938C62.1507 34.2938 62.8224 32.9403 62.8224 31.1355C62.8224 29.3307 62.1507 27.977 60.3417 27.977Z" fill="white"/>
<path d="M74.5439 28.2096H72.9653C71.1611 28.2096 70.4845 29.112 70.4845 31.1414V36.5548L70.259 36.7804H67.5527L67.3271 36.5548V25.728L67.5527 25.5024H70.0334L70.259 25.728L70.4845 26.4H70.71C70.71 26.4 71.1611 25.4976 73.1908 25.4976H74.5439L74.7695 25.7232V27.9792L74.5439 28.2096Z" fill="white"/>
<path d="M82.8873 37.0071C81.9852 39.2631 81.0831 40.6167 77.9267 40.6167H76.7991L76.5735 40.3911V38.1351L76.7991 37.9095H77.9267C79.0543 37.9095 79.2798 37.6839 79.5054 37.0071V36.7815L75.897 27.984V25.728L76.1225 25.5024H78.1522L78.3777 25.728L81.084 33.3975H81.3096L84.0158 25.728L84.2414 25.5024H86.2711L86.4966 25.728V27.984L82.8873 37.0071Z" fill="white"/>
<path d="M97.5424 36.7808H96.1893L95.738 36.5552L92.5807 33.1712H92.3552L91.002 34.5248L90.7765 34.976V36.5552L90.551 36.7808H87.8447L87.6191 36.5552V21.2163L87.8447 20.9907H90.5529L90.7784 21.2163V30.2403H91.0039L95.5144 25.7283L95.9655 25.5027H97.3188L97.5443 25.7283V27.9843L94.8378 30.6915V30.9171L97.7698 34.3011V36.5571L97.5424 36.7808Z" fill="white"/>
<path d="M109.272 32.0436L109.046 32.2691H102.056L101.831 32.4947C101.86 32.7615 101.942 33.0198 102.071 33.2549C102.2 33.49 102.375 33.6974 102.584 33.865C102.793 34.0326 103.034 34.1573 103.291 34.2318C103.549 34.3064 103.819 34.3295 104.086 34.2995C104.384 34.3321 104.687 34.2873 104.963 34.1696C105.239 34.052 105.481 33.8653 105.665 33.6275L105.89 33.4019H108.596L108.822 33.6275C108.596 34.9811 107.469 37.0115 104.087 37.0115C100.253 37.0115 98.4497 34.3043 98.4497 31.1469C98.4497 27.9894 100.254 25.2822 103.861 25.2822C107.469 25.2822 109.273 27.9894 109.273 31.1469L109.272 32.0436ZM105.89 29.7875C105.833 29.2893 105.595 28.8296 105.22 28.4958C104.846 28.1621 104.361 27.9777 103.86 27.9777C103.359 27.9777 102.875 28.1621 102.501 28.4958C102.126 28.8296 101.888 29.2893 101.831 29.7875L102.056 30.0131H105.665L105.89 29.7875Z" fill="white"/>
<path d="M118.063 28.2096H116.485C114.681 28.2096 114.004 29.112 114.004 31.1414V36.5548L113.778 36.7804H111.072L110.847 36.5548V25.728L111.072 25.5024H113.553L113.778 25.728L114.004 26.4H114.23C114.23 26.4 114.681 25.4976 116.71 25.4976H118.063L118.289 25.7232V27.9792L118.063 28.2096Z" fill="white"/>
</g>
</g>
</g>
<defs>
<clipPath id="clip0_75_1252">
<rect width="119" height="48" fill="white"/>
</clipPath>
</defs>
</svg>
