<svg width="148" height="44" viewBox="0 0 148 44" fill="none" xmlns="http://www.w3.org/2000/svg">
<g clip-path="url(#clip0_75_1276)">
<mask id="mask0_75_1276" style="mask-type:luminance" maskUnits="userSpaceOnUse" x="0" y="0" width="148" height="44">
<path d="M148 0H0V44H148V0Z" fill="white"/>
</mask>
<g mask="url(#mask0_75_1276)">
<path d="M38.0983 14.2888C37.9015 11.3382 35.6983 9.14083 32.7403 8.94547C30.2124 8.78267 26.3755 9.30363 22.4512 12.733C21.1366 13.8823 19.9985 15.263 19.0633 16.8444C18.1272 15.263 16.9899 13.8823 15.6753 12.733C11.7519 9.30451 7.91577 8.78091 5.38541 8.94547C2.42715 9.14083 0.224126 11.3382 0.0273794 14.2888C-0.140252 16.8083 0.382936 20.6336 3.82469 24.5523C5.68626 26.6722 8.09398 28.2994 10.9834 29.3914C10.9843 37.4451 17.2625 43.1827 17.5422 43.4343L17.626 43.5039C18.046 43.8295 18.5427 44.0011 19.0633 44.0011C19.5838 44.0011 20.0832 43.827 20.5181 43.4898L20.6002 43.4203C20.8702 43.1774 27.1413 37.4478 27.1431 29.3914C30.0325 28.2994 32.4401 26.6722 34.3019 24.5523C37.7436 20.6336 38.2667 16.8083 38.0991 14.2888H38.0983ZM15.9003 18.4811C15.7265 18.6017 15.5606 18.7311 15.4054 18.8666C14.0122 20.0836 12.2151 22.2458 11.406 25.7104C9.43152 24.8453 7.78342 23.6696 6.50236 22.2115C3.86437 19.208 3.45675 16.3727 3.58028 14.5229C3.6588 13.3446 4.4405 12.5649 5.62185 12.4866C5.81331 12.4734 6.01007 12.4672 6.20768 12.4672C7.92459 12.4672 10.5546 12.9759 13.3303 15.4011C14.314 16.2609 15.1777 17.2958 15.9012 18.4803L15.9003 18.4811ZM19.0624 27.3454C18.2604 27.3304 16.6767 27.2407 14.8054 26.8165C15.3683 24.0956 16.7058 22.4491 17.7496 21.5374C18.5454 20.8422 19.5785 20.8422 20.3752 21.5374C21.4189 22.4482 22.7565 24.0947 23.3193 26.8165C21.4419 27.2424 19.8538 27.3313 19.0615 27.3454H19.0624ZM17.7001 30.8415V30.8583L18.2974 30.8891C18.3504 30.8918 18.5542 30.9014 18.8859 30.9014H19.058H19.2415C19.5706 30.9014 19.7753 30.8918 19.8458 30.8882L20.0646 30.8662C20.8816 30.8195 22.1168 30.7043 23.539 30.4191C23.464 31.2595 23.2999 32.115 23.0494 32.9686C21.2857 33.3418 19.8017 33.4182 19.0694 33.4298C18.3257 33.4182 16.839 33.3418 15.0754 32.9686C14.8248 32.1142 14.6607 31.2587 14.5857 30.4191C15.8121 30.6647 16.8999 30.7843 17.6993 30.8426L17.7001 30.8415ZM24.7963 15.402C27.8111 12.7682 30.6509 12.3608 32.5046 12.4875C33.6859 12.5658 34.4678 13.3455 34.5463 14.5238C34.669 16.3735 34.2622 19.2089 31.6241 22.2123C30.3431 23.6705 28.6949 24.8462 26.7205 25.7112C25.9114 22.2458 24.1142 20.0836 22.7203 18.8675C22.5659 18.7319 22.4 18.6035 22.2262 18.482C22.9496 17.2967 23.8125 16.2618 24.7954 15.402H24.7963ZM17.7019 36.9215V36.9391L18.2913 36.9718C18.3416 36.9751 18.5401 36.9831 18.8436 36.9831C18.9133 36.9831 18.99 36.9831 19.0571 36.9814C19.4611 36.9866 19.7285 36.9762 19.8246 36.9718L20.0937 36.9426C20.4978 36.9179 20.9098 36.8827 21.3236 36.837C20.5419 38.1403 19.7126 39.1787 19.0624 39.9038C18.413 39.1787 17.5837 38.1403 16.802 36.8379C17.1037 36.8714 17.4037 36.8995 17.7019 36.9215Z" fill="white"/>
<path d="M19.0624 12.2514C22.4494 12.2514 25.2039 9.50312 25.2039 6.12568C25.2039 2.74824 22.4494 0 19.0624 0C15.6754 0 12.9209 2.74824 12.9209 6.12568C12.9209 9.50312 15.6762 12.2514 19.0624 12.2514ZM19.0624 3.54992C20.4864 3.54992 21.6448 4.70536 21.6448 6.12568C21.6448 7.546 20.4864 8.70144 19.0624 8.70144C17.6384 8.70144 16.48 7.546 16.48 6.12568C16.48 4.70536 17.6384 3.54992 19.0624 3.54992Z" fill="white"/>
<path d="M142.699 24.8889C142.192 25.3368 141.596 25.6659 140.943 25.8868C140.286 26.1094 139.53 26.223 138.699 26.223C137.498 26.223 136.438 25.951 135.55 25.4151C134.665 24.881 133.973 24.1136 133.494 23.1342C133.17 22.4724 132.952 21.7297 132.843 20.9201L147.115 20.9104C147.562 20.9104 147.94 20.5663 147.969 20.121C148.088 18.3364 147.853 16.5359 147.184 15.1138C146.416 13.4779 145.258 12.1817 143.745 11.2612C142.235 10.3425 140.537 9.87695 138.698 9.87695C136.86 9.87695 135.306 10.3108 133.86 11.1662C132.414 12.0224 131.265 13.206 130.447 14.6862C129.629 16.1628 129.215 17.8401 129.215 19.6705C129.215 21.5009 129.629 23.179 130.447 24.6548C131.265 26.135 132.414 27.3194 133.86 28.1749C135.306 29.0302 136.934 29.4641 138.698 29.4641C140.79 29.4641 142.618 28.9457 144.131 27.9222C145.484 27.007 146.695 25.3984 147.484 23.7009C147.615 23.4202 147.407 23.0998 147.097 23.0963L144.565 23.0699C144.274 23.0673 144.004 23.2107 143.842 23.4518C143.556 23.8795 143.078 24.5518 142.697 24.8898L142.699 24.8889ZM135.55 13.925C136.439 13.389 137.498 13.1171 138.699 13.1171C139.758 13.1171 140.741 13.3547 141.621 13.8229C142.496 14.2884 143.199 14.9607 143.712 15.8214C144.059 16.4048 144.291 17.0525 144.404 17.753H132.962C133.084 17.1977 133.263 16.6794 133.493 16.2077C133.971 15.2291 134.664 14.4618 135.55 13.9267L135.55 13.925Z" fill="white"/>
<path d="M50.7427 5.41748H49.0196C48.5469 5.41748 48.163 5.80028 48.163 6.27196V10.2478H46.0395C45.5665 10.2478 45.1826 10.6306 45.1826 11.1023V12.5613C45.1826 13.033 45.5665 13.4158 46.0395 13.4158H48.163V23.3871C48.163 24.48 48.4155 25.4709 48.9138 26.3333C49.4132 27.1992 50.1198 27.8838 51.0128 28.3678C51.8994 28.8502 52.9291 29.0938 54.0717 29.0938H55.3985C55.8714 29.0938 56.2553 28.711 56.2553 28.2394V26.7064C56.2553 26.2348 55.8714 25.852 55.3985 25.852H54.2577C53.4196 25.852 52.7808 25.6214 52.3054 25.1471C51.8297 24.6736 51.5987 24.0365 51.5987 23.2005V13.4158H55.3985C55.8714 13.4158 56.2553 13.033 56.2553 12.5613V11.1023C56.2553 10.6306 55.8714 10.2478 55.3985 10.2478H51.5987V6.27196C51.5987 5.80028 51.2148 5.41748 50.7418 5.41748H50.7427Z" fill="white"/>
<path d="M73.023 11.163C71.5275 10.3094 69.8634 9.87646 68.077 9.87646C66.2902 9.87646 64.6264 10.3094 63.131 11.163C61.6355 12.0175 60.4311 13.2064 59.5497 14.6962C58.6675 16.1878 58.2202 17.8616 58.2202 19.67C58.2202 21.4784 58.6675 23.1521 59.5497 24.6437C60.4311 26.1345 61.6363 27.3233 63.131 28.177C64.6256 29.0306 66.2894 29.4643 68.077 29.4643C69.8643 29.4643 71.5284 29.0314 73.023 28.177C74.5173 27.3233 75.7225 26.1345 76.6039 24.6437C77.4864 23.1513 77.9337 21.4784 77.9337 19.67C77.9337 17.8616 77.4864 16.1878 76.6039 14.6962C75.7225 13.2064 74.5184 12.0175 73.023 11.163ZM68.077 26.2233C66.9247 26.2233 65.8589 25.9329 64.9094 25.3592C63.9558 24.7837 63.1855 23.9917 62.6191 23.0034C62.0536 22.0169 61.7678 20.8949 61.7678 19.67C61.7678 18.445 62.0544 17.323 62.6191 16.3365C63.1847 15.3492 63.955 14.5572 64.9094 13.9808C65.8597 13.4079 66.9255 13.1166 68.077 13.1166C69.2282 13.1166 70.2939 13.407 71.2442 13.9808C72.1981 14.5572 72.969 15.3492 73.5345 16.3365C74.1 17.323 74.3861 18.445 74.3861 19.67C74.3861 20.8949 74.0992 22.0169 73.5345 23.0034C72.969 23.9917 72.1981 24.7837 71.2442 25.3592C70.2948 25.9321 69.229 26.2233 68.077 26.2233Z" fill="white"/>
<path d="M101.108 11.1639C99.6242 10.3094 98.0037 9.87648 96.2911 9.87648C94.7295 9.87648 93.2737 10.2399 91.9643 10.9562C91.1836 11.3839 90.4945 11.9031 89.907 12.505V2.55663C89.907 2.08495 89.5233 1.70215 89.0504 1.70215H87.3273C86.8543 1.70215 86.4707 2.08495 86.4707 2.55663V28.2386C86.4707 28.7102 86.8543 29.093 87.3273 29.093H89.0504C89.5233 29.093 89.907 28.7102 89.907 28.2386V26.8358C90.4945 27.4386 91.1836 27.957 91.9643 28.3846C93.2737 29.101 94.7295 29.4645 96.2911 29.4645C98.0045 29.4645 99.6253 29.0314 101.108 28.177C102.59 27.3234 103.783 26.1336 104.652 24.6429C105.521 23.1504 105.962 21.4775 105.962 19.6709C105.962 17.8642 105.521 16.1914 104.652 14.6989C103.783 13.2082 102.591 12.0193 101.108 11.1639ZM96.1042 13.1175C97.2554 13.1175 98.3212 13.4079 99.2715 13.9817C100.225 14.5581 100.996 15.3501 101.561 16.3374C102.126 17.3239 102.412 18.4459 102.412 19.6709C102.412 20.8958 102.126 22.0178 101.561 23.0043C100.995 23.9926 100.225 24.7846 99.2715 25.3601C98.322 25.933 97.2562 26.2242 96.1042 26.2242C94.9519 26.2242 93.871 25.933 92.8962 25.3583C91.9194 24.7837 91.137 23.9917 90.5723 23.0043C90.0067 22.0178 89.7209 20.8967 89.7209 19.6709C89.7209 18.445 90.0076 17.3239 90.5723 16.3374C91.137 15.351 91.9194 14.5598 92.8962 13.9834C93.8718 13.4088 94.9511 13.1175 96.1042 13.1175Z" fill="white"/>
<path d="M121.782 24.8889C121.275 25.3368 120.679 25.6659 120.026 25.8868C119.368 26.1094 118.613 26.223 117.782 26.223C116.58 26.223 115.521 25.951 114.633 25.4151C113.747 24.881 113.056 24.1136 112.577 23.1342C112.253 22.4724 112.035 21.7297 111.926 20.9201L126.198 20.9104C126.645 20.9104 127.023 20.5663 127.052 20.121C127.171 18.3364 126.936 16.5359 126.267 15.1138C125.498 13.4779 124.341 12.1817 122.828 11.2612C121.318 10.3425 119.62 9.87695 117.781 9.87695C115.943 9.87695 114.389 10.3108 112.943 11.1662C111.497 12.0224 110.348 13.206 109.529 14.6862C108.712 16.1628 108.298 17.8401 108.298 19.6705C108.298 21.5009 108.712 23.179 109.529 24.6548C110.348 26.135 111.497 27.3194 112.943 28.1749C114.389 29.0302 116.017 29.4641 117.781 29.4641C119.873 29.4641 121.701 28.9457 123.213 27.9222C124.567 27.007 125.778 25.3984 126.567 23.7009C126.698 23.4202 126.49 23.0998 126.18 23.0963L123.647 23.0699C123.357 23.0673 123.086 23.2107 122.925 23.4518C122.639 23.8795 122.161 24.5518 121.78 24.8898L121.782 24.8889ZM114.633 13.925C115.522 13.389 116.581 13.1171 117.782 13.1171C118.841 13.1171 119.824 13.3547 120.704 13.8229C121.578 14.2884 122.282 14.9607 122.795 15.8214C123.142 16.4048 123.374 17.0525 123.487 17.753H112.045C112.167 17.1977 112.346 16.6794 112.576 16.2077C113.054 15.2291 113.747 14.4618 114.632 13.9267L114.633 13.925Z" fill="white"/>
<path d="M47.2439 42.4769C46.8883 42.4769 46.5532 42.3873 46.2382 42.2069C45.9232 42.0265 45.671 41.7757 45.483 41.4534C45.2942 41.1313 45.1997 40.7714 45.1997 40.3737C45.1997 39.9761 45.2942 39.6161 45.483 39.2941C45.6718 38.9718 45.9232 38.7201 46.2382 38.5406C46.5532 38.3613 46.8883 38.2705 47.2439 38.2705C47.4646 38.2705 47.6711 38.3005 47.8623 38.3593C48.0539 38.4185 48.225 38.5045 48.3761 38.6173C48.5268 38.7298 48.6591 38.8697 48.7721 39.0361L48.6346 39.1973V38.3585H49.4663V42.3881H48.6346V41.5493L48.7721 41.7105C48.6001 41.9577 48.3857 42.1469 48.1297 42.2789C47.8739 42.4109 47.5793 42.4761 47.245 42.4761L47.2439 42.4769ZM47.3569 41.6866C47.5997 41.6866 47.8182 41.6285 48.015 41.5133C48.2118 41.3981 48.3661 41.2405 48.48 41.0417C48.593 40.8429 48.6495 40.6201 48.6495 40.3729C48.6495 40.1257 48.593 39.909 48.48 39.7077C48.3672 39.5061 48.2118 39.3477 48.015 39.2325C47.8182 39.117 47.5986 39.0589 47.3569 39.0589C47.1152 39.0589 46.9035 39.117 46.7067 39.2325C46.5099 39.3477 46.3556 39.5061 46.2418 39.7077C46.1288 39.909 46.0723 40.1309 46.0723 40.3729C46.0723 40.6149 46.1288 40.8429 46.2418 41.0417C46.3548 41.2405 46.5099 41.3981 46.7067 41.5133C46.9035 41.6285 47.1196 41.6866 47.3569 41.6866Z" fill="white"/>
<path d="M52.4712 42.4769C52.0881 42.4769 51.7345 42.387 51.4087 42.2066C51.0824 42.0262 50.8211 41.7773 50.6255 41.4569C50.4287 41.1374 50.3306 40.7757 50.3306 40.3726C50.3306 39.9697 50.4287 39.6089 50.6255 39.2885C50.8222 38.969 51.0832 38.7193 51.4087 38.5389C51.7345 38.3593 52.0892 38.2686 52.4712 38.2686C52.7675 38.2686 53.0516 38.3249 53.3234 38.4377C53.5951 38.5502 53.8332 38.7174 54.0388 38.9374C54.2436 39.1574 54.3919 39.4214 54.4837 39.7277H53.5951C53.4769 39.5129 53.319 39.3474 53.1222 39.2322C52.9254 39.1169 52.7085 39.0589 52.472 39.0589C52.2356 39.0589 52.0195 39.1169 51.8252 39.2322C51.6311 39.3474 51.4793 39.5058 51.369 39.7074C51.2588 39.9089 51.2031 40.1306 51.2031 40.3726C51.2031 40.6146 51.2588 40.8426 51.369 41.0414C51.4793 41.2405 51.632 41.3978 51.8252 41.5133C52.0195 41.6285 52.2347 41.6865 52.472 41.6865C52.7093 41.6865 52.9254 41.6285 53.1222 41.5133C53.319 41.3978 53.476 41.235 53.5951 41.0257H54.4837C54.3919 41.3266 54.2436 41.587 54.0388 41.807C53.8343 42.027 53.5959 42.1942 53.3234 42.3069C53.0516 42.4197 52.7666 42.4758 52.4712 42.4758V42.4769Z" fill="white"/>
<path d="M54.8145 39.1397V38.3584H57.3271V39.1397H54.8145ZM56.8021 42.388C56.5331 42.388 56.2975 42.3341 56.0955 42.2268C55.8934 42.1196 55.7383 41.9664 55.6305 41.7676C55.523 41.5685 55.469 41.3397 55.469 41.082V37.2856H56.3259V40.9525C56.3259 41.1516 56.384 41.3089 56.4995 41.4244C56.6153 41.5396 56.7732 41.5976 56.9724 41.5976H57.328V42.388H56.8032H56.8021Z" fill="white"/>
<path d="M58.1851 37.6007V36.7383H59.1218V37.6007H58.1851ZM58.2256 42.3879V38.3583H59.0822V42.3879H58.2256Z" fill="white"/>
<path d="M61.4891 42.388L59.7114 38.3584H60.6325L61.9656 41.5333H61.7071L63.0322 38.3584H63.9296L62.1596 42.388H61.4891Z" fill="white"/>
<path d="M66.3698 42.4769C65.9923 42.4769 65.6455 42.387 65.328 42.2066C65.0103 42.0262 64.7573 41.7773 64.5682 41.4569C64.3794 41.1374 64.2852 40.7757 64.2852 40.3726C64.2852 39.9697 64.3794 39.6089 64.5682 39.2885C64.7573 38.969 65.0103 38.7193 65.328 38.5389C65.6455 38.3593 65.9931 38.2686 66.3698 38.2686C66.7794 38.2686 67.1534 38.375 67.4929 38.5873C67.8327 38.7993 68.0869 39.0897 68.2564 39.4574C68.4256 39.8253 68.4733 40.2329 68.3975 40.6781H64.8499V39.9766H67.8231L67.5566 40.1782C67.5514 39.9529 67.5001 39.7497 67.4031 39.5693C67.3061 39.3889 67.1683 39.2481 66.991 39.1461C66.8127 39.0438 66.6055 38.9929 66.369 38.9929C66.1325 38.9929 65.9057 39.0493 65.7224 39.1618C65.5389 39.2745 65.3994 39.4346 65.3024 39.6414C65.2054 39.8482 65.1569 40.091 65.1569 40.3709C65.1569 40.6509 65.2054 40.8866 65.3024 41.0961C65.3994 41.3054 65.5397 41.4665 65.7224 41.5801C65.9049 41.6926 66.1237 41.749 66.377 41.749C66.5385 41.749 66.6848 41.7278 66.8171 41.6849C66.9497 41.6417 67.0652 41.5774 67.165 41.4913C67.2644 41.4049 67.3518 41.3002 67.4279 41.177H68.3082C68.1469 41.5749 67.8997 41.8906 67.569 42.1238C67.238 42.3581 66.8375 42.4741 66.369 42.4741L66.3698 42.4769Z" fill="white"/>
<path d="M71.606 44.0001V38.3585H72.4466V39.1973L72.309 39.0361C72.4758 38.7889 72.6874 38.5997 72.9435 38.4677C73.1992 38.3357 73.4939 38.2705 73.8282 38.2705C74.1837 38.2705 74.5191 38.3602 74.8341 38.5406C75.1491 38.721 75.4013 38.9718 75.5893 39.2941C75.7781 39.6161 75.8726 39.9769 75.8726 40.3737C75.8726 40.7705 75.7781 41.1313 75.5893 41.4534C75.4005 41.7757 75.1491 42.0273 74.8341 42.2069C74.5191 42.3873 74.1837 42.4769 73.8282 42.4769C73.4939 42.4769 73.1992 42.4109 72.9435 42.2797C72.6874 42.1477 72.4758 41.9585 72.309 41.7113L72.4625 41.5502V44.0001H71.606ZM73.7143 41.6866C73.9571 41.6866 74.176 41.6285 74.3728 41.5133C74.5693 41.3981 74.7239 41.2405 74.8377 41.0417C74.9504 40.8429 75.0069 40.6201 75.0069 40.3729C75.0069 40.1257 74.9504 39.909 74.8377 39.7077C74.7247 39.5061 74.5693 39.3477 74.3728 39.2325C74.176 39.117 73.9563 39.0589 73.7143 39.0589C73.4726 39.0589 73.2593 39.117 73.0598 39.2325C72.8605 39.3477 72.7042 39.5061 72.5912 39.7077C72.4785 39.909 72.422 40.1309 72.422 40.3729C72.422 40.6149 72.4785 40.8429 72.5912 41.0417C72.7042 41.2405 72.8605 41.3981 73.0598 41.5133C73.2593 41.6285 73.477 41.6866 73.7143 41.6866Z" fill="white"/>
<path d="M76.7363 42.3878V38.3585H77.5769V39.1645L77.4314 39.0517C77.6034 38.8045 77.8073 38.6197 78.041 38.4957C78.2748 38.3717 78.5377 38.3101 78.829 38.3101H79.1517V39.1001H78.6912C78.4919 39.1001 78.3084 39.1461 78.1416 39.2374C77.9749 39.3289 77.8418 39.4593 77.742 39.6281C77.6422 39.7973 77.5929 39.9898 77.5929 40.2045V42.3889H76.7363V42.3878Z" fill="white"/>
<path d="M81.601 42.4769C81.213 42.4769 80.8547 42.387 80.5264 42.2066C80.1974 42.0262 79.9353 41.7773 79.7385 41.4569C79.5417 41.1374 79.4438 40.7757 79.4438 40.3726C79.4438 39.9697 79.5417 39.6089 79.7385 39.2885C79.9353 38.969 80.1974 38.7193 80.5264 38.5389C80.8547 38.3593 81.213 38.2686 81.601 38.2686C81.9893 38.2686 82.3474 38.3585 82.6756 38.5389C83.0038 38.7193 83.2668 38.969 83.4636 39.2885C83.6603 39.6081 83.7582 39.9697 83.7582 40.3726C83.7582 40.7757 83.6595 41.1374 83.4636 41.4569C83.2668 41.7762 83.0038 42.0262 82.6756 42.2066C82.3474 42.387 81.9893 42.4769 81.601 42.4769ZM81.601 41.6865C81.8383 41.6865 82.0547 41.6285 82.2512 41.5133C82.4479 41.3978 82.6023 41.2405 82.7161 41.0414C82.8291 40.8426 82.8856 40.6201 82.8856 40.3726C82.8856 40.1254 82.8291 39.9089 82.7161 39.7074C82.6034 39.5058 82.4479 39.3474 82.2512 39.2322C82.0547 39.1169 81.8375 39.0589 81.601 39.0589C81.3645 39.0589 81.1476 39.1169 80.9509 39.2322C80.7541 39.3474 80.5997 39.5058 80.4859 39.7074C80.3729 39.9089 80.3164 40.1306 80.3164 40.3726C80.3164 40.6146 80.3729 40.8426 80.4859 41.0414C80.5986 41.2405 80.7541 41.3978 80.9509 41.5133C81.1476 41.6285 81.3637 41.6865 81.601 41.6865Z" fill="white"/>
<path d="M86.385 42.4767C86.0295 42.4767 85.694 42.3868 85.3793 42.2064C85.0643 42.026 84.8118 41.7752 84.6239 41.4532C84.4351 41.1311 84.3408 40.7712 84.3408 40.3735C84.3408 39.9756 84.4351 39.6159 84.6239 39.2936C84.8127 38.9716 85.0643 38.7199 85.3793 38.5404C85.694 38.3608 86.0295 38.2703 86.385 38.2703C86.6055 38.2703 86.8119 38.3003 87.0034 38.3591C87.195 38.418 87.3661 38.5043 87.5169 38.6171C87.6679 38.7296 87.8002 38.8695 87.9132 39.0359L87.7517 39.1968V36.5859H88.6083V42.3887H87.7762V41.55L87.914 41.7111C87.7421 41.9583 87.5276 42.1475 87.2716 42.2795C87.0158 42.4115 86.7212 42.4767 86.3866 42.4767H86.385ZM86.498 41.6864C86.7405 41.6864 86.9593 41.6283 87.1561 41.5131C87.3529 41.3979 87.5073 41.2395 87.6211 41.0379C87.7341 40.8363 87.7906 40.6147 87.7906 40.3727C87.7906 40.1307 87.7341 39.9027 87.6211 39.7039C87.5081 39.5048 87.3529 39.3483 87.1561 39.232C86.9593 39.1168 86.7397 39.0587 86.498 39.0587C86.2563 39.0587 86.0443 39.1168 85.8478 39.232C85.6511 39.3475 85.4964 39.5048 85.3826 39.7039C85.2699 39.9027 85.2134 40.1252 85.2134 40.3727C85.2134 40.6199 85.2699 40.8363 85.3826 41.0379C85.4956 41.2395 85.6511 41.3979 85.8478 41.5131C86.0443 41.6283 86.2607 41.6864 86.498 41.6864Z" fill="white"/>
<path d="M91.5887 42.4769C91.2172 42.4769 90.8933 42.3985 90.6191 42.2426C90.3446 42.087 90.131 41.8705 89.9811 41.5942C89.8303 41.317 89.7554 40.9993 89.7554 40.6394V38.3585H90.612V40.6394C90.612 40.8434 90.6525 41.0249 90.733 41.1833C90.814 41.3417 90.927 41.4657 91.0725 41.5537C91.218 41.6426 91.39 41.6866 91.5895 41.6866C91.8806 41.6866 92.1146 41.5898 92.2926 41.3962C92.4701 41.2026 92.5591 40.9501 92.5591 40.6385V38.3574H93.4157V40.6385C93.4157 40.9985 93.3399 41.317 93.19 41.5933C93.0392 41.8705 92.8264 42.0861 92.5511 42.2418C92.2769 42.3977 91.9555 42.4758 91.5895 42.4758L91.5887 42.4769Z" fill="white"/>
<path d="M96.3804 42.4769C95.9973 42.4769 95.6434 42.387 95.3179 42.2066C94.9916 42.0262 94.7303 41.7773 94.5346 41.4569C94.3379 41.1374 94.2397 40.7757 94.2397 40.3726C94.2397 39.9697 94.3379 39.6089 94.5346 39.2885C94.7311 38.969 94.9924 38.7193 95.3179 38.5389C95.6434 38.3593 95.9981 38.2686 96.3804 38.2686C96.6766 38.2686 96.9608 38.3249 97.2325 38.4377C97.5043 38.5502 97.7424 38.7174 97.948 38.9374C98.1528 39.1574 98.3011 39.4214 98.3926 39.7277H97.5043C97.3861 39.5129 97.2281 39.3474 97.0314 39.2322C96.8346 39.1169 96.6177 39.0589 96.3812 39.0589C96.1447 39.0589 95.9284 39.1169 95.7343 39.2322C95.5403 39.3474 95.3885 39.5058 95.2782 39.7074C95.168 39.9089 95.1123 40.1306 95.1123 40.3726C95.1123 40.6146 95.168 40.8426 95.2782 41.0414C95.3885 41.2405 95.5411 41.3978 95.7343 41.5133C95.9284 41.6285 96.1439 41.6865 96.3812 41.6865C96.6185 41.6865 96.8346 41.6285 97.0314 41.5133C97.2281 41.3978 97.3852 41.235 97.5043 41.0257H98.3926C98.3011 41.3266 98.1528 41.587 97.948 41.807C97.7432 42.027 97.5051 42.1942 97.2325 42.3069C96.9608 42.4197 96.6758 42.4758 96.3804 42.4758V42.4769Z" fill="white"/>
<path d="M98.7236 39.1397V38.3584H101.236V39.1397H98.7236ZM100.711 42.388C100.442 42.388 100.207 42.3341 100.005 42.2268C99.8026 42.1196 99.6475 41.9664 99.5397 41.7676C99.4319 41.5685 99.3782 41.3397 99.3782 41.082V37.2856H100.235V40.9525C100.235 41.1516 100.293 41.3089 100.409 41.4244C100.524 41.5396 100.682 41.5976 100.882 41.5976H101.237V42.388H100.712H100.711Z" fill="white"/>
<path d="M102.093 37.6007V36.7383H103.03V37.6007H102.093ZM102.134 42.3879V38.3583H102.99V42.3879H102.134Z" fill="white"/>
<path d="M105.398 42.388L103.62 38.3584H104.541L105.874 41.5333H105.616L106.941 38.3584H107.838L106.068 42.388H105.398Z" fill="white"/>
<path d="M110.279 42.4769C109.901 42.4769 109.554 42.387 109.237 42.2066C108.919 42.0262 108.666 41.7773 108.477 41.4569C108.288 41.1374 108.194 40.7757 108.194 40.3726C108.194 39.9697 108.288 39.6089 108.477 39.2885C108.666 38.969 108.919 38.7193 109.237 38.5389C109.554 38.3593 109.902 38.2686 110.279 38.2686C110.688 38.2686 111.062 38.375 111.402 38.5873C111.741 38.7993 111.996 39.0897 112.165 39.4574C112.334 39.8253 112.382 40.2329 112.306 40.6781H108.758V39.9766H111.732L111.465 40.1782C111.46 39.9529 111.409 39.7497 111.312 39.5693C111.215 39.3889 111.077 39.2481 110.9 39.1461C110.721 39.0438 110.514 38.9929 110.278 38.9929C110.041 38.9929 109.814 39.0493 109.631 39.1618C109.448 39.2745 109.308 39.4346 109.211 39.6414C109.114 39.8482 109.065 40.091 109.065 40.3709C109.065 40.6509 109.114 40.8866 109.211 41.0961C109.308 41.3054 109.448 41.4665 109.631 41.5801C109.814 41.6926 110.032 41.749 110.286 41.749C110.447 41.749 110.594 41.7278 110.726 41.6849C110.858 41.6417 110.974 41.5774 111.073 41.4913C111.173 41.4049 111.261 41.3002 111.336 41.177H112.217C112.055 41.5749 111.808 41.8906 111.478 42.1238C111.147 42.3581 110.746 42.4741 110.278 42.4741L110.279 42.4769Z" fill="white"/>
<path d="M117.316 42.4769C116.939 42.4769 116.592 42.387 116.274 42.2066C115.957 42.0262 115.703 41.7773 115.514 41.4569C115.326 41.1374 115.231 40.7757 115.231 40.3726C115.231 39.9697 115.326 39.6089 115.514 39.2885C115.703 38.969 115.957 38.7193 116.274 38.5389C116.592 38.3593 116.939 38.2686 117.316 38.2686C117.726 38.2686 118.1 38.375 118.439 38.5873C118.779 38.7993 119.033 39.0897 119.203 39.4574C119.373 39.8253 119.42 40.2329 119.345 40.6781H115.797V39.9766H118.77L118.504 40.1782C118.498 39.9529 118.447 39.7497 118.35 39.5693C118.253 39.3889 118.116 39.2481 117.938 39.1461C117.761 39.0438 117.553 38.9929 117.316 38.9929C117.08 38.9929 116.853 39.0493 116.67 39.1618C116.486 39.2745 116.347 39.4346 116.25 39.6414C116.153 39.8482 116.104 40.091 116.104 40.3709C116.104 40.6509 116.153 40.8866 116.25 41.0961C116.347 41.3054 116.486 41.4665 116.67 41.5801C116.852 41.6926 117.071 41.749 117.324 41.749C117.486 41.749 117.632 41.7278 117.764 41.6849C117.897 41.6417 118.012 41.5774 118.112 41.4913C118.212 41.4049 118.299 41.3002 118.375 41.177H119.256C119.094 41.5749 118.848 41.8906 118.516 42.1238C118.184 42.357 117.785 42.4741 117.316 42.4741V42.4769Z" fill="white"/>
<path d="M119.772 39.1399V38.3586H124.799V39.1399H119.772ZM120.427 37.8102C120.427 37.4178 120.548 37.1027 120.791 36.8634C121.033 36.6242 121.356 36.5054 121.76 36.5054H122.285V37.2954H121.922C121.728 37.2954 121.573 37.3518 121.457 37.4646C121.341 37.577 121.283 37.7354 121.283 37.9398V42.389H120.426V37.8111L120.427 37.8102ZM122.94 37.8102C122.94 37.4178 123.061 37.1027 123.304 36.8634C123.546 36.6242 123.869 36.5054 124.273 36.5054H124.798V37.2954H124.435C124.24 37.2954 124.086 37.3518 123.97 37.4646C123.854 37.577 123.796 37.7354 123.796 37.9398V42.389H122.939V37.8111L122.94 37.8102Z" fill="white"/>
<path d="M127.255 42.4769C126.879 42.4769 126.531 42.387 126.213 42.2066C125.896 42.0262 125.643 41.7773 125.454 41.4569C125.265 41.1374 125.17 40.7757 125.17 40.3726C125.17 39.9697 125.265 39.6089 125.454 39.2885C125.643 38.969 125.896 38.7193 126.213 38.5389C126.531 38.3593 126.879 38.2686 127.255 38.2686C127.665 38.2686 128.039 38.375 128.378 38.5873C128.718 38.7993 128.972 39.0897 129.142 39.4574C129.312 39.8253 129.36 40.2329 129.284 40.6781H125.736V39.9766H128.709L128.443 40.1782C128.437 39.9529 128.386 39.7497 128.289 39.5693C128.192 39.3889 128.055 39.2481 127.877 39.1461C127.7 39.0438 127.492 38.9929 127.255 38.9929C127.019 38.9929 126.792 39.0493 126.609 39.1618C126.425 39.2745 126.286 39.4346 126.189 39.6414C126.091 39.8482 126.043 40.091 126.043 40.3709C126.043 40.6509 126.091 40.8866 126.189 41.0961C126.286 41.3054 126.425 41.4665 126.609 41.5801C126.791 41.6926 127.01 41.749 127.263 41.749C127.425 41.749 127.571 41.7278 127.703 41.6849C127.836 41.6417 127.952 41.5774 128.051 41.4913C128.151 41.4049 128.238 41.3002 128.314 41.177H129.195C129.033 41.5749 128.787 41.8906 128.455 42.1238C128.124 42.3581 127.724 42.4741 127.255 42.4741V42.4769Z" fill="white"/>
<path d="M132.023 42.4769C131.64 42.4769 131.286 42.387 130.96 42.2066C130.634 42.0262 130.373 41.7773 130.177 41.4569C129.98 41.1374 129.882 40.7757 129.882 40.3726C129.882 39.9697 129.98 39.6089 130.177 39.2885C130.374 38.969 130.635 38.7193 130.96 38.5389C131.286 38.3593 131.641 38.2686 132.023 38.2686C132.319 38.2686 132.603 38.3249 132.875 38.4377C133.147 38.5502 133.385 38.7174 133.591 38.9374C133.795 39.1574 133.943 39.4214 134.035 39.7277H133.147C133.029 39.5129 132.871 39.3474 132.674 39.2322C132.477 39.1169 132.26 39.0589 132.024 39.0589C131.787 39.0589 131.571 39.1169 131.377 39.2322C131.183 39.3474 131.031 39.5058 130.921 39.7074C130.811 39.9089 130.755 40.1306 130.755 40.3726C130.755 40.6146 130.811 40.8426 130.921 41.0414C131.031 41.2405 131.184 41.3978 131.377 41.5133C131.571 41.6285 131.786 41.6865 132.024 41.6865C132.261 41.6865 132.477 41.6285 132.674 41.5133C132.871 41.3978 133.028 41.235 133.147 41.0257H134.035C133.943 41.3266 133.795 41.587 133.591 41.807C133.386 42.027 133.148 42.1942 132.875 42.3069C132.603 42.4197 132.318 42.4758 132.023 42.4758V42.4769Z" fill="white"/>
<path d="M134.366 39.1397V38.3584H136.879V39.1397H134.366ZM136.354 42.388C136.085 42.388 135.849 42.3341 135.646 42.2268C135.444 42.1196 135.29 41.9664 135.181 41.7676C135.074 41.5685 135.02 41.3397 135.02 41.082V37.2856H135.877V40.9525C135.877 41.1516 135.935 41.3089 136.05 41.4244C136.166 41.5396 136.324 41.5976 136.523 41.5976H136.879V42.388H136.354Z" fill="white"/>
<path d="M137.736 37.6007V36.7383H138.674V37.6007H137.736ZM137.776 42.3879V38.3583H138.633V42.3879H137.776Z" fill="white"/>
<path d="M141.04 42.388L139.262 38.3584H140.183L141.516 41.5333H141.257L142.583 38.3584H143.48L141.71 42.388H141.04Z" fill="white"/>
<path d="M145.92 42.4769C145.544 42.4769 145.196 42.387 144.878 42.2066C144.561 42.0262 144.308 41.7773 144.119 41.4569C143.93 41.1374 143.835 40.7757 143.835 40.3726C143.835 39.9697 143.93 39.6089 144.119 39.2885C144.308 38.969 144.561 38.7193 144.878 38.5389C145.196 38.3593 145.544 38.2686 145.92 38.2686C146.33 38.2686 146.704 38.375 147.043 38.5873C147.383 38.7993 147.637 39.0897 147.807 39.4574C147.977 39.8253 148.025 40.2329 147.949 40.6781H144.401V39.9766H147.374L147.108 40.1782C147.102 39.9529 147.051 39.7497 146.954 39.5693C146.857 39.3889 146.72 39.2481 146.542 39.1461C146.365 39.0438 146.157 38.9929 145.92 38.9929C145.684 38.9929 145.457 39.0493 145.274 39.1618C145.09 39.2745 144.951 39.4346 144.854 39.6414C144.757 39.8482 144.708 40.091 144.708 40.3709C144.708 40.6509 144.757 40.8866 144.854 41.0961C144.951 41.3054 145.09 41.4665 145.274 41.5801C145.456 41.6926 145.675 41.749 145.928 41.749C146.09 41.749 146.236 41.7278 146.369 41.6849C146.501 41.6417 146.616 41.5774 146.716 41.4913C146.816 41.4049 146.903 41.3002 146.979 41.177H147.86C147.698 41.5749 147.452 41.8906 147.12 42.1238C146.789 42.3581 146.389 42.4741 145.92 42.4741V42.4769Z" fill="white"/>
</g>
</g>
<defs>
<clipPath id="clip0_75_1276">
<rect width="148" height="44" fill="white"/>
</clipPath>
</defs>
</svg>
