<svg width="698" height="698" viewBox="0 0 698 698" fill="none" xmlns="http://www.w3.org/2000/svg">
<g clip-path="url(#clip0_66_1236)">
<path d="M465.806 -0.418457H349.5V115.888H465.806V-0.418457Z" stroke="#333333"/>
<path d="M582.112 -0.418457H465.806V115.888H582.112V-0.418457Z" stroke="#333333"/>
<path d="M698.418 -0.418457H582.112V115.888H698.418V-0.418457Z" fill="#FF5100"/>
<path d="M233.194 115.888H116.888V232.194H233.194V115.888Z" stroke="#333333"/>
<path d="M349.5 115.888H233.194V232.194H349.5V115.888Z" stroke="#333333"/>
<path d="M465.806 115.888H349.5V232.194H465.806V115.888Z" stroke="#333333"/>
<path d="M582.112 115.888H465.806V232.194H582.112V115.888Z" fill="#00FA00"/>
<path d="M698.418 115.888H582.112V232.194H698.418V115.888Z" stroke="#333333"/>
<path d="M349.5 232.194H233.194V348.5H349.5V232.194Z" fill="#24CFFF"/>
<path d="M349.5 232.194H233.194V348.5H349.5V232.194Z" stroke="#333333"/>
<path d="M465.806 232.194H349.5V348.5H465.806V232.194Z" stroke="#333333"/>
<path d="M582.112 232.194H465.806V348.5H582.112V232.194Z" stroke="#333333"/>
<path d="M233.194 348.5H116.888V464.806H233.194V348.5Z" stroke="#333333"/>
<path d="M349.5 348.5H233.194V464.806H349.5V348.5Z" stroke="#333333"/>
<path d="M465.806 348.5H349.5V464.806H465.806V348.5Z" stroke="#333333"/>
<path d="M582.112 348.5H465.806V464.806H582.112V348.5Z" fill="#FF42E9"/>
<path d="M582.112 348.5H465.806V464.806H582.112V348.5Z" stroke="#333333"/>
<path d="M698.418 348.5H582.112V464.806H698.418V348.5Z" stroke="#333333"/>
<path d="M233.194 464.806H116.888V581.112H233.194V464.806Z" stroke="#333333"/>
<path d="M349.5 464.806H233.194V581.112H349.5V464.806Z" fill="#FF42E9"/>
<path d="M349.5 464.806H233.194V581.112H349.5V464.806Z" stroke="#333333"/>
<path d="M465.806 464.806H349.5V581.112H465.806V464.806Z" stroke="#333333"/>
<path d="M582.112 464.806H465.806V581.112H582.112V464.806Z" stroke="#333333"/>
<path d="M698.418 464.806H582.112V581.112H698.418V464.806Z" fill="#24CFFF"/>
<path d="M698.418 464.806H582.112V581.112H698.418V464.806Z" stroke="#333333"/>
<path d="M116.888 581.112H0.581543V697.418H116.888V581.112Z" stroke="#333333"/>
<path d="M233.194 581.112H116.888V697.418H233.194V581.112Z" fill="#FF5100"/>
<path d="M233.194 581.112H116.888V697.418H233.194V581.112Z" stroke="#333333"/>
<path d="M349.5 581.112H233.194V697.418H349.5V581.112Z" stroke="#333333"/>
<path d="M465.806 581.112H349.5V697.418H465.806V581.112Z" stroke="#333333"/>
<path d="M582.112 581.112H465.806V697.418H582.112V581.112Z" fill="#00FA00"/>
<path d="M582.112 581.112H465.806V697.418H582.112V581.112Z" stroke="#333333"/>
<path d="M698.418 581.112H582.112V697.418H698.418V581.112Z" stroke="#333333"/>
</g>
<defs>
<clipPath id="clip0_66_1236">
<rect width="699" height="699" fill="white" transform="translate(0 -1)"/>
</clipPath>
</defs>
</svg>
